<?xml version="1.0" standalone="no"?>
<!DOCTYPE svg PUBLIC "-//W3C//DTD SVG 1.1//EN" "http://www.w3.org/Graphics/SVG/1.1/DTD/svg11.dtd" >
<svg>
<metadata>
Created by FontForge 20090914 at Tue Jan 30 10:08:20 2018
 By www-data
Copyright (c) 2012, Sorkin Type Co (www.sorkintype.com)with Reserved Font Name "Fjalla" and Fjalla "One"
</metadata>
<defs>
<font id="FjallaOne-Regular" horiz-adv-x="0" >
  <font-face 
    font-family="Fjalla One"
    font-weight="400"
    font-stretch="normal"
    units-per-em="2048"
    panose-1="2 0 5 6 4 0 0 2 0 4"
    ascent="1638"
    descent="-410"
    x-height="1377"
    cap-height="1708"
    bbox="-146 -457.886 2519 2066"
    underline-thickness="102"
    underline-position="-103"
    unicode-range="U+0009-U+FB02"
  />
<missing-glyph horiz-adv-x="1326" 
d="M105 1943h1116v-1943h-1116v1943zM520 399l87 203l56 158l55 -158l87 -203h224l-265 545l265 537h-236l-85 -205l-47 -138l-45 138l-84 205h-236l264 -536l-264 -546h224z" />
    <glyph glyph-name="f_f" unicode="ff" horiz-adv-x="1239" 
d="M164 1185l-118.999 -0.000976562v192h119v89c0 74.667 7.66699 135.5 23 182.5s36.5 83.667 63.5 110s58.667 44.166 95 53.499s75.5 14 117.5 14c12 0 25.5 -0.666992 40.5 -2s30 -3.5 45 -6.5s29.667 -6.5 44 -10.5s27.166 -9 38.499 -15v-178
c-28 7.33301 -59.333 11 -94 11c-16.667 0 -32.5 -2.66699 -47.5 -8s-28.167 -14.166 -39.5 -26.499s-20.333 -28.666 -27 -48.999s-10 -45.5 -10 -75.5v-89h191v-192h-191v-1185h-249v1185zM787.001 1197l-118.999 -0.000976562v180h119v99
c0 74.667 7.66699 135.5 23 182.5s36.5 83.667 63.5 110s58.667 44.166 95 53.499s75.5 14 117.5 14c12 0 25.5 -0.666992 40.5 -2s30 -3.5 45 -6.5s29.667 -6.5 44 -10.5s27.166 -9 38.499 -15v-178c-28 7.33301 -59.333 11 -94 11c-16.667 0 -32.5 -2.66699 -47.5 -8
s-28.167 -14.166 -39.5 -26.499s-20.333 -28.666 -27 -48.999s-10 -45.5 -10 -75.5v-99h191v-180h-191v-1197h-249v1197z" />
    <glyph glyph-name="f_i" unicode="fi" horiz-adv-x="1144" 
d="M164 1185l-119 -0.000976562v192h119v99c0 74.667 7.5 135.5 22.5 182.5s35.5 83.667 61.5 110s56.5 44.166 91.5 53.499s72.833 14 113.5 14c11.333 0 24 -0.666992 38 -2s28 -3.5 42 -6.5s27.833 -6.5 41.5 -10.5s25.834 -9 36.501 -15v-178
c-25.333 7.33301 -53.333 11 -84 11c-15.333 0 -29.833 -2.66699 -43.5 -8s-25.834 -14.166 -36.501 -26.499s-19 -28.666 -25 -48.999s-9 -45.5 -9 -75.5v-99h191v-192h-191v-1185h-249v1185zM888 1574c-46.667 0 -83.5 14.001 -110.5 42.001s-40.5 69 -40.5 123
c0 30 3.5 55.167 10.5 75.5s17 36.666 30 48.999s28.833 21.333 47.5 27s40 8.5 64 8.5c50 0 88 -12.667 114 -38s39 -66 39 -122c0 -52 -13.167 -92.5 -39.5 -121.5s-64.5 -43.5 -114.5 -43.5zM757 1377h253v-1377h-253v1377z" />
    <glyph glyph-name="f_l" unicode="fl" horiz-adv-x="1147" 
d="M164 1185l-119 -0.000976562v192h119v99c0 74.667 7.5 135.5 22.5 182.5s35.5 83.667 61.5 110s56.5 44.166 91.5 53.499s72.833 14 113.5 14c11.333 0 24 -0.666992 38 -2s28 -3.5 42 -6.5s27.833 -6.5 41.5 -10.5s25.834 -9 36.501 -15v-178
c-25.333 7.33301 -53.333 11 -84 11c-15.333 0 -29.833 -2.66699 -43.5 -8s-25.834 -14.166 -36.501 -26.499s-19 -28.666 -25 -48.999s-9 -45.5 -9 -75.5v-99h191v-192h-191v-1185h-249v1185zM760 1819h253v-1819h-253v1819z" />
    <glyph glyph-name=".notdef" horiz-adv-x="1326" 
d="M105 1943h1116v-1943h-1116v1943zM520 399l87 203l56 158l55 -158l87 -203h224l-265 545l265 537h-236l-85 -205l-47 -138l-45 138l-84 205h-236l264 -536l-264 -546h224z" />
    <glyph glyph-name=".null" 
 />
    <glyph glyph-name=".null" 
 />
    <glyph glyph-name="HT" unicode="&#x9;" 
 />
    <glyph glyph-name="LF" unicode="&#xa;" 
 />
    <glyph glyph-name="nonmarkingreturn" unicode="&#xd;" 
 />
    <glyph glyph-name="DLE" 
 />
    <glyph glyph-name="DC1" 
 />
    <glyph glyph-name="DC2" 
 />
    <glyph glyph-name="DC3" 
 />
    <glyph glyph-name="DC4" 
 />
    <glyph glyph-name="RS" 
 />
    <glyph glyph-name="US" 
 />
    <glyph glyph-name="space" unicode=" " horiz-adv-x="438" 
 />
    <glyph glyph-name="exclam" unicode="!" horiz-adv-x="690" 
d="M208 1813h273l-31 -1258h-207zM191 177c0 70 14 120.167 42 150.5s66 45.5 114 45.5c50 0 88.667 -16 116 -48s41 -81.333 41 -148c0 -60.667 -13.833 -107.667 -41.5 -141s-66.5 -50 -116.5 -50c-47.333 0 -85 16.167 -113 48.5s-42 79.833 -42 142.5z" />
    <glyph glyph-name="quotedbl" unicode="&#x22;" horiz-adv-x="1123" 
d="M206 1876h249l-21 -696h-203zM668 1876h249l-21 -696h-203z" />
    <glyph glyph-name="numbersign" unicode="#" horiz-adv-x="1108" 
d="M237 385h-141v182h154l19 242h-133v182h146l28 378h179l-28 -378h238l28 378h179l-28 -378h134v-182h-147l-19 -242h126v-182h-139l-28 -385h-179l28 385h-238l-28 -385h-179zM668 567l18 242h-239l-18 -242h239z" />
    <glyph glyph-name="dollar" unicode="$" horiz-adv-x="1006" 
d="M97 346c0 36.667 2.1709 70.4971 6.50391 101.497s10.833 64.5 19.5 100.5h201v-82c0 -92.667 14 -163.334 42 -212.001s71 -73 129 -73c49.333 0 86.166 12.5 110.499 37.5s36.5 61.5 36.5 109.5c0 18.667 -1.83301 38.167 -5.5 58.5s-10 41.833 -19 64.5
s-21.167 47 -36.5 73s-35 54 -59 84l-263 339c-47.333 60.667 -84.333 121.834 -111 183.501s-40 130.167 -40 205.5c0 50 7.16699 96.5 21.5 139.5s35 81 62 114s60 60.333 99 82s83.5 36.5 133.5 44.5v228h186v-230c54.667 -9.33301 100.5 -26 137.5 -50
s66.833 -52.167 89.5 -84.5s38.834 -67.333 48.501 -105s14.5 -75.5 14.5 -113.5c0 -36.667 -2.66699 -70.5 -8 -101.5s-11.666 -65.167 -18.999 -102.5h-200v82c0 90.667 -14.333 160.167 -43 208.5s-70 72.5 -124 72.5c-48.667 0 -85.5 -13.5 -110.5 -40.5
s-37.5 -63.167 -37.5 -108.5c0 -38.667 7.83301 -73.834 23.5 -105.501s36.167 -64.167 61.5 -97.5l295 -382c27.333 -36 51.666 -70.667 72.999 -104s39.166 -66.666 53.499 -99.999s25.166 -67.5 32.499 -102.5s11 -72.167 11 -111.5
c0 -49.333 -6.83301 -94.666 -20.5 -135.999s-33.334 -78 -59.001 -110s-56.834 -58.667 -93.501 -80s-78 -36.666 -124 -45.999v-251h-186v243c-63.333 6 -116 20.333 -158 43s-75.5 50.334 -100.5 83.001s-42.833 69 -53.5 109s-16 81 -16 123z" />
    <glyph glyph-name="percent" unicode="%" horiz-adv-x="1885" 
d="M479 786c-38 0 -76.165 5.33594 -114.498 16.0029s-73 31.5 -104 62.5s-56.167 75 -75.5 132s-29 131.833 -29 224.5v107c0 60.667 4.66699 113.167 14 157.5s22.166 82.166 38.499 113.499s35.166 56.666 56.499 75.999s44 34.333 68 45s48.5 18 73.5 22s49.5 6 73.5 6
c22.667 0 46.334 -1.83301 71.001 -5.5s48.834 -10.834 72.501 -21.501s46.167 -25.5 67.5 -44.5s40 -44.167 56 -75.5s28.667 -69.333 38 -114s14 -97.667 14 -159v-107c0 -91.333 -10.333 -165.5 -31 -222.5s-46.834 -101.167 -78.501 -132.5
s-66.334 -52.5 -104.001 -63.5s-73.167 -16.5 -106.5 -16.5zM1085 1727h181l-459 -1727h-182zM481.002 945.003c42 0 71.333 18.167 88 54.5s25 92.833 25 169.5v194c0 77.333 -8.33301 134.333 -25 171s-46 55 -88 55c-44 0 -74.833 -18.333 -92.5 -55
s-26.5 -93.667 -26.5 -171v-194c0 -76.667 8.83301 -133.167 26.5 -169.5s48.5 -54.5 92.5 -54.5zM1087 527.003c0 91.333 10.166 164.5 30.499 219.5s46.333 97.333 78 127s66.5 49.334 104.5 59.001s74.667 14.5 110 14.5c22.667 0 46.334 -1.83301 71.001 -5.5
s48.834 -10.834 72.501 -21.501s46.167 -25.5 67.5 -44.5s40 -44.167 56 -75.5s28.667 -69.333 38 -114s14 -97.667 14 -159v-107c0 -61.333 -4.83301 -114.666 -14.5 -159.999s-22.667 -84 -39 -116s-35.166 -58.333 -56.499 -79s-43.833 -37 -67.5 -49
s-47.834 -20.167 -72.501 -24.5s-48 -6.5 -70 -6.5c-25.333 0 -50.833 2.16699 -76.5 6.5s-50.334 12.166 -74.001 23.499s-46 27.333 -67 48s-39.167 47 -54.5 79s-27.5 70.833 -36.5 116.5s-13.5 99.5 -13.5 161.5v107zM1292 368.003
c0 -76.667 8.83301 -133.167 26.5 -169.5s48.5 -54.5 92.5 -54.5c42 0 71.333 18.167 88 54.5s25 92.833 25 169.5v194c0 77.333 -8.33301 134.333 -25 171s-46 55 -88 55c-44 0 -74.833 -18.333 -92.5 -55s-26.5 -93.667 -26.5 -171v-194z" />
    <glyph glyph-name="ampersand" unicode="&#x26;" horiz-adv-x="1211" 
d="M55 410c0 56.667 9.3291 109.999 27.9961 159.999s41.334 96.167 68.001 138.5s54.834 80.666 84.501 114.999l77.5 89.5l27 29l-34 61c-17.333 31.333 -34 64.333 -50 99s-30.167 70.167 -42.5 106.5s-22.166 73.333 -29.499 111s-11 75.167 -11 112.5
c0 58 10 110.333 30 157s47 86.334 81 119.001s74 57.834 120 75.501s95 26.5 147 26.5c68 0 124.167 -10.333 168.5 -31s79.5 -46.5 105.5 -77.5s44.167 -64.333 54.5 -100s15.5 -68.834 15.5 -99.501c0 -62 -10.167 -119.5 -30.5 -172.5s-44.666 -101.333 -72.999 -145
s-57.833 -82.667 -88.5 -117l-77 -87.5l-22 -25l258 -469c11.333 36.667 20.166 75 26.499 115s9.5 81 9.5 123c0 22 -0.333008 42.5 -1 61.5s-1.66699 37.5 -3 55.5h209c3.33301 -17.333 5.83301 -36.166 7.5 -56.499s2.5 -40.5 2.5 -60.5
c0 -79.333 -12.5 -156.666 -37.5 -231.999s-58.833 -145 -101.5 -209l156 -282h-268l-56 100c-48 -36.667 -98.667 -65.334 -152 -86.001s-107.666 -31 -162.999 -31c-64 0 -122.667 9.5 -176 28.5s-99.333 46.5 -138 82.5s-68.667 80.5 -90 133.5s-32 113.5 -32 181.5z
M527.996 1143l45.501 54c17 20.667 33.167 44 48.5 70s28.333 55 39 87s16 66.667 16 104c0 25.333 -3.5 47.333 -10.5 66s-16.333 34 -28 46s-25 21 -40 27s-30.833 9 -47.5 9c-15.333 0 -31.333 -2.83301 -48 -8.5s-31.834 -15.167 -45.501 -28.5s-25 -31.166 -34 -53.499
s-13.5 -50.166 -13.5 -83.499c0 -22.667 1.83301 -44.834 5.5 -66.501s9.5 -44.667 17.5 -69s18.5 -50.333 31.5 -78s28.5 -58.834 46.5 -93.501zM311.997 444.999c0 -32 4.49902 -63.833 13.499 -95.5s23 -60 42 -85s43.333 -45.333 73 -61s64.834 -23.5 105.501 -23.5
c33.333 0 64.5 6.66699 93.5 20s55.833 32 80.5 56l-284 512c-40 -50 -70.667 -102.5 -92 -157.5s-32 -110.167 -32 -165.5z" />
    <glyph glyph-name="quotesingle" unicode="'" horiz-adv-x="661" 
d="M206 1876h249l-21 -696h-203z" />
    <glyph glyph-name="parenleft" unicode="(" horiz-adv-x="776" 
d="M654 -257c-24 0 -49.833 1.16699 -77.5 3.5s-56 8.16602 -85 17.499s-58 23.5 -87 42.5s-57 45 -84 78s-52 74.167 -75 123.5s-43 109.333 -60 180s-30.333 153 -40 247s-14.5 202.333 -14.5 325v197c0 120 4.83301 226.333 14.5 319s23 174 40 244s37 129.5 60 178.5
s48 89.833 75 122.5s55 58.5 84 77.5s58 33.167 87 42.5s57.333 15.333 85 18s53.5 4 77.5 4v-173c-96.667 0 -169.667 -66.167 -219 -198.5s-74 -328.5 -74 -588.5v-291c0 -137.333 6.66699 -255.833 20 -355.5s32.5 -182.167 57.5 -247.5s55.667 -113.666 92 -144.999
s77.5 -47 123.5 -47v-174z" />
    <glyph glyph-name="parenright" unicode=")" horiz-adv-x="776" 
d="M121 -83c46 0 87.334 15.667 124.001 47s67.5 79.666 92.5 144.999s44.167 147.833 57.5 247.5s20 218.167 20 355.5v291c0 258.667 -24.833 454.5 -74.5 587.5s-122.834 199.5 -219.501 199.5v173c24 0 50 -1.33301 78 -4s56.5 -8.66699 85.5 -18s58 -23.5 87 -42.5
s56.833 -44.833 83.5 -77.5s51.5 -73.5 74.5 -122.5s43 -108.5 60 -178.5s30.333 -151.333 40 -244s14.5 -199 14.5 -319v-197c0 -122.667 -4.83301 -231 -14.5 -325s-23 -176.333 -40 -247s-37 -130.667 -60 -180s-47.833 -90.5 -74.5 -123.5s-54.5 -59 -83.5 -78
s-58 -33.167 -87 -42.5s-57.5 -15.166 -85.5 -17.499s-54 -3.5 -78 -3.5v174v0z" />
    <glyph glyph-name="asterisk" unicode="*" horiz-adv-x="1048" 
d="M167 993l237 246l-325 61l71 239l299 -162l-46 350h246l-54 -350l301 157l73 -239l-331 -56l235 -253l-200 -146l-152 313l-155 -309z" />
    <glyph glyph-name="plus" unicode="+" horiz-adv-x="835" 
d="M317 691h-272v196h272v313h199v-313h274v-196h-274v-323h-199v323z" />
    <glyph glyph-name="comma" unicode="," horiz-adv-x="512" 
d="M155 350h257l-146 -677h-211z" />
    <glyph glyph-name="hyphen" unicode="-" horiz-adv-x="997" 
d="M126 888h745v-203h-745v203z" />
    <glyph glyph-name="period" unicode="." horiz-adv-x="501" 
d="M91 179c0 70.667 14 121.334 42 152.001s66 46 114 46c50 0 88.667 -16.333 116 -49s41 -82.334 41 -149.001c0 -61.333 -13.833 -108.833 -41.5 -142.5s-66.5 -50.5 -116.5 -50.5c-47.333 0 -85 16.333 -113 49s-42 80.667 -42 144z" />
    <glyph glyph-name="slash" unicode="/" horiz-adv-x="552" 
d="M323 1884h219l-313 -2210h-219z" />
    <glyph glyph-name="zero" unicode="0" horiz-adv-x="1047" 
d="M105 1220c0 74.667 6.83398 139.166 20.501 193.499s31.667 100 54 137s48.166 66.833 77.499 89.5s59.5 40.167 90.5 52.5s62 20.5 93 24.5s59.5 6 85.5 6c24.667 0 52.167 -1.83301 82.5 -5.5s61 -11.334 92 -23.001s61 -28.667 90 -51s54.667 -52.166 77 -89.499
s40.333 -83.333 54 -138s20.5 -120 20.5 -196v-722c0 -74.667 -6.83301 -139.167 -20.5 -193.5s-31.834 -100.5 -54.501 -138.5s-48.667 -68.833 -78 -92.5s-59.333 -42 -90 -55s-61.167 -21.833 -91.5 -26.5s-57.5 -7 -81.5 -7c-26.667 0 -55.667 2.33301 -87 7
s-62.666 13.5 -93.999 26.5s-61.5 31.167 -90.5 54.5s-54.5 54 -76.5 92s-39.667 84.333 -53 139s-20 119.334 -20 194.001v722zM370.001 388.999c0 -70.667 12.833 -122 38.5 -154s64.834 -48 117.501 -48c51.333 0 89.666 16 114.999 48s38 83.333 38 154v925
c0 74.667 -12.667 129 -38 163s-63.666 51 -114.999 51c-52.667 0 -91.834 -17 -117.501 -51s-38.5 -88.333 -38.5 -163v-925z" />
    <glyph glyph-name="one" unicode="1" horiz-adv-x="830" 
d="M152 195h198v1165l-212 -187l-112 131l388 404h193l-1 -2l1 1v-1512h197v-195h-652v195z" />
    <glyph glyph-name="two" unicode="2" horiz-adv-x="992" 
d="M102 152l376.996 725.998c34.667 66 62.834 123.667 84.501 173s38.667 92.5 51 129.5s20.833 69.167 25.5 96.5s7 52 7 74c0 34.667 -3.16699 63.834 -9.5 87.501s-15.666 42.667 -27.999 57s-27.666 24.5 -45.999 30.5s-39.5 9 -63.5 9
c-58.667 0 -101.167 -24.167 -127.5 -72.5s-39.5 -117.833 -39.5 -208.5v-97h-200c-7.33301 37.333 -13.666 71.5 -18.999 102.5s-8 64.833 -8 101.5c0 43.333 7.5 86.5 22.5 129.5s38.5 81.833 70.5 116.5s72.833 62.667 122.5 84s109.167 32 178.5 32
c74.667 0 138.5 -8.66699 191.5 -26s96.5 -42.666 130.5 -75.999s58.833 -74 74.5 -122s23.5 -102.333 23.5 -163c0 -34.667 -3.16699 -68.834 -9.5 -102.501s-16.833 -69.667 -31.5 -108s-33.667 -80.166 -57 -125.499s-52 -97.333 -86 -156l-337 -640h499v-204h-796v152z
" />
    <glyph glyph-name="three" unicode="3" horiz-adv-x="1035" 
d="M100 348c0 28.667 2.00488 60.168 6.00488 94.501s10.333 69.833 19 106.5h202v-87c0 -53.333 4.5 -98 13.5 -134s21.167 -65 36.5 -87s33.666 -37.667 54.999 -47s44.666 -14 69.999 -14c24.667 0 47 3.5 67 10.5s37 18.5 51 34.5s24.667 36.5 32 61.5s11 55.5 11 91.5
v189c0 36 -3.16699 68 -9.5 96s-16.5 51.5 -30.5 70.5s-32.333 33.5 -55 43.5s-50.667 15 -84 15h-109v185h109c21.333 0 41.333 3.5 60 10.5s35 18.333 49 34s25 35.834 33 60.501s12 54.667 12 90v179c0 63.333 -12.333 109.833 -37 139.5s-61.334 44.5 -110.001 44.5
c-54 0 -95.5 -24.167 -124.5 -72.5s-43.5 -117.833 -43.5 -208.5v-97h-200c-7.33301 33.333 -13.666 66.5 -18.999 99.5s-8 67.833 -8 104.5c0 43.333 8 86.5 24 129.5s40.167 81.833 72.5 116.5s73.333 62.667 123 84s108.167 32 175.5 32c72.667 0 135 -8.33301 187 -25
s94.5 -41.167 127.5 -73.5s57.333 -72 73 -119s23.5 -100.5 23.5 -160.5v-105c0 -48.667 -6.16699 -91.834 -18.5 -129.501s-28.333 -70.5 -48 -98.5s-42 -51.833 -67 -71.5s-50.5 -35.5 -76.5 -47.5v-8c33.333 -11.333 64.333 -26.166 93 -44.499s53.5 -41.833 74.5 -70.5
s37.5 -63.334 49.5 -104.001s18 -89 18 -145v-113c0 -78.667 -11.333 -145 -34 -199s-53.334 -97.5 -92.001 -130.5s-83.834 -56.833 -135.501 -71.5s-106.167 -22 -163.5 -22c-130.667 0 -230.334 31.667 -299.001 95s-103 152.666 -103 267.999z" />
    <glyph glyph-name="four" unicode="4" horiz-adv-x="1100" 
d="M81 442l498 1266h309v-1199h158v-203h-158v-306h-241v306h-566v136zM647 509v252l24 644h-30l-296 -896h302z" />
    <glyph glyph-name="five" unicode="5" horiz-adv-x="1030" 
d="M126 351c0 60.667 8.33203 126.667 24.999 198h202v-140c0 -81.333 11.833 -139.833 35.5 -175.5s62.5 -53.5 116.5 -53.5c54.667 0 93.334 19.667 116.001 59s34 96 34 170v330c0 42.667 -3.66699 77.167 -11 103.5s-17.333 47 -30 62s-27.5 25.167 -44.5 30.5
s-35.5 8 -55.5 8c-37.333 0 -69.333 -10.5 -96 -31.5s-48.667 -46.167 -66 -75.5h-191v872h734v-229h-518v-422c28 32 63.167 57 105.5 75s86.5 27 132.5 27c106 0 183.667 -35.667 233 -107s74 -176.333 74 -315v-290c0 -88 -11.333 -161.5 -34 -220.5
s-52.667 -106.333 -90 -142s-80.5 -61.167 -129.5 -76.5s-99.5 -23 -151.5 -23c-63.333 0 -119.333 8.5 -168 25.5s-89.5 41.5 -122.5 73.5s-58 70.5 -75 115.5s-25.5 95.5 -25.5 151.5z" />
    <glyph glyph-name="six" unicode="6" horiz-adv-x="1050" 
d="M108 1209c0 78.667 7.16309 146.003 21.4961 202.003s33.333 103.167 57 141.5s50.834 68.666 81.501 90.999s62.167 39.5 94.5 51.5s64.5 19.667 96.5 23s61.333 5 88 5c68.667 0 127.334 -8.83301 176.001 -26.5s88.5 -41.334 119.5 -71.001s53.5 -64.167 67.5 -103.5
s21 -80.666 21 -123.999c0 -23.333 -2.16699 -49 -6.5 -77s-11.166 -56 -20.499 -84h-197v52c0 52 -3.16699 94.333 -9.5 127s-16 58.5 -29 77.5s-29.5 32 -49.5 39s-44 10.5 -72 10.5c-57.333 0 -101.166 -19.5 -131.499 -58.5s-45.5 -101.5 -45.5 -187.5v-329
c25.333 28 58.5 51.5 99.5 70.5s88.5 28.5 142.5 28.5c38.667 0 77.834 -6.16699 117.501 -18.5s75.667 -34.333 108 -66s58.666 -74.667 78.999 -129s30.5 -123.833 30.5 -208.5v-166c0 -91.333 -9.5 -168.333 -28.5 -231s-46.167 -113.5 -81.5 -152.5
s-77.833 -67.167 -127.5 -84.5s-105.5 -26 -167.5 -26c-70 0 -131.833 9.33301 -185.5 28s-99 48.667 -136 90s-65 95.166 -84 161.499s-28.5 147.166 -28.5 242.499v702zM369.996 410.003c0 -78.667 13.499 -136.668 40.499 -174.001s69.833 -56 128.5 -56
c51.333 0 89 18.333 113 55s36 91.667 36 165v254c0 41.333 -3.66699 76 -11 104s-17.666 50.5 -30.999 67.5s-29.333 29.167 -48 36.5s-39.667 11 -63 11c-18 0 -35.167 -2.66699 -51.5 -8s-31.5 -12.333 -45.5 -21s-26.667 -18.667 -38 -30s-21.333 -22.666 -30 -33.999
v-370z" />
    <glyph glyph-name="seven" unicode="7" horiz-adv-x="848" 
d="M543 1480h-502v229h780v-137l-470 -1572h-281z" />
    <glyph glyph-name="eight" unicode="8" horiz-adv-x="1042" 
d="M87 519c0 50 5.33398 94.3311 16.001 132.998s25.5 72.667 44.5 102s41.5 54.5 67.5 75.5s54 39.167 84 54.5v8c-22 12 -44.167 27 -66.5 45s-42.5 40.167 -60.5 66.5s-32.667 57.333 -44 93s-17 76.5 -17 122.5v120c0 55.333 6.66699 103.333 20 144
s30.833 75.334 52.5 104.001s46.834 51.834 75.501 69.501s58.167 31.5 88.5 41.5s60.666 16.667 90.999 20s58.166 5 83.499 5c26 0 54 -1.66699 84 -5s60.333 -10 91 -20s60.167 -23.833 88.5 -41.5s53.5 -40.667 75.5 -69s39.667 -62.833 53 -103.5s20 -88.667 20 -144
v-120c0 -46 -5.66699 -86.833 -17 -122.5s-26 -66.667 -44 -93s-38.167 -48.5 -60.5 -66.5s-44.5 -33 -66.5 -45v-8c30.667 -15.333 58.834 -33.5 84.501 -54.5s48 -46.167 67 -75.5s33.833 -63.333 44.5 -102s16 -83 16 -133v-105c0 -58.667 -6 -110 -18 -154
s-28.5 -82 -49.5 -114s-45.5 -58.333 -73.5 -79s-58.167 -37.167 -90.5 -49.5s-66 -21 -101 -26s-69.833 -7.5 -104.5 -7.5s-69.334 2.5 -104.001 7.5s-68.167 13.5 -100.5 25.5s-62.5 28.5 -90.5 49.5s-52.167 47.333 -72.5 79s-36.5 69.5 -48.5 113.5s-18 95.333 -18 154
v105zM534.001 975.998c19.333 0 37.5 3.16895 54.5 9.50195s31.833 17.166 44.5 32.499s22.667 36 30 62s11 58.667 11 98v141c0 70.667 -11.833 124.334 -35.5 161.001s-62.5 55 -116.5 55s-92.5 -18.667 -115.5 -56s-34.5 -91.333 -34.5 -162v-140
c0 -38 3.16699 -69.833 9.5 -95.5s15.5 -46.334 27.5 -62.001s26.5 -26.834 43.5 -33.501s36.167 -10 57.5 -10h24zM350.001 393c0 -43.333 4.83203 -78.8301 14.499 -106.497s22.334 -49.334 38.001 -65.001s33.834 -26.5 54.501 -32.5s42 -9 64 -9s43.5 3 64.5 9
s39.5 17 55.5 33s29 37.833 39 65.5s15 63.167 15 106.5v188c0 37.333 -3.83301 69.166 -11.5 95.499s-18.5 48 -32.5 65s-31 29.333 -51 37s-42 11.5 -66 11.5h-25c-48.667 0 -87.334 -16.833 -116.001 -50.5s-43 -86.834 -43 -159.501v-188z" />
    <glyph glyph-name="nine" unicode="9" horiz-adv-x="1039" 
d="M924 499c0 -78.667 -6.99707 -146.002 -20.9971 -202.002s-32.667 -103.167 -56 -141.5s-49.833 -68.666 -79.5 -90.999s-60.5 -39.5 -92.5 -51.5s-63.5 -19.667 -94.5 -23s-59.5 -5 -85.5 -5c-70.667 0 -131 8.83301 -181 26.5s-90.667 41.334 -122 71.001
s-54.333 64.167 -69 103.5s-22 80.666 -22 123.999c0 23.333 2.16699 49 6.5 77s11.166 56 20.499 84h197v-37c0 -52 3.33301 -94.333 10 -127s17 -58.5 31 -77.5s31.667 -32 53 -39s46.666 -10.5 75.999 -10.5c53.333 0 94.5 19.5 123.5 58.5s43.5 101.5 43.5 187.5v314
c-25.333 -28 -58 -51.5 -98 -70.5s-87 -28.5 -141 -28.5c-38.667 0 -78 6.16699 -118 18.5s-76.333 34.333 -109 66s-59.334 74.667 -80.001 129s-31 123.833 -31 208.5v166c0 90.667 9.5 167.5 28.5 230.5s46.167 114 81.5 153s77.833 67.167 127.5 84.5s105.5 26 167.5 26
c70 0 131.833 -8.83301 185.5 -26.5s99 -46.5 136 -86.5s65 -92.667 84 -158s28.5 -145.666 28.5 -240.999v-712zM662.003 1326c0 38.667 -3.33203 71.502 -9.99902 98.502s-16.834 48.667 -30.501 65s-31.167 28.166 -52.5 35.499s-46.666 11 -75.999 11
c-51.333 0 -89 -18.333 -113 -55s-36 -91.667 -36 -165v-262c0 -41.333 3.66699 -76 11 -104s17.666 -50.5 30.999 -67.5s29.333 -29.167 48 -36.5s39.667 -11 63 -11c18 0 35.167 2.66699 51.5 8s31.5 12.333 45.5 21s26.667 18.667 38 30s21.333 22.666 30 33.999v398z
" />
    <glyph glyph-name="colon" unicode=":" horiz-adv-x="501" 
d="M91 1151c0 70.667 14 121.334 42 152.001s66 46 114 46c50 0 88.667 -16.333 116 -49s41 -82.334 41 -149.001c0 -61.333 -13.833 -108.833 -41.5 -142.5s-66.5 -50.5 -116.5 -50.5c-47.333 0 -85 16.333 -113 49s-42 80.667 -42 144zM91 179
c0 70.667 14 121.334 42 152.001s66 46 114 46c50 0 88.667 -16.333 116 -49s41 -82.334 41 -149.001c0 -61.333 -13.833 -108.833 -41.5 -142.5s-66.5 -50.5 -116.5 -50.5c-47.333 0 -85 16.333 -113 49s-42 80.667 -42 144z" />
    <glyph glyph-name="semicolon" unicode=";" horiz-adv-x="501" 
d="M91 1151c0 70.667 14 121.334 42 152.001s66 46 114 46c50 0 88.667 -16.333 116 -49s41 -82.334 41 -149.001c0 -61.333 -13.833 -108.833 -41.5 -142.5s-66.5 -50.5 -116.5 -50.5c-47.333 0 -85 16.333 -113 49s-42 80.667 -42 144zM155 350h257l-146 -677h-211z" />
    <glyph glyph-name="less" unicode="&#x3c;" horiz-adv-x="775" 
d="M45 862l644 400v-235l-416 -235v-8l416 -236v-234l-644 401v147z" />
    <glyph glyph-name="equal" unicode="=" horiz-adv-x="916" 
d="M86 1090h744v-195h-744v195zM86 683h744v-195h-744v195z" />
    <glyph glyph-name="greater" unicode="&#x3e;" horiz-adv-x="775" 
d="M679.003 862l-643.961 400v-235l415.975 -235v-8l-415.975 -236v-234l643.961 401v147z" />
    <glyph glyph-name="question" unicode="?" horiz-adv-x="1026" 
d="M392 760c0 26.667 0.664062 49.833 1.99707 69.5s4.16602 38.5 8.49902 56.5s10.833 36.167 19.5 54.5s20.334 39.166 35.001 62.499l118 186c25.333 41.333 45.333 84 60 128s22 84.667 22 122c0 27.333 -3.66699 52.333 -11 75s-17.666 42 -30.999 58
s-29.833 28.5 -49.5 37.5s-41.5 13.5 -65.5 13.5c-54 0 -93.667 -24 -119 -72s-38 -117.333 -38 -208v-82h-204c-7.33301 37.333 -13.666 71.5 -18.999 102.5s-8 64.833 -8 101.5c0 50.667 7.66699 98 23 142s39.333 82.333 72 115s74 58.334 124 77.001s109.667 28 179 28
c68.667 0 128.834 -9.16699 180.501 -27.5s94.834 -44.5 129.501 -78.5s60.5 -74.833 77.5 -122.5s25.5 -100.834 25.5 -159.501c0 -33.333 -3 -65.166 -9 -95.499s-15.333 -60.666 -28 -90.999s-28.334 -61.333 -47.001 -93s-41 -64.834 -67 -99.501l-80 -108
c-19.333 -26 -34.333 -48.333 -45 -67s-18.5 -37 -23.5 -55s-8.16699 -37 -9.5 -57s-2 -44 -2 -72v-144h-221zM359.997 176.999c0 70 14 120.167 42 150.5s66 45.5 114 45.5c50 0 88.667 -16 116 -48s41 -81.333 41 -148c0 -60.667 -13.833 -107.667 -41.5 -141
s-66.5 -50 -116.5 -50c-47.333 0 -85 16.167 -113 48.5s-42 79.833 -42 142.5z" />
    <glyph glyph-name="at" unicode="@" horiz-adv-x="1649" 
d="M90 945c0 121.333 10.6748 227.166 32.0078 317.499s50.166 167.833 86.499 232.5s78.666 118 126.999 160s99.666 75.167 153.999 99.5s110 41.333 167 51s112.5 14.5 166.5 14.5c55.333 0 112 -4 170 -12s114.167 -23 168.5 -45s105.666 -52.667 153.999 -92
s90.5 -90.166 126.5 -152.499s64.5 -137.833 85.5 -226.5s31.5 -193.667 31.5 -315v-212c0 -93.333 -4.33301 -179.666 -13 -258.999s-24.5 -148 -47.5 -206s-54.833 -103.333 -95.5 -136s-93.334 -49 -158.001 -49c-68.667 0 -123.334 15.5 -164.001 46.5
s-70.334 79.833 -89.001 146.5c-23.333 -62.667 -54.833 -110.334 -94.5 -143.001s-84.167 -49 -133.5 -49c-17.333 0 -36.666 1.16699 -57.999 3.5s-43 8.5 -65 18.5s-43.333 25.167 -64 45.5s-39 48.166 -55 83.499s-28.833 79.666 -38.5 132.999s-14.5 118 -14.5 194v243
c0 68.667 4.5 127.834 13.5 177.501s21 91.5 36 125.5s32.333 61.5 52 82.5s39.834 37.167 60.501 48.5s41.167 18.833 61.5 22.5s38.833 5.5 55.5 5.5c46.667 0 86.334 -11.833 119.001 -35.5s59.667 -53.167 81 -88.5l19 109h196v-834c0 -29.333 2.5 -53.833 7.5 -73.5
s11.833 -35.167 20.5 -46.5s18.5 -19.333 29.5 -24s22.167 -7 33.5 -7c14.667 0 28.667 4.5 42 13.5s24.666 27.5 33.999 55.5s16.833 68.167 22.5 120.5s8.5 121.833 8.5 208.5v280c0 106 -8.5 196.167 -25.5 270.5s-39.5 136.333 -67.5 186s-60.333 88.667 -97 117
s-74.834 49.5 -114.501 63.5s-79.5 22.833 -119.5 26.5s-77.333 5.5 -112 5.5c-35.333 0 -73 -2.5 -113 -7.5s-80 -15.833 -120 -32.5s-78.333 -40.5 -115 -71.5s-69 -72.5 -97 -124.5s-50.5 -116 -67.5 -192s-25.5 -167 -25.5 -273v-471c0 -108.667 9 -201.167 27 -277.5
s42.167 -140.166 72.5 -191.499s65.666 -92 105.999 -122s82.5 -52.5 126.5 -67.5s88.833 -24.5 134.5 -28.5s89.167 -6 130.5 -6c19.333 0 41 0.833008 65 2.5s48.167 4.33398 72.5 8.00098s48 8.16699 71 13.5s43.5 11.666 61.5 18.999v-160
c-13.333 -9.33301 -32 -18 -56 -26s-51 -15 -81 -21s-61.5 -10.833 -94.5 -14.5s-64.833 -5.5 -95.5 -5.5c-42.667 0 -90.5 3.66699 -143.5 11s-106.833 22.333 -161.5 45s-107.834 54.667 -159.501 96s-97.667 95.833 -138 163.5s-72.833 150.667 -97.5 249
s-37 215.5 -37 351.5v432zM821.008 312c25.333 0 45.999 8.16602 61.999 24.499s29.333 35.833 40 58.5v622c-10.667 25.333 -24.167 46.5 -40.5 63.5s-36.5 25.5 -60.5 25.5c-14.667 0 -28.834 -3 -42.501 -9s-25.667 -17.667 -36 -35s-18.666 -41.833 -24.999 -73.5
s-9.5 -73.167 -9.5 -124.5v-318c0 -49.333 2.66699 -89.166 8 -119.499s13 -54 23 -71s21.833 -28.5 35.5 -34.5s28.834 -9 45.501 -9z" />
    <glyph glyph-name="A" unicode="A" horiz-adv-x="967" 
d="M334 1708h298l316 -1708h-262l-47 306h-312l-45 -306h-263zM609 501l-120 851h-11l-121 -851h252z" />
    <glyph glyph-name="B" unicode="B" horiz-adv-x="1047" 
d="M146 1708l262.003 0.000976562c38.667 0 78.667 -1.33301 120 -4s81.666 -8.33398 120.999 -17.001s76.666 -21.5 111.999 -38.5s66.166 -39.833 92.499 -68.5s47.333 -64.167 63 -106.5s23.5 -93.166 23.5 -152.499v-83c0 -45.333 -6.5 -87 -19.5 -125
s-30.167 -71.5 -51.5 -100.5s-45.666 -53 -72.999 -72s-55.333 -31.833 -84 -38.5v-8c84.667 -15.333 148.5 -55.5 191.5 -120.5s64.5 -148.167 64.5 -249.5v-87c0 -62 -6.83301 -115.833 -20.5 -161.5s-32.834 -84.667 -57.501 -117s-54 -58.833 -88 -79.5
s-71.333 -36.834 -112 -48.501s-84 -19.667 -130 -24s-93.333 -6.5 -142 -6.5h-272v1708zM450.003 977.001c34.667 0 66.334 4.16699 95.001 12.5s53.167 21.333 73.5 39s36 40.667 47 69s16.5 62.5 16.5 102.5v70c0 40 -4 75.333 -12 106s-21.167 56.667 -39.5 78
s-42.333 37.5 -72 48.5s-65.834 16.5 -108.501 16.5h-50v-542h50zM474.003 180.001c34.667 0 66.167 4.5 94.5 13.5s52.666 23 72.999 42s36 43.167 47 72.5s16.5 64 16.5 104v133c0 40 -4 75.5 -12 106.5s-21.167 57 -39.5 78s-42.166 37 -71.499 48
s-65.333 16.5 -108 16.5h-74v-614h74z" />
    <glyph glyph-name="C" unicode="C" horiz-adv-x="936" 
d="M514 -15c-26.667 0 -55.502 2.16309 -86.502 6.49609s-62 13.5 -93 27.5s-60.667 33.833 -89 59.5s-53.333 59.5 -75 101.5s-39 93.833 -52 155.5s-19.5 135.167 -19.5 220.5v605c0 86 6.66699 159.5 20 220.5s31 112.333 53 154s47.333 74.834 76 99.501
s58.334 43.5 89.001 56.5s61.167 21.5 91.5 25.5s58.5 6 84.5 6c68 0 124.833 -9.5 170.5 -28.5s82.334 -45 110.001 -78s47.334 -71.5 59.001 -115.5s17.5 -90.667 17.5 -140c0 -36.667 -1.83301 -70.5 -5.5 -101.5s-9.16699 -65.167 -16.5 -102.5h-210v87
c0 94 -10.333 164.333 -31 211s-51 70 -91 70c-24 0 -45 -4.66699 -63 -14s-33 -25.166 -45 -47.499s-21.167 -51.833 -27.5 -88.5s-9.5 -82.334 -9.5 -137.001v-780c0 -53.333 2.5 -97.666 7.5 -132.999s13.167 -63.666 24.5 -84.999s26.166 -36.5 44.499 -45.5
s40.5 -13.5 66.5 -13.5c16.667 0 32.667 3.83301 48 11.5s28.833 19.667 40.5 36s21 37 28 62s10.5 54.5 10.5 88.5v167h237v-158c0 -137.333 -31.333 -238.666 -94 -303.999s-152.667 -98.333 -270 -99z" />
    <glyph glyph-name="D" unicode="D" horiz-adv-x="1061" 
d="M146 1708l269 0.00195312c40.667 0 82.834 -1.16699 126.501 -3.5s86.334 -9.5 128.001 -21.5s81 -30.5 118 -55.5s69.5 -60 97.5 -105s50.167 -101.667 66.5 -170s24.5 -151.833 24.5 -250.5v-496c0 -98.667 -8.16699 -182.334 -24.5 -251.001
s-38.5 -125.334 -66.5 -170.001s-60.5 -79.5 -97.5 -104.5s-76.333 -43.5 -118 -55.5s-84.334 -19.167 -128.001 -21.5s-85.834 -3.5 -126.501 -3.5h-269v1708zM471 181.002c46.667 0 85.167 6.00195 115.5 18.002s54.333 33.167 72 63.5s29.834 71.666 36.501 123.999
s10 118.5 10 198.5v530c0 80 -3.33301 146.167 -10 198.5s-18.834 93.666 -36.501 123.999s-41.667 51.5 -72 63.5s-68.833 18 -115.5 18h-66v-1338h66z" />
    <glyph glyph-name="E" unicode="E" horiz-adv-x="830" 
d="M146 1708h633v-204h-374v-511h289v-204h-289v-585h384v-204h-643v1708z" />
    <glyph glyph-name="F" unicode="F" horiz-adv-x="826" 
d="M146 1708h653v-204h-394v-511h309v-204h-309v-789h-259v1708z" />
    <glyph glyph-name="G" unicode="G" horiz-adv-x="1047" 
d="M491 -16c-20 0 -43.3359 2.16504 -70.0029 6.49805s-54.167 13.5 -82.5 27.5s-56.166 33.833 -83.499 59.5s-51.833 59.667 -73.5 102s-39.167 94.333 -52.5 156s-20 135.167 -20 220.5v605c0 86 7 159.5 21 220.5s32.667 112.333 56 154s50.166 74.834 80.499 99.501
s61.833 43.5 94.5 56.5s65 21.5 97 25.5s61.667 6 89 6c69.333 0 127.833 -9.5 175.5 -28.5s86.334 -45 116.001 -78s51 -71.5 64 -115.5s19.5 -90.667 19.5 -140c0 -36.667 -2.16699 -70.5 -6.5 -101.5s-10.166 -65.167 -17.499 -102.5h-207v81
c0 187.333 -50.333 281 -151 281c-27.333 0 -51 -4.66699 -71 -14s-36.667 -25.166 -50 -47.499s-23.166 -51.833 -29.499 -88.5s-9.5 -82.334 -9.5 -137.001v-774c0 -53.333 3.16699 -97.666 9.5 -132.999s16 -63.666 29 -84.999s29.333 -36.5 49 -45.5
s43.167 -13.5 70.5 -13.5c28.667 0 53.334 7.5 74.001 22.5s37.667 35.5 51 61.5s23.166 56.667 29.499 92s9.5 73.666 9.5 114.999v223h-133v170h385v-865h-172l-28 162c-32.667 -63.333 -70.167 -108.833 -112.5 -136.5s-92.5 -41.5 -150.5 -41.5z" />
    <glyph glyph-name="H" unicode="H" horiz-adv-x="1119" 
d="M146 1708h259v-715h307v715h259v-1708h-259v789h-307v-789h-259v1708z" />
    <glyph glyph-name="I" unicode="I" horiz-adv-x="551" 
d="M146 1708h259v-1708h-259v1708z" />
    <glyph glyph-name="J" unicode="J" horiz-adv-x="850" 
d="M351 -16c-64 0 -117.669 10.002 -161.002 30.002s-78.166 47.167 -104.499 81.5s-45.166 74.5 -56.499 120.5s-17 94.667 -17 146c0 36 2.33301 76.5 7 121.5s11.667 90.167 21 135.5h207l-3 -208c0 -44 2 -80.833 6 -110.5s10.167 -53.334 18.5 -71.001
s19 -30.334 32 -38.001s28.833 -11.5 47.5 -11.5c15.333 0 29.166 3 41.499 9s22.833 16.5 31.5 31.5s15.334 35.333 20.001 61s7 57.834 7 96.501l3 1330h259v-1294c0 -88 -10 -160 -30 -216s-46.833 -99.833 -80.5 -131.5s-72 -53.334 -115 -65.001
s-87.5 -17.5 -133.5 -17.5z" />
    <glyph glyph-name="K" unicode="K" horiz-adv-x="1005" 
d="M146 1708h259v-746h8l296 746h258l-330 -801l367 -907h-277l-314 813h-8v-813h-259v1708z" />
    <glyph glyph-name="L" unicode="L" horiz-adv-x="776" 
d="M146 1708h259v-1504h353v-204h-612v1708z" />
    <glyph glyph-name="M" unicode="M" horiz-adv-x="1442" 
d="M146 1708h337.998l164 -661c17.333 -73.333 31 -143.166 41 -209.499l29 -187.5h8l29 187.5c10 66.333 23.667 136.166 41 209.499l169 661h331v-1708h-242v565c0 86.667 0.833008 170 2.5 250s3.83398 153.5 6.50098 220.5s5.66699 126.167 9 177.5s6.33301 92 9 122
h-19l-258 -1115h-164l-260 1115h-19c2.66699 -30 5.66699 -70.667 9 -122s6.33301 -110.5 9 -177.5s4.83398 -140.5 6.50098 -220.5s2.5 -163.333 2.5 -250v-565h-242v1708z" />
    <glyph glyph-name="N" unicode="N" horiz-adv-x="1127" 
d="M146 1708l210 -0.00292969l414 -1143h6c-2 26.667 -4.66699 56.334 -8 89.001s-6.33301 69.834 -9 111.501s-5 88.834 -7 141.501s-3 112 -3 178v623h232v-1708h-212l-412 1113h-8c2 -30 4.66699 -62.5 8 -97.5s6.33301 -76.167 9 -123.5s5 -102.5 7 -165.5
s3 -137.833 3 -224.5v-502h-230v1708z" />
    <glyph glyph-name="O" unicode="O" horiz-adv-x="1044" 
d="M524 -15c-27.333 0 -57.001 2.16602 -89.001 6.49902s-63.667 13.5 -95 27.5s-61.5 33.833 -90.5 59.5s-54.667 59.5 -77 101.5s-40.166 93.833 -53.499 155.5s-20 135.167 -20 220.5v605c0 86 6.83301 159.5 20.5 220.5s31.834 112.333 54.501 154
s48.5 74.834 77.5 99.501s59.333 43.5 91 56.5s63.167 21.5 94.5 25.5s60.333 6 87 6c25.333 0 53.5 -1.83301 84.5 -5.5s62 -11.667 93 -24s61.167 -30.666 90.5 -54.999s55.333 -57.333 78 -99s40.834 -93.334 54.501 -155.001s20.5 -136.167 20.5 -223.5v-605
c0 -84.667 -7 -157.5 -21 -218.5s-32.333 -112.667 -55 -155s-48.834 -76.333 -78.501 -102s-60 -45.667 -91 -60s-61.833 -23.833 -92.5 -28.5s-58.334 -7 -83.001 -7zM523.999 179.999c25.333 0 47.5 4.33301 66.5 13s34.667 23.667 47 45s21.666 49.5 27.999 84.5
s9.5 79.167 9.5 132.5v777c0 54.667 -3.16699 100.334 -9.5 137.001s-15.666 66.167 -27.999 88.5s-28 38.166 -47 47.499s-41.167 14 -66.5 14c-26 0 -48.667 -4.66699 -68 -14s-35.333 -25.166 -48 -47.499s-22.167 -51.833 -28.5 -88.5s-9.5 -82.334 -9.5 -137.001v-777
c0 -53.333 3.16699 -97.5 9.5 -132.5s15.833 -63.167 28.5 -84.5s28.667 -36.333 48 -45s42 -13 68 -13z" />
    <glyph glyph-name="P" unicode="P" horiz-adv-x="982" 
d="M146 1708l259 0.000976562c32.667 0 68.5 -1.5 107.5 -4.5s78 -10 117 -21s76.667 -27.833 113 -50.5s68.5 -53.5 96.5 -92.5s50.5 -87.833 67.5 -146.5s25.5 -130 25.5 -214v-60c0 -91.333 -7.83301 -169.5 -23.5 -234.5s-36.5 -119.667 -62.5 -164
s-56.167 -79.833 -90.5 -106.5s-70 -46.834 -107 -60.501s-74.333 -22.667 -112 -27s-73.167 -6.5 -106.5 -6.5h-25v-520h-259v1708zM418 710.001c46.667 0 86 6.83301 118 20.5s57.5 35 76.5 64s32.667 66.333 41 112s12.5 100.5 12.5 164.5v154
c0 50.667 -3.66699 94.5 -11 131.5s-20.5 67.5 -39.5 91.5s-44.5 41.833 -76.5 53.5s-72.333 17.5 -121 17.5h-13v-809h13z" />
    <glyph glyph-name="Q" unicode="Q" horiz-adv-x="1064" 
d="M429 -5c-38 7.33301 -76 21.332 -114 41.999s-72.333 52.334 -103 95.001s-55.5 98.167 -74.5 166.5s-28.5 154.166 -28.5 257.499v605c0 86 6.83301 159.5 20.5 220.5s31.834 112.333 54.501 154s48.5 74.834 77.5 99.501s59.333 43.5 91 56.5s63.167 21.5 94.5 25.5
s60.333 6 87 6c25.333 0 53.5 -1.83301 84.5 -5.5s62 -11.667 93 -24s61.167 -30.666 90.5 -54.999s55.333 -57.333 78 -99s40.834 -93.334 54.501 -155.001s20.5 -136.167 20.5 -223.5v-605c0 -98.667 -9.33301 -181.5 -28 -248.5s-42.834 -121.833 -72.501 -164.5
s-62.667 -75.167 -99 -97.5s-72.5 -37.833 -108.5 -46.5v-15c0 -32.667 3.83301 -59 11.5 -79s19 -35.5 34 -46.5s33.667 -18.333 56 -22s48.166 -5.5 77.499 -5.5h28c9.33301 0 18 0.333008 26 1v-140c-32.667 -14.667 -63.334 -24.667 -92.001 -30s-59 -8 -91 -8
c-14 0 -30.333 0.833008 -49 2.5s-38 5.66699 -58 12s-39.5 15.333 -58.5 27s-36.167 27.667 -51.5 48s-27.666 45.5 -36.999 75.5s-14 66.333 -14 109v67zM534 179.999c25.333 0 47.5 4.33301 66.5 13s34.667 23.667 47 45s21.666 49.5 27.999 84.5s9.5 79.167 9.5 132.5
v777c0 54.667 -3.16699 100.334 -9.5 137.001s-15.666 66.167 -27.999 88.5s-28 38.166 -47 47.499s-41.167 14 -66.5 14c-26 0 -48.667 -4.66699 -68 -14s-35.333 -25.166 -48 -47.499s-22.167 -51.833 -28.5 -88.5s-9.5 -82.334 -9.5 -137.001v-777
c0 -53.333 3.16699 -97.5 9.5 -132.5s15.833 -63.167 28.5 -84.5s28.667 -36.333 48 -45s42 -13 68 -13z" />
    <glyph glyph-name="R" unicode="R" horiz-adv-x="1048" 
d="M146 1708l280.999 -0.000976562c32 0 67.167 -1.33301 105.5 -4s76.666 -9.16699 114.999 -19.5s75.333 -25.833 111 -46.5s67.334 -49 95.001 -85s49.834 -81.167 66.501 -135.5s25 -120.166 25 -197.499v-43c0 -130 -18.667 -235.833 -56 -317.5
s-92.333 -140.5 -165 -176.5l274 -683h-274l-227 639h-97v-639h-254v1708zM438.999 825.999c45.333 0 83.667 5 115 15s56.666 26.833 75.999 50.5s33.333 55 42 94s13 87.167 13 144.5v135c0 44 -4 82 -12 114s-21.5 58.333 -40.5 79s-44.167 36 -75.5 46
s-70.666 15 -117.999 15h-39v-693h39z" />
    <glyph glyph-name="S" unicode="S" horiz-adv-x="956" 
d="M80 346c0 36.667 2.16699 70.5 6.5 101.5s10.833 64.5 19.5 100.5h201v-83c0 -46 2.83301 -86.667 8.5 -122s15 -65.166 28 -89.499s30.333 -42.666 52 -54.999s48.167 -18.5 79.5 -18.5c49.333 0 87 13.5 113 40.5s39 66.5 39 118.5c0 26.667 -1.83301 51.167 -5.5 73.5
s-10 44.5 -19 66.5s-21.167 45.167 -36.5 69.5s-35 51.5 -59 81.5l-270 321c-48 61.333 -85 123.166 -111 185.499s-39 128.833 -39 199.5c0 56.667 8.83301 108.667 26.5 156s43.167 88.166 76.5 122.499s74.5 61 123.5 80s104.5 28.5 166.5 28.5
c75.333 0 138.166 -10.667 188.499 -32s90.5 -49.333 120.5 -84s51.167 -73.5 63.5 -116.5s18.5 -86.167 18.5 -129.5c0 -36.667 -2.83301 -70.5 -8.5 -101.5l-19.5 -102.5h-200v81c0 90.667 -13 160.167 -39 208.5s-68.333 72.5 -127 72.5c-48.667 0 -85 -13.5 -109 -40.5
s-36 -63.167 -36 -108.5c0 -24 1.83301 -45.667 5.5 -65s9 -37.166 16 -53.499s15.5 -32.166 25.5 -47.499s21.333 -31.333 34 -48l301 -364c54.667 -71.333 96.667 -139.833 126 -205.5s44 -135.167 44 -208.5c0 -60.667 -9.5 -115.334 -28.5 -164.001
s-46.167 -90 -81.5 -124s-78 -60.167 -128 -78.5s-106.333 -27.5 -169 -27.5c-77.333 0 -141.5 10.333 -192.5 31s-91.667 48 -122 82s-51.666 72.667 -63.999 116s-18.5 87.666 -18.5 132.999z" />
    <glyph glyph-name="T" unicode="T" horiz-adv-x="866" 
d="M304 1504h-275v204h808v-204h-274v-1504h-259v1504z" />
    <glyph glyph-name="U" unicode="U" horiz-adv-x="1094" 
d="M140 1708l261.002 -0.000976562v-1252c0 -53.333 2.66699 -97.666 8 -132.999s13.833 -63.5 25.5 -84.5s26.667 -36 45 -45s40.166 -13.5 65.499 -13.5s47.5 4.5 66.5 13.5s34.667 24 47 45s21.666 49.167 27.999 84.5s9.5 79.666 9.5 132.999v1252h258v-1183
c0 -83.333 -6.66699 -154.666 -20 -213.999s-31 -109 -53 -149s-47.167 -71.667 -75.5 -95s-57.666 -41.166 -87.999 -53.499s-60.5 -20.166 -90.5 -23.499s-57.333 -5 -82 -5s-51.834 1.66699 -81.501 5s-59.5 11.166 -89.5 23.499s-59 30.166 -87 53.499s-53 55 -75 95
s-39.5 89.5 -52.5 148.5s-19.5 130.5 -19.5 214.5v1183z" />
    <glyph glyph-name="V" unicode="V" horiz-adv-x="955" 
d="M19 1708h265l188 -1353h11l189 1353h264l-311 -1708h-296z" />
    <glyph glyph-name="W" unicode="W" horiz-adv-x="1479" 
d="M37 1708h248l115 -1032l13 -241h25l24 271l184 1002h207l176 -1002l20 -271h26l12 241l105 1032h249l-239 -1708h-263l-141 821l-44 357h-20l-43 -357l-148 -821h-260z" />
    <glyph glyph-name="X" unicode="X" horiz-adv-x="939" 
d="M345 860l-312 848h277l159 -546h10l159 546h268l-313 -849l313 -859h-267l-162 549h-17l-169 -549h-258z" />
    <glyph glyph-name="Y" unicode="Y" horiz-adv-x="959" 
d="M349 569l-344 1139h261l209 -817h12l207 817h260l-346 -1139v-569h-259v569z" />
    <glyph glyph-name="Z" unicode="Z" horiz-adv-x="865" 
d="M39 137l506 1367h-430v204h721v-137l-507 -1367h477v-204h-767v137z" />
    <glyph glyph-name="bracketleft" unicode="[" horiz-adv-x="776" 
d="M139 1963h505v-192h-283v-1837h283v-190h-505v2219z" />
    <glyph glyph-name="backslash" unicode="\" horiz-adv-x="552" 
d="M10 1884h219l313 -2210h-219z" />
    <glyph glyph-name="bracketright" unicode="]" horiz-adv-x="776" 
d="M415 -66v1837h-284v192h505v-2219h-505v190h284z" />
    <glyph glyph-name="asciicircum" unicode="^" horiz-adv-x="959" 
d="M358 1725h233l333 -1448h-219l-162 790l-51 335h-25l-54 -335l-159 -790h-219z" />
    <glyph glyph-name="underscore" unicode="_" horiz-adv-x="1381" 
d="M1386 -172v-163h-1391v163h1391z" />
    <glyph glyph-name="grave" unicode="`" horiz-adv-x="687" 
d="M114 1846l169 137l290 -416l-125 -105z" />
    <glyph glyph-name="a" unicode="a" horiz-adv-x="924" 
d="M320 -15c-42.667 0 -80.499 8.50195 -113.499 25.502s-60.833 40.167 -83.5 69.5s-39.834 64.166 -51.501 104.499s-17.5 84.166 -17.5 131.499c0 56.667 7 107 21 151s34.5 83.667 61.5 119s60.5 67.5 100.5 96.5s86.333 56.5 139 82.5
c25.333 12.667 53.833 25.5 85.5 38.5l84.5 33.5v182c0 26.667 -1 51.5 -3 74.5s-6.83301 43 -14.5 60s-19.167 30.333 -34.5 40s-36.333 14.5 -63 14.5c-18 0 -35.5 -3.33301 -52.5 -10s-32 -18 -45 -34s-23.333 -37.333 -31 -64s-11.5 -59.667 -11.5 -99v-60h-193
c-6 26 -10.5 49.833 -13.5 71.5s-4.5 43.167 -4.5 64.5c0 51.333 8.83301 96.666 26.5 135.999s42.334 72.333 74.001 99s69.5 46.834 113.5 60.501s92.333 20.5 145 20.5c68.667 0 125.667 -7.5 171 -22.5s81.5 -37.5 108.5 -67.5s46 -67.667 57 -113
s16.5 -98.333 16.5 -159v-1031h-188l-18 118c-27.333 -39.333 -63.833 -71.333 -109.5 -96s-97.834 -37 -156.501 -37zM432.001 180.002c21.333 0 42.167 5.49902 62.5 16.499s37.5 24.5 51.5 40.5v431c-13.333 -5.33301 -28.333 -11.666 -45 -18.999s-34.667 -17 -54 -29
c-18 -11.333 -35.667 -25 -53 -41s-32.833 -35 -46.5 -57s-24.667 -46.833 -33 -74.5s-12.5 -58.5 -12.5 -92.5c0 -52.667 10.333 -95 31 -127s53.667 -48 99 -48z" />
    <glyph glyph-name="b" unicode="b" horiz-adv-x="989" 
d="M130 1819h253.002v-367l-8 -182l1 -1c11.333 16 24.5 31.333 39.5 46s32 27.834 51 39.501s40 20.834 63 27.501s48.167 10 75.5 10c14 0 30.833 -1.33301 50.5 -4s40 -9.33398 61 -20.001s42 -26.5 63 -47.5s39.667 -49.833 56 -86.5s29.666 -82.334 39.999 -137.001
s15.5 -121 15.5 -199v-417c0 -78 -5.16699 -144.333 -15.5 -199s-23.833 -100.5 -40.5 -137.5s-35.667 -66.167 -57 -87.5s-43 -37.333 -65 -48s-43.333 -17.5 -64 -20.5s-38.667 -4.5 -54 -4.5c-32 0 -60.833 4 -86.5 12s-48.334 18.833 -68.001 32.5s-37 29.167 -52 46.5
s-28.167 35 -39.5 53l-21 -128h-198v1819zM383.002 279c5.33301 -12.667 11.834 -25.001 19.501 -37.001s16.5 -22.5 26.5 -31.5s21.667 -16.333 35 -22s28.333 -8.5 45 -8.5c18.667 0 35.667 3.5 51 10.5s28.666 19.667 39.999 38s20.166 43.833 26.499 76.5
s9.5 74.667 9.5 126v527c0 51.333 -3.16699 93.166 -9.5 125.499s-15 57.833 -26 76.5s-24.167 31.334 -39.5 38.001s-32.333 10 -51 10c-31.333 0 -57.166 -9.16699 -77.499 -27.5s-36.833 -40.166 -49.5 -65.499v-836z" />
    <glyph glyph-name="c" unicode="c" horiz-adv-x="871" 
d="M451 -15c-116 0 -204.503 47.6689 -265.503 143.002s-91.5 240.666 -91.5 435.999v260c0 87.333 6.33301 162.166 19 224.499s29.5 114.666 50.5 156.999s45 75.833 72 100.5s54.833 43.5 83.5 56.5s57 21.333 85 25s53.667 5.5 77 5.5
c46.667 0 89.334 -6.16699 128.001 -18.5s72 -31 100 -56s49.667 -56.5 65 -94.5s23 -82.667 23 -134c0 -32 -1.5 -59.5 -4.5 -82.5s-7.16699 -45.167 -12.5 -66.5h-202v46c0 69.333 -8.16699 123.5 -24.5 162.5s-43.166 58.5 -80.499 58.5
c-20.667 0 -38.667 -4.83301 -54 -14.5s-28.166 -26.167 -38.499 -49.5s-18 -54.666 -23 -93.999s-7.5 -88.666 -7.5 -147.999v-391c0 -60 2 -111 6 -153s11 -76.167 21 -102.5s23.333 -45.5 40 -57.5s37.334 -18 62.001 -18c12.667 0 25 3.16699 37 9.5
s22.5 16.833 31.5 31.5s16.333 34.167 22 58.5s8.5 54.5 8.5 90.5v43h218v-53c0 -130.667 -28.833 -225.834 -86.5 -285.501s-143.834 -89.5 -258.501 -89.5z" />
    <glyph glyph-name="d" unicode="d" horiz-adv-x="988" 
d="M394 -16c-15.333 0 -33.3301 1.50098 -53.9971 4.50098s-42 9.83301 -64 20.5s-43.667 26.667 -65 48s-40.333 50.5 -57 87.5s-30.167 82.833 -40.5 137.5s-15.5 121 -15.5 199v437c0 77.333 5.5 142.666 16.5 195.999s25.5 97.5 43.5 132.5s38.167 62.333 60.5 82
s44.666 34.167 66.999 43.5s43.666 15 63.999 17s37.166 3 50.499 3c24.667 0 48 -3.33301 70 -10s42 -15.5 60 -26.5s34 -23.333 48 -37s25.667 -27.5 35 -41.5l1 1l-8 174v367h252v-1819h-197l-22 128c-11.333 -18 -24.333 -35.667 -39 -53s-32 -32.833 -52 -46.5
s-42.667 -24.5 -68 -32.5s-54 -12 -86 -12zM480.003 180.001c16.667 0 31.498 2.83105 44.498 8.49805s24.667 13 35 22s19.333 19.5 27 31.5s14.167 24.333 19.5 37v828c-12.667 28 -29.5 51.833 -50.5 71.5s-46.5 29.5 -76.5 29.5c-18.667 0 -35.667 -3.33301 -51 -10
s-28.666 -19.167 -39.999 -37.5s-20.166 -43.666 -26.499 -75.999s-9.5 -74.166 -9.5 -125.499v-528c0 -51.333 3.16699 -93.333 9.5 -126s15.166 -58.167 26.499 -76.5s24.833 -31 40.5 -38s32.834 -10.5 51.501 -10.5z" />
    <glyph glyph-name="e" unicode="e" horiz-adv-x="922" 
d="M462 -15c-59.333 0 -111.832 11.0039 -157.499 33.0039s-84.167 56.333 -115.5 103s-55 106.5 -71 179.5s-24 160.833 -24 263.5v260c0 87.333 6.5 162.166 19.5 224.499s30 114.666 51 156.999s45.333 75.833 73 100.5s56.167 43.5 85.5 56.5s58.5 21.333 87.5 25
s55.833 5.5 80.5 5.5c45.333 0 89 -6.83301 131 -20.5s79 -37 111 -70s57.5 -77.167 76.5 -132.5s28.5 -124.333 28.5 -207c0 -28 -0.833008 -56.333 -2.5 -85s-3.83398 -56.834 -6.50098 -84.501s-6.16699 -54.5 -10.5 -80.5s-8.83301 -50 -13.5 -72h-457v-140
c0 -60 2.33301 -110.5 7 -151.5s12.5 -74 23.5 -99s26 -43 45 -54s42.833 -16.5 71.5 -16.5c15.333 0 30.333 3.16699 45 9.5s27.5 16.833 38.5 31.5s19.833 34.167 26.5 58.5s10 54.5 10 90.5v43h211v-53c0 -130.667 -31.167 -225.834 -93.5 -285.501
s-152.5 -89.5 -270.5 -89.5zM602.001 811.004c0.666992 7.33301 1.33398 17.167 2.00098 29.5s1.16699 25.166 1.5 38.499s0.5 26.5 0.5 39.5v33.5c0 90.667 -10.667 156 -32 196s-53 60 -95 60c-22 0 -41.333 -5.16699 -58 -15.5s-30.334 -27.666 -41.001 -51.999
s-18.667 -56.5 -24 -96.5s-8 -89.667 -8 -149v-84h254z" />
    <glyph glyph-name="f" unicode="f" horiz-adv-x="616" 
d="M164 1197l-118.999 -0.000976562v180h119v99c0 74.667 7.66699 135.5 23 182.5s36.5 83.667 63.5 110s58.667 44.166 95 53.499s75.5 14 117.5 14c12 0 25.5 -0.666992 40.5 -2s30 -3.5 45 -6.5s29.667 -6.5 44 -10.5s27.166 -9 38.499 -15v-178
c-28 7.33301 -59.333 11 -94 11c-16.667 0 -32.5 -2.66699 -47.5 -8s-28.167 -14.166 -39.5 -26.499s-20.333 -28.666 -27 -48.999s-10 -45.5 -10 -75.5v-99h191v-180h-191v-1197h-249v1197z" />
    <glyph glyph-name="g" unicode="g" horiz-adv-x="993" 
d="M336 -94c0 -59.333 11.001 -101.332 33.001 -125.999s56 -37 102 -37c18.667 0 36.667 2.83301 54 8.5s32.5 16 45.5 31s23.5 35.833 31.5 62.5s12 61 12 103v217c-22.667 -29.333 -51.834 -54.5 -87.501 -75.5s-79.834 -31.5 -132.501 -31.5
c-15.333 0 -33.333 1.5 -54 4.5s-42 9.83301 -64 20.5s-43.667 26.834 -65 48.501s-40.333 50.834 -57 87.501s-30.167 82.5 -40.5 137.5s-15.5 121.5 -15.5 199.5v362c0 74.667 5.16699 138.167 15.5 190.5s23.833 96.166 40.5 131.499s35.834 63 57.501 83
s43.667 35.167 66 45.5s44.166 16.833 65.499 19.5s40.333 4 57 4c33.333 0 62.833 -4.33301 88.5 -13s48 -20.167 67 -34.5s35.167 -30.5 48.5 -48.5s24.666 -36 33.999 -54l23 136h197v-1322c0 -76.667 -7.33301 -145.834 -22 -207.501s-37.667 -114.334 -69 -158.001
s-71.166 -77.167 -119.499 -100.5s-106.166 -35 -173.499 -35c-45.333 0 -88 4 -128 12s-75 22.167 -105 42.5s-53.667 48 -71 83s-26 79.5 -26 133.5c0 9.33301 1 21 3 35s5.33301 29 10 45h179zM480.001 254.001c16.667 0 31.498 2.83203 44.498 8.49902
s24.667 13.167 35 22.5s19.333 20 27 32s14.167 24.333 19.5 37v753c-12.667 28 -29.5 51.833 -50.5 71.5s-46.5 29.5 -76.5 29.5c-18.667 0 -35.667 -3.33301 -51 -10s-28.666 -19.167 -39.999 -37.5s-20.166 -43.666 -26.499 -75.999s-9.5 -74.166 -9.5 -125.499v-453
c0 -51.333 3.16699 -93.333 9.5 -126s15.166 -58.334 26.499 -77.001s24.833 -31.5 40.5 -38.5s32.834 -10.5 51.501 -10.5z" />
    <glyph glyph-name="h" unicode="h" horiz-adv-x="1022" 
d="M130 1819h252.998v-324l-13 -236c18.667 26 38.834 47.5 60.501 64.5s44 30.667 67 41s46.333 17.666 70 21.999s47.167 6.5 70.5 6.5c80.667 0 142.834 -28.167 186.501 -84.5s65.5 -140.833 65.5 -253.5v-1055h-253v1046c0 60.667 -9.33301 102.834 -28 126.501
s-46 35.5 -82 35.5c-25.333 0 -50.833 -8.5 -76.5 -25.5s-48.167 -40.5 -67.5 -70.5v-1112h-253v1819z" />
    <glyph glyph-name="i" unicode="i" horiz-adv-x="521" 
d="M265 1574c-46.667 0 -83.5 14.001 -110.5 42.001s-40.5 69 -40.5 123c0 30 3.5 55.167 10.5 75.5s17 36.666 30 48.999s28.833 21.333 47.5 27s40 8.5 64 8.5c50 0 88 -12.667 114 -38s39 -66 39 -122c0 -52 -13.167 -92.5 -39.5 -121.5s-64.5 -43.5 -114.5 -43.5z
M134 1377h253v-1377h-253v1377z" />
    <glyph glyph-name="j" unicode="j" horiz-adv-x="521" 
d="M265 1574c-46.667 0 -83.5 14.001 -110.5 42.001s-40.5 69 -40.5 123c0 30 3.5 55.167 10.5 75.5s17 36.666 30 48.999s28.833 21.333 47.5 27s40 8.5 64 8.5c50 0 88 -12.667 114 -38s39 -66 39 -122c0 -52 -13.167 -92.5 -39.5 -121.5s-64.5 -43.5 -114.5 -43.5z
M134 1377l253.002 0.00195312v-1461c0 -75.333 -7.5 -136.333 -22.5 -183s-35.167 -83.167 -60.5 -109.5s-54.333 -44.166 -87 -53.499s-66.667 -14 -102 -14c-20 0 -40.333 1.66699 -61 5s-41 9.66602 -61 18.999v147c5.33301 -0.666992 10.666 -1.16699 15.999 -1.5
s10.666 -0.5 15.999 -0.5c14.667 0 28.667 2.66699 42 8s25 14.166 35 26.499s17.833 28.666 23.5 48.999s8.5 45.5 8.5 75.5v1493z" />
    <glyph glyph-name="k" unicode="k" horiz-adv-x="942" 
d="M134 1819h253v-1047h8l276 605h243l-306 -630l335 -747h-258l-290 683h-8v-683h-253v1819z" />
    <glyph glyph-name="l" unicode="l" horiz-adv-x="521" 
d="M134 1819h253v-1819h-253v1819z" />
    <glyph glyph-name="m" unicode="m" horiz-adv-x="1520" 
d="M130 1377l196.001 -0.00390625l22 -147v-1c20 31.333 41.333 57.5 64 78.5s46.167 37.833 70.5 50.5s49.333 21.667 75 27s51.167 8 76.5 8c54 0 99.667 -13 137 -39s65.666 -65 84.999 -117c20 30 41.167 55 63.5 75s45.5 36 69.5 48s48.333 20.5 73 25.5
s49.667 7.5 75 7.5c80 0 141.833 -28.167 185.5 -84.5s65.5 -140.833 65.5 -253.5v-1055h-253v1046c0 30 -2.33301 55.333 -7 76s-11.667 37.334 -21 50.001s-21.333 21.834 -36 27.501s-32.334 8.5 -53.001 8.5c-23.333 0 -46.666 -8.5 -69.999 -25.5
s-44.666 -40.5 -63.999 -70.5c0.666992 -6 1 -12 1 -18v-18v-1076h-253v1046c0 30 -2.33301 55.333 -7 76s-11.667 37.334 -21 50.001s-21.333 21.834 -36 27.501s-32.334 8.5 -53.001 8.5c-22.667 0 -45.667 -8.33301 -69 -25s-44.333 -39.667 -63 -69v-1114h-253v1377z
" />
    <glyph glyph-name="n" unicode="n" horiz-adv-x="1020" 
d="M130 1377l194.998 -0.000976562l23 -147v-1c20 31.333 41.5 57.5 64.5 78.5s46.833 37.833 71.5 50.5s49.834 21.667 75.501 27s51.167 8 76.5 8c80.667 0 142.834 -28.167 186.501 -84.5s65.5 -140.833 65.5 -253.5v-1055h-253v1046
c0 60.667 -9.33301 102.834 -28 126.501s-46 35.5 -82 35.5c-25.333 0 -50.5 -8.33301 -75.5 -25s-47.167 -39.667 -66.5 -69v-1114h-253v1377z" />
    <glyph glyph-name="o" unicode="o" horiz-adv-x="950" 
d="M477 -15c-29.333 0 -59.167 2.33203 -89.5 6.99902s-59.666 14.334 -87.999 29.001s-55 35.667 -80 63s-46.833 63.333 -65.5 108s-33.334 99.667 -44.001 165s-16 143.333 -16 234v216c0 89.333 5.5 165.833 16.5 229.5s26 117.167 45 160.5s41.167 77.833 66.5 103.5
s52.166 45.334 80.499 59.001s57.5 22.667 87.5 27s59.333 6.5 88 6.5c27.333 0 55.666 -2 84.999 -6s58 -12.5 86 -25.5s54.5 -32.333 79.5 -58s47 -60.167 66 -103.5s34 -97.166 45 -161.499s16.5 -141.5 16.5 -231.5v-216c0 -89.333 -5.66699 -166.333 -17 -231
s-26.666 -119.334 -45.999 -164.001s-41.666 -80.834 -66.999 -108.501s-52 -49.167 -80 -64.5s-56.5 -25.5 -85.5 -30.5s-56.833 -7.5 -83.5 -7.5zM478.999 179.999c22.667 0 41.834 5.83301 57.501 17.5s28.334 30.834 38.001 57.501s16.667 61.834 21 105.501
s6.5 97.834 6.5 162.501v339c0 64.667 -2.16699 119 -6.5 163s-11.333 79.5 -21 106.5s-22.334 46.5 -38.001 58.5s-34.834 18 -57.501 18c-24 0 -44.167 -6 -60.5 -18s-29.833 -31.5 -40.5 -58.5s-18.334 -62.5 -23.001 -106.5s-7 -98.333 -7 -163v-339
c0 -64.667 2.33301 -118.834 7 -162.501s12.334 -78.834 23.001 -105.501s24.167 -45.834 40.5 -57.501s36.5 -17.5 60.5 -17.5z" />
    <glyph glyph-name="p" unicode="p" horiz-adv-x="990" 
d="M383 -78l0.00195312 -366.997h-253v1822h198l23 -145c11.333 18.667 24.833 37.667 40.5 57s34 36.5 55 51.5s44.667 27.333 71 37s55.833 14.5 88.5 14.5c14 0 30.833 -1.33301 50.5 -4s40 -9.33398 61 -20.001s42 -26.5 63 -47.5s39.667 -49.833 56 -86.5
s29.666 -82.334 39.999 -137.001s15.5 -121 15.5 -199v-417c0 -78 -5.16699 -144.333 -15.5 -199s-23.833 -100.334 -40.5 -137.001s-35.667 -65.667 -57 -87s-43 -37.333 -65 -48s-43.333 -17.5 -64 -20.5s-38.667 -4.5 -54 -4.5c-53.333 0 -97.833 10.333 -133.5 31
s-64.834 45.667 -87.501 75zM383.002 281.003c5.33301 -13.333 11.835 -26 19.502 -38s16.667 -22.667 27 -32s22 -16.833 35 -22.5s28.167 -8.5 45.5 -8.5c18.667 0 35.667 3.5 51 10.5s28.666 19.667 39.999 38s20.166 43.833 26.499 76.5s9.5 74.667 9.5 126v527
c0 51.333 -3.16699 93.166 -9.5 125.499s-15 57.833 -26 76.5s-24.167 31.334 -39.5 38.001s-32.333 10 -51 10c-32 0 -58.167 -9.5 -78.5 -28.5s-36.833 -41.167 -49.5 -66.5v-832z" />
    <glyph glyph-name="q" unicode="q" horiz-adv-x="988" 
d="M394 -15c-15.333 0 -33.333 1.49707 -54 4.49707s-42 9.83301 -64 20.5s-43.667 26.667 -65 48s-40.333 50.333 -57 87s-30.167 82.334 -40.5 137.001s-15.5 121 -15.5 199v417c0 78 5.16699 144.333 15.5 199s23.666 100.334 39.999 137.001s35 65.5 56 86.5
s42 36.833 63 47.5s41.333 17.334 61 20.001s36.5 4 50.5 4c32.667 0 62 -4.66699 88 -14s49.333 -21.5 70 -36.5s38.834 -32 54.501 -51s29.167 -37.833 40.5 -56.5l24 143h197v-1823h-252v367l7 168c-22.667 -28.667 -51.667 -53.167 -87 -73.5s-79.333 -30.5 -132 -30.5z
M480 179.997c16.667 0 31.498 2.83301 44.498 8.5s24.667 13 35 22s19.333 19.5 27 31.5s14.167 24.333 19.5 37v828c-12.667 28 -29.5 51.833 -50.5 71.5s-46.5 29.5 -76.5 29.5c-18.667 0 -35.667 -3.5 -51 -10.5s-28.666 -19.667 -39.999 -38
s-20.166 -43.833 -26.499 -76.5s-9.5 -74.667 -9.5 -126v-526c0 -51.333 3.16699 -93.333 9.5 -126s15.166 -58.167 26.499 -76.5s24.833 -31 40.5 -38s32.834 -10.5 51.501 -10.5z" />
    <glyph glyph-name="r" unicode="r" horiz-adv-x="788" 
d="M130 1377h184.999l22 -140c28 52 60.167 91 96.5 117s73.5 39 111.5 39c72.667 0 126.334 -22.333 161.001 -67s52 -111.667 52 -201c0 -11.333 -0.833008 -24.833 -2.5 -40.5s-4 -32 -7 -49s-6.66699 -34 -11 -51s-8.83301 -32.5 -13.5 -46.5h-176v128
c0 28 -1.83301 51 -5.5 69s-8.5 32.5 -14.5 43.5s-13 18.667 -21 23s-16.667 6.5 -26 6.5c-20 0 -38.5 -6.5 -55.5 -19.5s-31.167 -31.167 -42.5 -54.5v-1134h-253v1377z" />
    <glyph glyph-name="s" unicode="s" horiz-adv-x="829" 
d="M76 288c0 30 2.83496 59.001 8.50195 87.001s11.167 50.333 16.5 67h178c0 -50 2.5 -91.833 7.5 -125.5s13.167 -60.5 24.5 -80.5s26.5 -34.333 45.5 -43s42.167 -13 69.5 -13c38 0 65.667 10.667 83 32s26 46 26 74c0 14.667 -2 28.667 -6 42s-9.66699 26.833 -17 40.5
s-16.333 27.5 -27 41.5l-36 46l-185 218c-24 30 -47.167 60.5 -69.5 91.5s-42 63 -59 96s-30.667 67.5 -41 103.5s-15.5 74 -15.5 114c0 53.333 9.16699 99.666 27.5 138.999s43 72 74 98s66.833 45.333 107.5 58s83.667 19 129 19c50 0 95 -6 135 -18s74.333 -30 103 -54
s50.667 -53.833 66 -89.5s23 -77.167 23 -124.5c0 -32 -2.83301 -63 -8.5 -93s-11.167 -55.667 -16.5 -77h-175c-0.666992 45.333 -2.66699 85 -6 119s-9.5 62.167 -18.5 84.5s-21.333 39.166 -37 50.499s-36.167 17 -61.5 17c-22 0 -40.333 -3.5 -55 -10.5
s-26.5 -16.167 -35.5 -27.5s-15.333 -24 -19 -38s-5.5 -28.333 -5.5 -43c0 -32 7.66699 -61.667 23 -89s35.666 -57 60.999 -89l202 -237l51 -65.5c19.333 -25.667 37.666 -54 54.999 -85s32 -64.833 44 -101.5s18 -75 18 -115c0 -48.667 -7.66699 -92.834 -23 -132.501
s-38 -73.5 -68 -101.5s-66.833 -49.667 -110.5 -65s-93.5 -23 -149.5 -23c-46 0 -89.333 5.16699 -130 15.5s-76 27.333 -106 51s-53.667 54.834 -71 93.501s-26 86.334 -26 143.001z" />
    <glyph glyph-name="t" unicode="t" horiz-adv-x="675" 
d="M159 1197l-107 -0.00195312v180h129l51 357h180v-357h220v-180h-220v-876c0 -30 2.83301 -54.167 8.5 -72.5s13.5 -32.666 23.5 -42.999s21.667 -17.166 35 -20.499s27.333 -5 42 -5c24.667 0 46.5 3 65.5 9s37.167 14.333 54.5 25v-140
c-14.667 -18 -30.5 -32.667 -47.5 -44s-34.5 -20.5 -52.5 -27.5s-36.333 -11.833 -55 -14.5s-37 -4 -55 -4c-35.333 0 -69.333 4.66699 -102 14s-61.667 27.166 -87 53.499s-45.5 62.833 -60.5 109.5s-22.5 107.334 -22.5 182.001v854z" />
    <glyph glyph-name="u" unicode="u" horiz-adv-x="1021" 
d="M132 1377h252.998v-1035c0 -60.667 9.33301 -102.834 28 -126.501s46 -35.5 82 -35.5c25.333 0 50 7 74 21s45.667 34 65 60v1116h253v-1377h-193l-25 147h-1c-20 -31.333 -41.167 -57.5 -63.5 -78.5s-45.666 -37.667 -69.999 -50s-49.166 -21.166 -74.499 -26.499
s-50.666 -8 -75.999 -8c-80.667 0 -142.834 28 -186.501 84s-65.5 140.667 -65.5 254v1055z" />
    <glyph glyph-name="v" unicode="v" horiz-adv-x="874" 
d="M16 1377h252l133 -732l33 -293h8l38 293l132 732h244l-314 -1377h-216z" />
    <glyph glyph-name="w" unicode="w" horiz-adv-x="1338" 
d="M35 1377h241l99 -746l24 -279h8l30 279l132 746h213l136 -746l37 -279h8l17 279l87 746h236l-223 -1377h-233l-143 766l-32 211h-8l-29 -211l-130 -766h-243z" />
    <glyph glyph-name="x" unicode="x" horiz-adv-x="902" 
d="M311 699l-272 678h259l147 -451h2l156 451h242l-261 -654l293 -723h-259l-170 475h-8l-172 -475h-243z" />
    <glyph glyph-name="y" unicode="y" horiz-adv-x="898" 
d="M78 -265c38 -5.33301 73 -4.16699 105 3.5s59.5 22.167 82.5 43.5s41.333 49.5 55 84.5s21.5 76.833 23.5 125.5l-326 1385h257l145 -762l42 -263h8l29 263l117 762h249l-290 -1428c-12.667 -66 -28.834 -123.667 -48.501 -173s-44 -90.333 -73 -123
s-63.5 -57.167 -103.5 -73.5s-86.667 -24.5 -140 -24.5c-43.333 0 -87.666 8.33301 -132.999 25l1 155v0z" />
    <glyph glyph-name="z" unicode="z" horiz-adv-x="703" 
d="M22 126l386 1059h-353v192h624v-126l-387 -1059h389v-192h-659v126z" />
    <glyph glyph-name="braceleft" unicode="{" horiz-adv-x="896" 
d="M284 551c0 40 -3.33496 73.3398 -10.002 100.007s-16.667 48.167 -30 64.5s-29.666 28.166 -48.999 35.499s-41.666 11.666 -66.999 12.999l-52 3v179l51 3c25.333 1.33301 47.666 5.66602 66.999 12.999s35.666 19.166 48.999 35.499s23.333 37.666 30 63.999
s10 59.5 10 99.5v419c0 68.667 8.83301 127.334 26.5 176.001s41.667 88.5 72 119.5s65.5 53.5 105.5 67.5s82.667 21 128 21c21.333 0 45.166 -2.33301 71.499 -7s52.5 -11 78.5 -19v-154h-38c-41.333 0 -75.833 -2.33301 -103.5 -7s-50.167 -12.334 -67.5 -23.001
s-29.666 -24.834 -36.999 -42.501s-11 -39.5 -11 -65.5v-401c0 -49.333 -2.5 -93.833 -7.5 -133.5s-13.667 -75.167 -26 -106.5s-29 -58.333 -50 -81s-47.167 -41 -78.5 -55v-26c30.667 -14 56.334 -32.333 77.001 -55s37.334 -49.5 50.001 -80.5s21.667 -66.5 27 -106.5
s8 -84.333 8 -133v-405c0 -26 3.66699 -47.833 11 -65.5s19.666 -32 36.999 -43s39.833 -18.833 67.5 -23.5s62.167 -7 103.5 -7h38v-153c-26 -8.66699 -52.167 -15.334 -78.5 -20.001s-50.166 -7 -71.499 -7c-45.333 0 -88 7 -128 21s-75 36.5 -105 67.5
s-53.833 70.833 -71.5 119.5s-26.5 107.667 -26.5 177v422z" />
    <glyph glyph-name="bar" unicode="|" horiz-adv-x="714" 
d="M247 1884h220v-2210h-220v2210z" />
    <glyph glyph-name="braceright" unicode="}" horiz-adv-x="896" 
d="M169 -76c40.667 0 75.001 2.32617 103.001 6.99316s50.667 12.5 68 23.5s29.666 25.333 36.999 43s11 39.5 11 65.5v405c0 48.667 2.66699 93 8 133s14.166 75.5 26.499 106.5s28.833 57.833 49.5 80.5s46.334 41 77.001 55v26c-31.333 14 -57.333 32.333 -78 55
s-37.167 49.667 -49.5 81s-21 66.833 -26 106.5s-7.5 84.167 -7.5 133.5v401c0 26 -3.66699 47.833 -11 65.5s-19.666 31.834 -36.999 42.501s-40 18.334 -68 23.001s-62.333 7 -103 7h-38v154c26 8 52 14.333 78 19s50 7 72 7c44.667 0 87.167 -7 127.5 -21
s75.666 -36.5 105.999 -67.5s54.333 -70.833 72 -119.5s26.5 -107.334 26.5 -176.001v-419c0 -40 3.33301 -73.167 10 -99.5s16.667 -47.666 30 -63.999s29.666 -28.166 48.999 -35.499s41.666 -11.666 66.999 -12.999l51 -3v-179l-52 -3
c-25.333 -1.33301 -47.666 -5.66602 -66.999 -12.999s-35.666 -19.166 -48.999 -35.499s-23.333 -37.833 -30 -64.5s-10 -60 -10 -100v-422c0 -69.333 -8.83301 -128.333 -26.5 -177s-41.5 -88.5 -71.5 -119.5s-65.167 -53.5 -105.5 -67.5s-82.833 -21 -127.5 -21
c-22 0 -46 2.33301 -72 7s-52 11.334 -78 20.001v153h38z" />
    <glyph glyph-name="asciitilde" unicode="~" horiz-adv-x="1304" 
d="M130 450c-6.66699 86.667 -2.99707 158.832 11.0029 216.499s35 103.834 63 138.501s61.5 59.167 100.5 73.5s80.167 21.5 123.5 21.5c44 0 82.667 -7.66699 116 -23s63 -34.666 89 -57.999s49.167 -48.333 69.5 -75l58 -75
c18.333 -23.333 36.666 -42.666 54.999 -57.999s38.5 -23 60.5 -23c46 0 77.5 24 94.5 72s17.5 117.667 1.5 209h192c14.667 -78 17.167 -146.5 7.5 -205.5s-27.667 -108 -54 -147s-58.666 -68.333 -96.999 -88s-78.5 -29.5 -120.5 -29.5c-45.333 0 -85.333 7.66699 -120 23
s-65.834 34.333 -93.501 57s-52.167 47.5 -73.5 74.5l-61.5 74.5c-19.667 22.667 -38.834 41.667 -57.501 57s-38.667 23 -60 23c-25.333 0 -46.833 -6.33301 -64.5 -19s-31.334 -30.334 -41.001 -53.001s-15.667 -49.834 -18 -81.501s-0.5 -66.5 5.5 -104.5h-186v0z" />
    <glyph glyph-name="DEL" 
 />
    <glyph glyph-name="nonbreakingspace" unicode="&#xa0;" horiz-adv-x="438" 
 />
    <glyph glyph-name="exclamdown" unicode="&#xa1;" horiz-adv-x="690" 
d="M208 -423.89h273l-31 1257.92h-207zM191 1212.01c0 -69.9951 14 -120.159 42 -150.491c28 -30.3311 66 -45.4971 114 -45.4971c50 0 88.667 15.999 116 47.9971s41 81.3281 41 147.991c0 60.6631 -13.833 107.66 -41.5 140.991s-66.5 49.9971 -116.5 49.9971
c-47.333 0 -85 -16.166 -113 -48.4971s-42 -79.8281 -42 -142.491z" />
    <glyph glyph-name="cent" unicode="&#xa2;" horiz-adv-x="899" 
d="M395 -8c-46 8.66699 -86.501 26.1631 -121.501 52.4961s-64.5 62.833 -88.5 109.5s-42 103.834 -54 171.501s-18 147.167 -18 238.5v260c0 68 3.83301 128.167 11.5 180.5s18.334 98.333 32.001 138s29.5 73.334 47.5 101.001s37.5 50.834 58.5 69.501
s42.667 33.334 65 44.001s44.5 18.667 66.5 24v242h186v-237c35.333 -6 67.5 -16.667 96.5 -32s53.667 -35.333 74 -60s36 -53.834 47 -87.501s16.5 -72.5 16.5 -116.5c0 -32 -1.5 -59.5 -4.5 -82.5s-7.16699 -45.167 -12.5 -66.5h-192v46c0 69.333 -9.5 123.5 -28.5 162.5
s-47.167 58.5 -84.5 58.5c-20.667 0 -38.834 -5.16699 -54.501 -15.5s-28.667 -27.666 -39 -51.999s-18.166 -56.5 -23.499 -96.5s-8 -89.667 -8 -149v-394c0 -60 2.16699 -110.5 6.5 -151.5s11.666 -74 21.999 -99s23.833 -43 40.5 -54s37.334 -16.5 62.001 -16.5
c12.667 0 25.334 3.16699 38.001 9.5s24.167 16.833 34.5 31.5s18.666 34.167 24.999 58.5s9.5 54.5 9.5 90.5v53h205v-63c0 -108 -18.833 -191.333 -56.5 -250s-95.167 -96.667 -172.5 -114v-254h-186v250v0z" />
    <glyph glyph-name="sterling" unicode="&#xa3;" horiz-adv-x="1006" 
d="M98 152c28 12.667 48.6699 33 62.0029 61s22.666 61.5 27.999 100.5s7.83301 82.167 7.5 129.5s-0.5 96.666 -0.5 147.999v110h-129v179h129v344c0 82.667 7.5 155.167 22.5 217.5s38.167 114.333 69.5 156s71.333 73 120 94s106.667 31.5 174 31.5
c63.333 0 117.166 -9.83301 161.499 -29.5s80.5 -45.834 108.5 -78.501s48.5 -70.167 61.5 -112.5s19.5 -86.166 19.5 -131.499c0 -32 -2.33301 -66.333 -7 -103s-11 -73.667 -19 -111h-201v71c0 54 -3.16699 99.5 -9.5 136.5s-15.166 67 -26.499 90s-25 39.667 -41 50
s-34 15.5 -54 15.5c-20.667 0 -38.834 -4.66699 -54.501 -14s-28.667 -25.166 -39 -47.499s-18 -52.5 -23 -90.5s-7.5 -86 -7.5 -144v-344h279v-179h-279v-138c0 -80.667 -5.83301 -150.167 -17.5 -208.5s-31.834 -108.5 -60.501 -150.5h536v-204h-810v152z" />
    <glyph glyph-name="currency" unicode="&#xa4;" horiz-adv-x="1287" 
d="M116 513l180.999 161.001c-12 28.667 -21 58.5 -27 89.5s-9 62.5 -9 94.5c0 71.333 12.667 137.333 38 198l-183 164l138 155l175 -162c26.667 16.667 56.5 29.5 89.5 38.5s69.5 13.5 109.5 13.5c44 0 84.167 -5.33301 120.5 -16s69.166 -25.667 98.499 -45l185 171
l139 -155l-197 -175c24 -56 36 -118.333 36 -187c0 -59.333 -11.667 -116.333 -35 -171l196 -174l-139 -155l-184 170c-29.333 -20 -62.166 -35.667 -98.499 -47s-76.833 -17 -121.5 -17c-40 0 -76.667 4.66699 -110 14s-63.666 22.666 -90.999 39.999l-173 -160z
M627.999 691.001c27.333 0 51.3359 4.83203 72.0029 14.499s37.834 22.334 51.501 38.001s23.834 33.167 30.501 52.5s10 39 10 59c0 24.667 -3.33301 48.167 -10 70.5s-16.834 41.833 -30.501 58.5s-30.834 30 -51.501 40s-44.667 15 -72 15
c-24.667 0 -45.834 -5 -63.501 -15s-32.334 -23.5 -44.001 -40.5s-20.334 -36.667 -26.001 -59s-8.5 -45.5 -8.5 -69.5c0 -20.667 2.83301 -40.834 8.5 -60.501s14.5 -37.167 26.5 -52.5s26.833 -27.666 44.5 -36.999s38.5 -14 62.5 -14z" />
    <glyph glyph-name="yen" unicode="&#xa5;" horiz-adv-x="1006" 
d="M137 396h236v151h-236v180h236l-335 981h261l198 -716h12l198 716h261l-337 -981h235v-180h-235v-151h235v-179h-235v-217h-258v217h-236v179z" />
    <glyph glyph-name="brokenbar" unicode="&#xa6;" horiz-adv-x="714" 
d="M247 1884h220v-944h-220v944zM247 683h220v-1009h-220v1009z" />
    <glyph glyph-name="section" unicode="&#xa7;" horiz-adv-x="1062" 
d="M166 -45c0 37.333 2.16992 71.4941 6.50293 102.494s11.166 65.167 20.499 102.5h180v-109c0 -40.667 3.83301 -75.667 11.5 -105s18.167 -53.666 31.5 -72.999s28.833 -33.666 46.5 -42.999s36.5 -14 56.5 -14c22.667 0 42.5 4.16699 59.5 12.5
s31.167 19.666 42.5 33.999s20 31.166 26 50.499s9 40 9 62c0 20.667 -3 40.167 -9 58.5s-15.5 37.5 -28.5 57.5s-29.833 41.833 -50.5 65.5s-45.667 50.5 -75 80.5l-157 160c-32 32.667 -60.5 64 -85.5 94s-46 60.333 -63 91s-29.833 62.834 -38.5 96.501
s-13 71.167 -13 112.5c0 73.333 16.5 138 49.5 194s78.167 101 135.5 135c-26.667 30 -49.834 59.333 -69.501 88s-35.834 57.667 -48.501 87s-22 59.333 -28 90s-9 63 -9 97c0 50.667 8.5 97 25.5 139s41.833 78.333 74.5 109s72.167 54.5 118.5 71.5
s99.166 25.5 158.499 25.5c63.333 0 117.5 -9.66699 162.5 -29s81.667 -44.5 110 -75.5s49 -65.667 62 -104s19.5 -76.833 19.5 -115.5c0 -37.333 -2.16699 -71.666 -6.5 -102.999s-11.166 -65.666 -20.499 -102.999h-180v109c0 40.667 -3.83301 75.834 -11.5 105.501
s-18.334 54.167 -32.001 73.5s-29.334 33.666 -47.001 42.999s-36.5 14 -56.5 14c-22.667 0 -42.5 -4.16699 -59.5 -12.5s-31.333 -19.666 -43 -33.999s-20.334 -31.333 -26.001 -51s-8.5 -40.5 -8.5 -62.5c0 -20 3 -39.333 9 -58s15.5 -38 28.5 -58
s29.833 -41.667 50.5 -65s46 -50 76 -80l156 -161c32 -32.667 60.5 -63.834 85.5 -93.501s46 -59.834 63 -90.501s29.833 -63 38.5 -97s13 -71.667 13 -113c0 -73.333 -16.667 -138.166 -50 -194.499s-78.333 -101.5 -135 -135.5c26.667 -30 49.834 -59.333 69.501 -88
s35.834 -57.5 48.501 -86.5s22.167 -58.833 28.5 -89.5s9.5 -63 9.5 -97c0 -50 -8.66699 -96.167 -26 -138.5s-42.166 -78.666 -74.499 -108.999s-72 -54 -119 -71s-99.833 -25.5 -158.5 -25.5c-63.333 0 -117.333 9.66699 -162 29s-81.167 44.333 -109.5 75
s-49 65.334 -62 104.001s-19.5 77.334 -19.5 116.001zM619.003 460.994c24 20 43.667 44.8311 59 74.498s23 62.834 23 99.501c0 20 -2.5 39.333 -7.5 58s-12.667 37.5 -23 56.5s-23.833 38.5 -40.5 58.5s-37 41.667 -61 65l-127 123c-23.333 -20 -42.5 -44.833 -57.5 -74.5
s-22.5 -62.5 -22.5 -98.5c0 -20 2.5 -39.333 7.5 -58s12.667 -37.5 23 -56.5s23.833 -38.667 40.5 -59s37 -42.166 61 -65.499z" />
    <glyph glyph-name="dieresis" unicode="&#xa8;" horiz-adv-x="948" 
d="M688 1566c-52 0 -87.665 13.501 -106.998 40.501s-29 67.5 -29 121.5c0 28.667 2.16699 53.667 6.5 75s11.666 39.166 21.999 53.499s24.166 25 41.499 32s39.333 10.5 66 10.5c54.667 0 92.667 -13.833 114 -41.5s32 -70.834 32 -129.501
c0 -51.333 -10.667 -91.166 -32 -119.499s-59.333 -42.5 -114 -42.5zM251.002 1566c-52 0 -87.833 13.501 -107.5 40.501s-29.5 67.5 -29.5 121.5c0 28.667 2.16699 53.667 6.5 75s11.666 39.166 21.999 53.499s24.333 25 42 32s39.834 10.5 66.501 10.5
c54.667 0 92.5 -13.833 113.5 -41.5s31.5 -70.834 31.5 -129.501c0 -51.333 -10.5 -91.166 -31.5 -119.499s-58.833 -42.5 -113.5 -42.5z" />
    <glyph glyph-name="copyright" unicode="&#xa9;" horiz-adv-x="1458" 
d="M104 1030c0 103.333 10 192.666 30 267.999s46.5 139.333 79.5 192s71.167 95.334 114.5 128.001s88.166 58 134.499 76s92.833 30.167 139.5 36.5s90 9.5 130 9.5c38.667 0 80.834 -3 126.501 -9s91.5 -17.667 137.5 -35s90.667 -42.166 134 -74.499
s81.5 -74.833 114.5 -127.5s59.5 -117 79.5 -193s30 -166.333 30 -271v-336c0 -104.667 -10 -195 -30 -271s-46.667 -140.333 -80 -193s-71.666 -95 -114.999 -127s-88 -56.667 -134 -74s-92 -29 -138 -35s-88.333 -9 -127 -9c-40 0 -83.167 3.16699 -129.5 9.5
s-92.833 18.5 -139.5 36.5s-91.334 43.167 -134.001 75.5s-80.667 74.833 -114 127.5s-59.833 116.667 -79.5 192s-29.5 164.666 -29.5 267.999v336zM260 670c0 -82 7.33301 -152.502 22 -211.502s34.334 -108.833 59.001 -149.5s53 -73.5 85 -98.5
s65.5 -44.167 100.5 -57.5s70 -22.166 105 -26.499s67.833 -6.5 98.5 -6.5c29.333 0 61.333 2 96 6s69.5 12.5 104.5 25.5s68.5 31.833 100.5 56.5s60.5 57.334 85.5 98.001s45 90.667 60 150s22.833 130.666 23.5 213.999v384c0 83.333 -7.5 154.666 -22.5 213.999
s-34.833 109.333 -59.5 150s-53.167 73.334 -85.5 98.001s-65.833 43.5 -100.5 56.5s-69.334 21.5 -104.001 25.5s-66.667 6 -96 6c-30.667 0 -63.667 -2.16699 -99 -6.5s-70.5 -13.166 -105.5 -26.499s-68.5 -32.5 -100.5 -57.5s-60.5 -57.833 -85.5 -98.5
s-44.833 -90.5 -59.5 -149.5s-22 -129.5 -22 -211.5v-384zM756 291.998c-21.333 0 -44.5049 1.66602 -69.5049 4.99902s-49.833 10.5 -74.5 21.5s-48.5 26.333 -71.5 46s-43.333 46 -61 79s-31.834 73.333 -42.501 121s-16 104.834 -16 171.501v257
c0 66.667 5.5 123.834 16.5 171.501s25.333 87.667 43 120s38.167 58 61.5 77s47.333 33.667 72 44s49.167 17 73.5 20s46.833 4.5 67.5 4.5c52.667 0 96.834 -7.83301 132.501 -23.5s64.334 -35.667 86.001 -60s37.167 -51.333 46.5 -81s14 -58.5 14 -86.5
c0 -28.667 -1.66699 -55 -5 -79s-7.66602 -50.667 -12.999 -80h-164v56c0 62 -8.66699 108.667 -26 140s-42.666 47 -75.999 47c-18 0 -34.167 -3.66699 -48.5 -11s-26.166 -19.5 -35.499 -36.5s-16.5 -39.833 -21.5 -68.5s-7.5 -64.334 -7.5 -107.001v-367
c0 -41.333 2.5 -75.666 7.5 -102.999s12.333 -49.333 22 -66s22 -28.334 37 -35.001s32.5 -10 52.5 -10c28 0 51.167 12 69.5 36s27.5 62.667 27.5 116v85h185v-74c0 -107.333 -24.167 -189 -72.5 -245s-118.166 -84.333 -209.499 -85z" />
    <glyph glyph-name="ordfeminine" unicode="&#xaa;" horiz-adv-x="836" 
d="M309 649c-43.333 0 -80.168 7.33594 -110.501 22.0029s-55.166 34 -74.499 58s-33.333 51.333 -42 82s-13 62 -13 94c0 55.333 10.833 103.5 32.5 144.5s48.334 76.167 80.001 105.5s65.667 53.833 102 73.5s69.5 35.5 99.5 47.5l51.5 21.5
c21.667 9 43.167 16.5 64.5 22.5v159c0 36 -6.33301 64.667 -19 86s-36.667 32 -72 32c-18 0 -34.5 -2.66699 -49.5 -8s-27.833 -14.333 -38.5 -27s-19 -29 -25 -49s-9 -45 -9 -75v-46h-182c-5.33301 25.333 -9 47.166 -11 65.499s-3 37.166 -3 56.499
c0 30.667 6 60.667 18 90s30.833 55.666 56.5 78.999s58.667 42.166 99 56.499s88.833 21.5 145.5 21.5c67.333 0 121.666 -8.33301 162.999 -25s73.5 -38.667 96.5 -66s38.5 -58.166 46.5 -92.499s12 -69.5 12 -105.5v-804h-172l-17 72c-12 -12 -26.5 -23.5 -43.5 -34.5
s-35.667 -20.667 -56 -29s-41.5 -15 -63.5 -20s-44 -7.5 -66 -7.5zM399.998 814.003c20.667 0 39.1641 3.66699 55.4971 11s30.833 16.333 43.5 27v323l-29 -10c-8 -2.66699 -20.333 -7.66699 -37 -15c-15.333 -6 -31.666 -14.833 -48.999 -26.5s-33.166 -26 -47.499 -43
s-26.166 -36.5 -35.499 -58.5s-14 -46.333 -14 -73c0 -40 9.83301 -72.5 29.5 -97.5s47.5 -37.5 83.5 -37.5z" />
    <glyph glyph-name="guillemotleft" unicode="&#xab;" horiz-adv-x="1336" 
d="M144 717v150l389 406l137 -124l-283 -359l279 -360l-137 -125zM651 717v150l389 406l137 -124l-283 -359l279 -360l-137 -125z" />
    <glyph glyph-name="logicalnot" unicode="&#xac;" horiz-adv-x="991" 
d="M45 887h860v-519h-198v324h-662v195z" />
    <glyph glyph-name="uni00AD" unicode="&#xad;" horiz-adv-x="1707" 
 />
    <glyph glyph-name="registered" unicode="&#xae;" horiz-adv-x="1479" 
d="M740 184c-38 0 -80.166 3.16602 -126.499 9.49902s-93 18.5 -140 36.5s-92.667 43 -137 75s-83.666 73.667 -117.999 125s-62 113.833 -83 187.5s-31.5 160.834 -31.5 261.501v166c0 100.667 10.5 187.834 31.5 261.501s48.833 136.334 83.5 188.001
s74.167 93.5 118.5 125.5s90.166 56.833 137.499 74.5s94.166 29.667 140.499 36s88.5 9.5 126.5 9.5c36.667 0 77.667 -3 123 -9s91.5 -17.5 138.5 -34.5s92.667 -41.333 137 -73s84 -73.334 119 -125.001s63 -114.5 84 -188.5s31.5 -162.333 31.5 -265v-166
c0 -102.667 -10.667 -191 -32 -265s-49.333 -136.833 -84 -188.5s-74.334 -93.334 -119.001 -125.001s-90.667 -56 -138 -73s-93.666 -28.5 -138.999 -34.5s-86.333 -9 -123 -9zM740.001 329.999c31.333 0 65.001 2.1709 101.001 6.50391s71.833 13.166 107.5 26.499
s69.667 32.166 102 56.499s61 56.666 86 96.999s45 89.333 60 147s22.833 126.834 23.5 207.501v182c0 80.667 -7.33301 150 -22 208s-34.5 107 -59.5 147s-53.833 72.167 -86.5 96.5s-66.667 43.166 -102 56.499s-71 22.166 -107 26.499s-69.667 6.5 -101 6.5
c-32.667 0 -67.334 -2.33301 -104.001 -7s-72.834 -13.834 -108.501 -27.501s-69.667 -33 -102 -58s-61 -57.5 -86 -97.5s-44.833 -88.667 -59.5 -146s-22 -125.666 -22 -204.999v-182c0 -79.333 7.33301 -147.666 22 -204.999s34.334 -106 59.001 -146
s53.167 -72.5 85.5 -97.5s66.333 -44.333 102 -58s71.667 -22.834 108 -27.501s70.833 -7 103.5 -7zM478.002 1387h183.001c25.333 0 52 -0.666992 80 -2s55.833 -4.66602 83.5 -9.99902s54 -13.333 79 -24s47.167 -25.334 66.5 -44.001s34.666 -42 45.999 -70
s17 -62 17 -102v-30c0 -50 -11 -93.167 -33 -129.5s-54 -63.833 -96 -82.5l187 -331h-207l-128 280h-95v-280h-183v825zM692.003 968.003c52 0 88.501 10.835 109.501 32.502s31.5 55.5 31.5 101.5v42c0 18 -2.33301 34.167 -7 48.5s-12.334 26.666 -23.001 36.999
s-25.167 18.166 -43.5 23.499s-40.833 8 -67.5 8h-31v-293h31z" />
    <glyph glyph-name="macron" unicode="&#xaf;" horiz-adv-x="851" 
d="M114 1826h623v-193h-623v193z" />
    <glyph glyph-name="degree" unicode="&#xb0;" horiz-adv-x="889" 
d="M439 1072c-56 0 -105 10 -147 30s-76.667 46.667 -104 80s-47.833 71.333 -61.5 114s-20.5 86.667 -20.5 132c0 47.333 6.5 93.166 19.5 137.499s33.167 83.5 60.5 117.5s62 61.167 104 81.5s91.667 30.5 149 30.5s107.5 -10 150.5 -30s78.833 -47 107.5 -81
s50.167 -73.167 64.5 -117.5s21.5 -90.5 21.5 -138.5c0 -43.333 -7.16699 -86.166 -21.5 -128.499s-35.833 -80.333 -64.5 -114s-64.5 -61 -107.5 -82s-93.167 -31.5 -150.5 -31.5zM436 1265c24.667 0 46.167 4.6709 64.5 14.0039s33.666 21.5 45.999 36.5
s21.5 32.167 27.5 51.5s9 38.666 9 57.999c0 23.333 -3 45.666 -9 66.999s-15.167 40.166 -27.5 56.499s-27.666 29.333 -45.999 39s-39.833 14.5 -64.5 14.5c-22.667 0 -42.167 -4.83301 -58.5 -14.5s-29.833 -22.834 -40.5 -39.501s-18.5 -35.667 -23.5 -57
s-7.5 -43.333 -7.5 -66c0 -20.667 2.66699 -40.5 8 -59.5s13.333 -36 24 -51s24.167 -27 40.5 -36s35.5 -13.5 57.5 -13.5z" />
    <glyph glyph-name="plusminus" unicode="&#xb1;" horiz-adv-x="916" 
d="M357 860h-271v195h271v314h199v-314h274v-195h-274v-323h-199v323zM86 364h744v-195h-744v195z" />
    <glyph glyph-name="twosuperior" unicode="&#xb2;" horiz-adv-x="864" 
d="M116 795l265.999 398.002c26 38 46.667 71.667 62 101s27 55.666 35 78.999s13.167 44.166 15.5 62.499s3.5 35.833 3.5 52.5c0 38 -7.66699 65.5 -23 82.5s-38 25.5 -68 25.5s-54.167 -12.667 -72.5 -38s-27.5 -63 -27.5 -113v-53h-184c-2 12.667 -4 24 -6 34
s-3.5 19.167 -4.5 27.5s-1.83301 16.5 -2.5 24.5s-1 16.667 -1 26c0 38 6.83301 72.833 20.5 104.5s33.834 58.667 60.501 81s59 39.833 97 52.5s81.667 19 131 19c32.667 0 67.834 -3.33301 105.501 -10s72.167 -19.667 103.5 -39s57.5 -47 78.5 -83s31.5 -83 31.5 -141
c0 -25.333 -2.16699 -50.5 -6.5 -75.5s-12 -51.333 -23 -79s-25.833 -57.667 -44.5 -90s-42.334 -68.833 -71.001 -109.5l-198 -284h344v-173h-622v118z" />
    <glyph glyph-name="threesuperior" unicode="&#xb3;" horiz-adv-x="861" 
d="M401 666c-56.667 0 -104.834 7.17285 -144.501 21.5059s-72.167 33.166 -97.5 56.499s-43.833 49.666 -55.5 78.999s-17.5 59.333 -17.5 90c0 20.667 1 41 3 61s5.66699 44 11 72h186v-46c0 -32 3 -58.833 9 -80.5s14.167 -39.167 24.5 -52.5s22.5 -22.833 36.5 -28.5
s29 -8.5 45 -8.5c40.667 0 69.5 11 86.5 33s25.5 49.667 25.5 83v73c0 49.333 -11.167 84.833 -33.5 106.5s-49.833 32.5 -82.5 32.5h-80v135h80c14.667 0 28.334 2.16699 41.001 6.5s23.834 11.5 33.501 21.5s17.334 23 23.001 39s8.5 35.333 8.5 58v71
c0 15.333 -1.83301 29.666 -5.5 42.999s-9.5 24.833 -17.5 34.5s-18.5 17.167 -31.5 22.5s-28.833 8 -47.5 8c-14.667 0 -28.334 -2.66699 -41.001 -8s-23.834 -14.333 -33.501 -27s-17.167 -29 -22.5 -49s-8 -45 -8 -75v-46h-182c-5.33301 25.333 -9 47.166 -11 65.499
s-3 37.166 -3 56.499c0 30.667 5.83301 60.667 17.5 90s30 55.666 55 78.999s57 42.166 96 56.499s85.833 21.5 140.5 21.5c34.667 0 70.667 -3.5 108 -10.5s71.5 -20.167 102.5 -39.5s56.333 -45.833 76 -79.5s29.5 -77.5 29.5 -131.5v-63
c-5.33301 -46.667 -17.833 -88.167 -37.5 -124.5s-51.167 -63.833 -94.5 -82.5v-8c45.333 -18.667 80.333 -46.667 105 -84s37 -79.666 37 -126.999v-65c0 -58 -10.667 -105.167 -32 -141.5s-48.333 -64.833 -81 -85.5s-68.667 -34.667 -108 -42s-77 -11 -113 -11z" />
    <glyph glyph-name="acute" unicode="&#xb4;" horiz-adv-x="687" 
d="M114 1567l290 416l169 -137l-334 -384z" />
    <glyph glyph-name="mu" unicode="&#xb5;" horiz-adv-x="1036" 
d="M121 1377l262 0.00390625v-1033c0 -30.667 2.33301 -56.334 7 -77.001s11.834 -37.334 21.501 -50.001s21.834 -21.834 36.501 -27.501s32 -8.5 52 -8.5c23.333 0 45.833 4.16699 67.5 12.5s43.167 25.166 64.5 50.499v1133h266v-1377h-206l-17 96
c-10 -15.333 -22 -29.833 -36 -43.5s-29.333 -25.5 -46 -35.5s-33.834 -18 -51.501 -24s-34.834 -9 -51.501 -9c-22.667 0 -44.167 3.5 -64.5 10.5s-40.833 23.167 -61.5 48.5l-8 1l7 -372h-241z" />
    <glyph glyph-name="paragraph" unicode="&#xb6;" horiz-adv-x="1101" 
d="M683 1708h258v-1708h-258v1708zM481 520c-22.667 0 -47.834 1.49902 -75.501 4.49902s-55.5 10.833 -83.5 23.5s-55.5 31.5 -82.5 56.5s-50.833 59.833 -71.5 104.5s-37.334 100.334 -50.001 167.001s-19 147.667 -19 243v60c0 84 6.33301 155.333 19 214
s29.334 107.5 50.001 146.5s44.5 69.833 71.5 92.5s54.5 39.5 82.5 50.5s55.833 18 83.5 21s52.834 4.5 75.501 4.5h31v-1188h-31z" />
    <glyph glyph-name="periodcentered" unicode="&#xb7;" horiz-adv-x="561" 
d="M121 793c0 70.667 14 121.334 42 152.001s66 46 114 46c50 0 88.667 -16.333 116 -49s41 -82.334 41 -149.001c0 -61.333 -13.833 -108.833 -41.5 -142.5s-66.5 -50.5 -116.5 -50.5c-47.333 0 -85 16.333 -113 49s-42 80.667 -42 144z" />
    <glyph glyph-name="cedilla" unicode="&#xb8;" horiz-adv-x="594" 
d="M478 -104c2.66699 -47.333 0.831055 -88.001 -5.50195 -122.001s-15.666 -62.667 -27.999 -86s-26.666 -42 -42.999 -56s-32.833 -24.833 -49.5 -32.5s-32.667 -12.667 -48 -15s-28.333 -3.5 -39 -3.5c-28 0 -53.167 2.33301 -75.5 7s-47.5 12.334 -75.5 23.001l7 151
c5.33301 -0.666992 10.833 -1 16.5 -1h16.5c22.667 0 43 2.33301 61 7s33.667 13.5 47 26.5s23.833 31.5 31.5 55.5s12.5 55.333 14.5 94l2 44l93 148l69 -137z" />
    <glyph glyph-name="onesuperior" unicode="&#xb9;" horiz-adv-x="770" 
d="M160 839h127v611l-133 -112l-88 132l265 256h178v-887h134v-162h-483v162z" />
    <glyph glyph-name="ordmasculine" unicode="&#xba;" horiz-adv-x="919" 
d="M471 666c-24 0 -49.334 2.16797 -76.001 6.50098s-52.667 12 -78 23s-49.5 25.5 -72.5 43.5s-43.167 40.833 -60.5 68.5s-31.166 60.5 -41.499 98.5s-15.5 82.333 -15.5 133v350c0 75.333 11 137.166 33 185.499s50 86.333 84 114s71.167 46.667 111.5 57
s78.833 15.5 115.5 15.5c24 0 49.167 -2.16699 75.5 -6.5s52.166 -12 77.499 -23s49.5 -25.667 72.5 -44s43.167 -41.333 60.5 -69s31.166 -60.5 41.499 -98.5s15.5 -82.333 15.5 -133v-347c0 -50.667 -5.16699 -95 -15.5 -133s-24.166 -70.833 -41.499 -98.5
s-37.5 -50.667 -60.5 -69s-47.167 -33 -72.5 -44s-51.166 -18.667 -77.499 -23s-51.5 -6.5 -75.5 -6.5zM470.999 830.001c47.333 0 79.5 17.3311 96.5 51.998s25.5 87 25.5 157v348c0 70.667 -8.5 123.334 -25.5 158.001s-49.167 52 -96.5 52s-79.666 -17.167 -96.999 -51.5
s-26 -86.5 -26 -156.5v-349c0 -71.333 8.66699 -124.166 26 -158.499s49.666 -51.5 96.999 -51.5z" />
    <glyph glyph-name="guillemotright" unicode="&#xbb;" horiz-adv-x="1368" 
d="M693.009 717v150l-388.977 406l-136.991 -124l282.982 -359l-278.982 -360l136.991 -125zM1214.01 717v150l-388.977 406l-136.991 -124l282.982 -359l-278.982 -360l136.991 -125z" />
    <glyph glyph-name="onequarter" unicode="&#xbc;" horiz-adv-x="1825" 
d="M1002 281l373 788h257v-730h87v-154h-87v-184h-222v184h-408v96zM1410 339v37l26 420h-12l-201 -457h187zM590 0l459 1709h182l-459 -1709h-182zM201 839h127v611l-133 -112l-88 132l265 256h178v-887h134v-162h-483v162z" />
    <glyph glyph-name="onehalf" unicode="&#xbd;" horiz-adv-x="1861" 
d="M590 0l459 1709h182l-459 -1709h-182zM201 839h127v611l-133 -112l-88 132l265 256h178v-887h134v-162h-483v162zM1123 119l265.999 398.002c26 38 46.667 71.667 62 101s27 55.666 35 78.999s13.167 44.166 15.5 62.499s3.5 35.833 3.5 52.5
c0 38 -7.66699 65.5 -23 82.5s-38 25.5 -68 25.5s-54.167 -12.667 -72.5 -38s-27.5 -63 -27.5 -113v-53h-184c-2 12.667 -4 24 -6 34s-3.5 19.167 -4.5 27.5s-1.83301 16.5 -2.5 24.5s-1 16.667 -1 26c0 38 6.83301 72.833 20.5 104.5s33.834 58.667 60.501 81
s59 39.833 97 52.5s81.667 19 131 19c32.667 0 67.834 -3.33301 105.501 -10s72.167 -19.667 103.5 -39s57.5 -47 78.5 -83s31.5 -83 31.5 -141c0 -25.333 -2.16699 -50.5 -6.5 -75.5s-12 -51.333 -23 -79s-25.833 -57.667 -44.5 -90s-42.334 -68.833 -71.001 -109.5
l-198 -284h344v-173h-622v118z" />
    <glyph glyph-name="threequarters" unicode="&#xbe;" horiz-adv-x="1869" 
d="M1046 281l373 788h258v-730h86v-154h-86v-184h-223v184h-408v96zM1454 339v37l27 420h-13l-201 -457h187zM632 0l459 1709h182l-459 -1709h-182zM431 666c-56.667 0 -104.834 7.17285 -144.501 21.5059s-72.167 33.166 -97.5 56.499s-43.833 49.666 -55.5 78.999
s-17.5 59.333 -17.5 90c0 20.667 1 41 3 61s5.66699 44 11 72h186v-46c0 -32 3 -58.833 9 -80.5s14.167 -39.167 24.5 -52.5s22.5 -22.833 36.5 -28.5s29 -8.5 45 -8.5c40.667 0 69.5 11 86.5 33s25.5 49.667 25.5 83v73c0 49.333 -11.167 84.833 -33.5 106.5
s-49.833 32.5 -82.5 32.5h-80v135h80c14.667 0 28.334 2.16699 41.001 6.5s23.834 11.5 33.501 21.5s17.334 23 23.001 39s8.5 35.333 8.5 58v71c0 15.333 -1.83301 29.666 -5.5 42.999s-9.5 24.833 -17.5 34.5s-18.5 17.167 -31.5 22.5s-28.833 8 -47.5 8
c-14.667 0 -28.334 -2.66699 -41.001 -8s-23.834 -14.333 -33.501 -27s-17.167 -29 -22.5 -49s-8 -45 -8 -75v-46h-182c-5.33301 25.333 -9 47.166 -11 65.499s-3 37.166 -3 56.499c0 30.667 5.83301 60.667 17.5 90s30 55.666 55 78.999s57 42.166 96 56.499
s85.833 21.5 140.5 21.5c34.667 0 70.667 -3.5 108 -10.5s71.5 -20.167 102.5 -39.5s56.333 -45.833 76 -79.5s29.5 -77.5 29.5 -131.5v-63c-5.33301 -46.667 -17.833 -88.167 -37.5 -124.5s-51.167 -63.833 -94.5 -82.5v-8c45.333 -18.667 80.333 -46.667 105 -84
s37 -79.666 37 -126.999v-65c0 -58 -10.667 -105.167 -32 -141.5s-48.333 -64.833 -81 -85.5s-68.667 -34.667 -108 -42s-77 -11 -113 -11z" />
    <glyph glyph-name="questiondown" unicode="&#xbf;" horiz-adv-x="1026" 
d="M624.023 629.047c0 -26.665 -0.663086 -49.833 -1.99609 -69.498s-4.16602 -38.4971 -8.49902 -56.4961s-10.833 -36.1641 -19.5 -54.4961c-8.66602 -18.333 -20.332 -39.165 -34.9971 -62.4961l-117.993 -185.989c-25.332 -41.3311 -45.3311 -83.9951 -59.9961 -127.992
c-14.666 -43.9971 -21.999 -84.6611 -21.999 -121.992c0 -27.332 3.66602 -52.3301 10.999 -74.9951s17.666 -41.9971 30.998 -57.9961c13.333 -15.999 29.832 -28.498 49.4971 -37.4971c19.666 -8.99902 41.498 -13.499 65.4961 -13.499
c53.9971 0 93.6611 23.998 118.993 71.9951c25.3311 47.9971 37.9971 117.326 37.9971 207.987v81.9951h203.988c7.33301 -37.3311 13.666 -71.4961 18.999 -102.494s7.99902 -64.8291 7.99902 -101.493c0 -50.6641 -7.66602 -97.9951 -22.999 -141.992
c-15.332 -43.9971 -39.3301 -82.3281 -71.9951 -114.992c-32.665 -32.665 -73.9961 -58.3301 -123.993 -76.9961c-49.9971 -18.665 -109.66 -27.998 -178.989 -27.998c-68.6631 0 -128.826 9.16602 -180.489 27.498c-51.6631 18.333 -94.8271 44.498 -129.492 78.4961
c-34.665 33.9971 -60.4971 74.8281 -77.4961 122.492s-25.498 100.827 -25.498 159.49c0 33.3311 3 65.1621 8.99902 95.4932c6 30.3311 15.333 60.6621 27.998 90.9932c12.666 30.332 28.332 61.3301 46.9971 92.9941c18.666 31.665 40.998 64.8301 66.9961 99.4941
l79.9951 107.994c19.332 25.998 34.3311 48.3301 44.9971 66.9951c10.666 18.666 18.499 36.998 23.499 54.9971c4.99902 17.999 8.16504 36.998 9.49805 56.9971s2 43.998 2 71.9971v143.991h220.986zM656.024 1212.01c0 -69.9951 -14 -120.159 -41.998 -150.491
c-27.998 -30.3311 -65.9961 -45.4971 -113.993 -45.4971c-49.9971 0 -88.6611 15.999 -115.992 47.9971c-27.332 31.998 -40.998 81.3281 -40.998 147.991c0 60.6631 13.833 107.66 41.498 140.991s66.4961 49.9971 116.493 49.9971
c47.3311 0 84.9951 -16.166 112.993 -48.4971s41.9971 -79.8281 41.9971 -142.491z" />
    <glyph glyph-name="Agrave" unicode="&#xc0;" horiz-adv-x="967" 
d="M334 1708h298l316 -1708h-262l-47 306h-312l-45 -306h-263zM609 501l-120 851h-11l-121 -851h252zM140 1899l129 167l321 -216l-105 -117z" />
    <glyph glyph-name="Aacute" unicode="&#xc1;" horiz-adv-x="967" 
d="M334 1708h298l316 -1708h-262l-47 306h-312l-45 -306h-263zM609 501l-120 851h-11l-121 -851h252zM379 1850l321 216l129 -167l-345 -166z" />
    <glyph glyph-name="Acircumflex" unicode="&#xc2;" horiz-adv-x="967" 
d="M334 1708h298l316 -1708h-262l-47 306h-312l-45 -306h-263zM609 501l-120 851h-11l-121 -851h252zM526 1886l-40 56l-40 -56l-84 -130h-248l250 310h234l246 -310h-249z" />
    <glyph glyph-name="Atilde" unicode="&#xc3;" horiz-adv-x="967" 
d="M334 1708h298l316 -1708h-262l-47 306h-312l-45 -306h-263zM609 501l-120 851h-11l-121 -851h252zM651 1729c-41.333 0 -76.668 5.83301 -106.001 17.5s-58 28.834 -86 51.501c-16 14 -29.5 26.333 -40.5 37s-20.833 19.667 -29.5 27s-17 12.833 -25 16.5
s-17 5.5 -27 5.5c-14 0 -24.667 -5.66699 -32 -17s-11 -27 -11 -47v-72h-178c0 4 -0.333008 9.83301 -1 17.5s-1.16699 15.667 -1.5 24s-0.666016 16.166 -0.999023 23.499s-0.5 12.666 -0.5 15.999c0 44.667 6 82.167 18 112.5s28.167 54.833 48.5 73.5
s43.833 31.834 70.5 39.501s54.667 11.5 84 11.5c39.333 0 72.5 -5.66699 99.5 -17s53.833 -28 80.5 -50l28.5 -27.5c10.333 -10.333 21 -20 32 -29s22 -16.5 33 -22.5s21.833 -9 32.5 -9c14.667 0 26.667 4.66699 36 14s14 24 14 44v78h159c4 -24 6.83301 -44.5 8.5 -61.5
s2.5 -31.833 2.5 -44.5c0 -34.667 -5.83301 -65.167 -17.5 -91.5s-27 -48.5 -46 -66.5s-41.167 -31.5 -66.5 -40.5s-51.333 -13.5 -78 -13.5z" />
    <glyph glyph-name="Adieresis" unicode="&#xc4;" horiz-adv-x="967" 
d="M334 1708h298l316 -1708h-262l-47 306h-312l-45 -306h-263zM609 501l-120 851h-11l-121 -851h252zM699 1751c-52 0 -87.665 13.833 -106.998 41.5s-29 66.5 -29 116.5c0 26 2.16699 48.833 6.5 68.5s11.666 36 21.999 49s24.166 22.833 41.499 29.5s39.333 10 66 10
c54.667 0 92.667 -12.667 114 -38s32 -65 32 -119c0 -24 -2.5 -45.667 -7.5 -65s-13.167 -36 -24.5 -50s-26.333 -24.667 -45 -32s-41.667 -11 -69 -11zM262.002 1751c-52 0 -87.835 13.833 -107.502 41.5s-29.5 66.5 -29.5 116.5c0 26 2.16699 48.833 6.5 68.5
s11.666 36 21.999 49s24.333 22.833 42 29.5s39.834 10 66.501 10c54.667 0 92.5 -12.667 113.5 -38s31.5 -65 31.5 -119c0 -24 -2.5 -45.667 -7.5 -65s-13.167 -36 -24.5 -50s-26.166 -24.667 -44.499 -32s-41.166 -11 -68.499 -11z" />
    <glyph glyph-name="Aring" unicode="&#xc5;" horiz-adv-x="964" 
d="M302 1526c-45.333 27.333 -78.834 63.333 -100.501 108s-32.5 92 -32.5 142c0 38.667 6.16699 75.5 18.5 110.5s31.333 65.667 57 92s58.334 47.333 98.001 63s86.5 23.5 140.5 23.5c54.667 0 102.167 -7.66699 142.5 -23s74 -36 101 -62s47.167 -56.5 60.5 -91.5
s20 -72.5 20 -112.5c0 -24 -3 -48 -9 -72s-15 -47 -27 -69s-27.167 -42.5 -45.5 -61.5s-39.5 -35.5 -63.5 -49.5l285 -1524h-260l-47 306h-316l-45 -306h-261zM481.999 1643c26.667 0 49.833 3.83496 69.5 11.502s36 17.667 49 30s22.833 26.166 29.5 41.499
s10 30.666 10 45.999c0 38 -13 69.333 -39 94s-65.667 37 -119 37c-48 0 -83.167 -12.5 -105.5 -37.5s-33.5 -56.167 -33.5 -93.5c0 -16 2.83301 -31.833 8.5 -47.5s14.167 -29.5 25.5 -41.5s25.833 -21.667 43.5 -29s38.167 -11 61.5 -11zM609.998 501.002l-122 855h-11
l-123 -855h256z" />
    <glyph glyph-name="AE" unicode="&#xc6;" horiz-adv-x="1266" 
d="M443 1708h797v-205h-394v-508h307v-224h-307v-566h394v-205h-650v306h-255l-63 -306h-261zM590 492v864h-37l-179 -864h216z" />
    <glyph glyph-name="Ccedilla" unicode="&#xc7;" horiz-adv-x="936" 
d="M514 -15c-26.667 0 -55.502 2.16309 -86.502 6.49609s-62 13.5 -93 27.5s-60.667 33.833 -89 59.5s-53.333 59.5 -75 101.5s-39 93.833 -52 155.5s-19.5 135.167 -19.5 220.5v605c0 86 6.66699 159.5 20 220.5s31 112.333 53 154s47.333 74.834 76 99.501
s58.334 43.5 89.001 56.5s61.167 21.5 91.5 25.5s58.5 6 84.5 6c68 0 124.833 -9.5 170.5 -28.5s82.334 -45 110.001 -78s47.334 -71.5 59.001 -115.5s17.5 -90.667 17.5 -140c0 -36.667 -1.83301 -70.5 -5.5 -101.5s-9.16699 -65.167 -16.5 -102.5h-210v87
c0 94 -10.333 164.333 -31 211s-51 70 -91 70c-24 0 -45 -4.66699 -63 -14s-33 -25.166 -45 -47.499s-21.167 -51.833 -27.5 -88.5s-9.5 -82.334 -9.5 -137.001v-780c0 -53.333 2.5 -97.666 7.5 -132.999s13.167 -63.666 24.5 -84.999s26.166 -36.5 44.499 -45.5
s40.5 -13.5 66.5 -13.5c16.667 0 32.667 3.83301 48 11.5s28.833 19.667 40.5 36s21 37 28 62s10.5 54.5 10.5 88.5v167h237v-158c0 -137.333 -31.333 -238.666 -94 -303.999s-152.667 -98.333 -270 -99zM608.998 -104.004
c2.66699 -47.333 0.831055 -88.001 -5.50195 -122.001s-15.666 -62.667 -27.999 -86s-26.666 -42 -42.999 -56s-32.833 -24.833 -49.5 -32.5s-32.667 -12.667 -48 -15s-28.333 -3.5 -39 -3.5c-28 0 -53.167 2.33301 -75.5 7s-47.5 12.334 -75.5 23.001l7 151
c5.33301 -0.666992 10.833 -1 16.5 -1h16.5c22.667 0 43 2.33301 61 7s33.667 13.5 47 26.5s23.833 31.5 31.5 55.5s12.5 55.333 14.5 94l2 44l93 148l69 -137z" />
    <glyph glyph-name="Egrave" unicode="&#xc8;" horiz-adv-x="830" 
d="M146 1708h633v-204h-374v-511h289v-204h-289v-585h384v-204h-643v1708zM135 1899l129 167l321 -216l-105 -117z" />
    <glyph glyph-name="Eacute" unicode="&#xc9;" horiz-adv-x="830" 
d="M146 1708h633v-204h-374v-511h289v-204h-289v-585h384v-204h-643v1708zM374 1850l321 216l129 -167l-345 -166z" />
    <glyph glyph-name="Ecircumflex" unicode="&#xca;" horiz-adv-x="830" 
d="M146 1708h633v-204h-374v-511h289v-204h-289v-585h384v-204h-643v1708zM522 1886l-40 56l-40 -56l-84 -130h-248l250 310h234l246 -310h-249z" />
    <glyph glyph-name="Edieresis" unicode="&#xcb;" horiz-adv-x="830" 
d="M146 1708h633v-204h-374v-511h289v-204h-289v-585h384v-204h-643v1708zM694 1751c-52 0 -87.665 13.833 -106.998 41.5s-29 66.5 -29 116.5c0 26 2.16699 48.833 6.5 68.5s11.666 36 21.999 49s24.166 22.833 41.499 29.5s39.333 10 66 10
c54.667 0 92.667 -12.667 114 -38s32 -65 32 -119c0 -24 -2.5 -45.667 -7.5 -65s-13.167 -36 -24.5 -50s-26.333 -24.667 -45 -32s-41.667 -11 -69 -11zM257.002 1751c-52 0 -87.835 13.833 -107.502 41.5s-29.5 66.5 -29.5 116.5c0 26 2.16699 48.833 6.5 68.5
s11.666 36 21.999 49s24.333 22.833 42 29.5s39.834 10 66.501 10c54.667 0 92.5 -12.667 113.5 -38s31.5 -65 31.5 -119c0 -24 -2.5 -45.667 -7.5 -65s-13.167 -36 -24.5 -50s-26.166 -24.667 -44.499 -32s-41.166 -11 -68.499 -11z" />
    <glyph glyph-name="Igrave" unicode="&#xcc;" horiz-adv-x="551" 
d="M146 1708h259v-1708h-259v1708zM-69 1899l129 167l321 -216l-105 -117z" />
    <glyph glyph-name="Iacute" unicode="&#xcd;" horiz-adv-x="551" 
d="M146 1708h259v-1708h-259v1708zM169 1850l321 216l129 -167l-345 -166z" />
    <glyph glyph-name="Icircumflex" unicode="&#xce;" horiz-adv-x="551" 
d="M146 1708h259v-1708h-259v1708zM317 1886l-40 56l-40 -56l-84 -130h-248l250 310h234l246 -310h-249z" />
    <glyph glyph-name="Idieresis" unicode="&#xcf;" horiz-adv-x="551" 
d="M146 1708h259v-1708h-259v1708zM490 1751c-52 0 -87.665 13.833 -106.998 41.5s-29 66.5 -29 116.5c0 26 2.16699 48.833 6.5 68.5s11.666 36 21.999 49s24.166 22.833 41.499 29.5s39.333 10 66 10c54.667 0 92.667 -12.667 114 -38s32 -65 32 -119
c0 -24 -2.5 -45.667 -7.5 -65s-13.167 -36 -24.5 -50s-26.333 -24.667 -45 -32s-41.667 -11 -69 -11zM53.002 1751c-52 0 -87.835 13.833 -107.502 41.5s-29.5 66.5 -29.5 116.5c0 26 2.16699 48.833 6.5 68.5s11.666 36 21.999 49s24.333 22.833 42 29.5
s39.834 10 66.501 10c54.667 0 92.5 -12.667 113.5 -38s31.5 -65 31.5 -119c0 -24 -2.5 -45.667 -7.5 -65s-13.167 -36 -24.5 -50s-26.166 -24.667 -44.499 -32s-41.166 -11 -68.499 -11z" />
    <glyph glyph-name="Eth" unicode="&#xd0;" horiz-adv-x="1037" 
d="M128 817l-85 -0.000976562v202h85v706h278c32 0 67.5 -1.66699 106.5 -5s78.333 -11.166 118 -23.499s78.167 -31.166 115.5 -56.499s70.5 -60.166 99.5 -104.499s52.167 -99.5 69.5 -165.5s26 -146.333 26 -241v-523c0 -96 -8.66699 -177.833 -26 -245.5
s-40.5 -123.834 -69.5 -168.501s-62.167 -79.834 -99.5 -105.501s-75.833 -45 -115.5 -58s-79 -21 -118 -24s-74.5 -4.5 -106.5 -4.5h-278v817zM418 179.999c46 0 85.1689 7.50098 117.502 22.501s58.666 38 78.999 69s35 70.167 44 117.5s13.5 103.666 13.5 168.999v591
c0 60.667 -4.16699 114.167 -12.5 160.5s-22.333 85 -42 116s-45.834 54.333 -78.501 70s-73 23.5 -121 23.5h-31v-500h158v-202h-158v-637h31z" />
    <glyph glyph-name="Ntilde" unicode="&#xd1;" horiz-adv-x="1123" 
d="M145 1708l210 -0.00292969l414 -1143h6c-2 26.667 -4.66699 56.334 -8 89.001s-6.33301 69.834 -9 111.501s-5 88.834 -7 141.501s-3 112 -3 178v623h232v-1708h-212l-412 1113h-8c2 -30 4.66699 -62.5 8 -97.5s6.33301 -76.167 9 -123.5s5 -102.5 7 -165.5
s3 -137.833 3 -224.5v-502h-230v1708zM728 1729c-41.333 0 -76.668 5.83301 -106.001 17.5s-58 28.834 -86 51.501c-16 14 -29.5 26.333 -40.5 37s-20.833 19.667 -29.5 27s-17 12.833 -25 16.5s-17 5.5 -27 5.5c-14 0 -24.667 -5.66699 -32 -17s-11 -27 -11 -47v-72h-178
c0 4 -0.333008 9.83301 -1 17.5s-1.16699 15.667 -1.5 24s-0.666016 16.166 -0.999023 23.499s-0.5 12.666 -0.5 15.999c0 44.667 6 82.167 18 112.5s28.167 54.833 48.5 73.5s43.833 31.834 70.5 39.501s54.667 11.5 84 11.5c39.333 0 72.5 -5.66699 99.5 -17
s53.833 -28 80.5 -50l28.5 -27.5c10.333 -10.333 21 -20 32 -29s22 -16.5 33 -22.5s21.833 -9 32.5 -9c14.667 0 26.667 4.66699 36 14s14 24 14 44v78h159c4 -24 6.83301 -44.5 8.5 -61.5s2.5 -31.833 2.5 -44.5c0 -34.667 -5.83301 -65.167 -17.5 -91.5
s-27 -48.5 -46 -66.5s-41.167 -31.5 -66.5 -40.5s-51.333 -13.5 -78 -13.5z" />
    <glyph glyph-name="Ograve" unicode="&#xd2;" horiz-adv-x="1070" 
d="M537 -15c-27.333 0 -57.001 2.16602 -89.001 6.49902s-63.667 13.5 -95 27.5s-61.5 33.833 -90.5 59.5s-54.667 59.5 -77 101.5s-40.166 93.833 -53.499 155.5s-20 135.167 -20 220.5v605c0 86 6.83301 159.5 20.5 220.5s31.834 112.333 54.501 154
s48.5 74.834 77.5 99.501s59.333 43.5 91 56.5s63.167 21.5 94.5 25.5s60.333 6 87 6c25.333 0 53.5 -1.83301 84.5 -5.5s62 -11.667 93 -24s61.167 -30.666 90.5 -54.999s55.333 -57.333 78 -99s40.834 -93.334 54.501 -155.001s20.5 -136.167 20.5 -223.5v-605
c0 -84.667 -7 -157.5 -21 -218.5s-32.333 -112.667 -55 -155s-48.834 -76.333 -78.501 -102s-60 -45.667 -91 -60s-61.833 -23.833 -92.5 -28.5s-58.334 -7 -83.001 -7zM536.999 179.999c25.333 0 47.5 4.33301 66.5 13s34.667 23.667 47 45s21.666 49.5 27.999 84.5
s9.5 79.167 9.5 132.5v777c0 54.667 -3.16699 100.334 -9.5 137.001s-15.666 66.167 -27.999 88.5s-28 38.166 -47 47.499s-41.167 14 -66.5 14c-26 0 -48.667 -4.66699 -68 -14s-35.333 -25.166 -48 -47.499s-22.167 -51.833 -28.5 -88.5s-9.5 -82.334 -9.5 -137.001v-777
c0 -53.333 3.16699 -97.5 9.5 -132.5s15.833 -63.167 28.5 -84.5s28.667 -36.333 48 -45s42 -13 68 -13zM187.999 1899l129 167l321 -216l-105 -117z" />
    <glyph glyph-name="Oacute" unicode="&#xd3;" horiz-adv-x="1070" 
d="M537 -15c-27.333 0 -57.001 2.16602 -89.001 6.49902s-63.667 13.5 -95 27.5s-61.5 33.833 -90.5 59.5s-54.667 59.5 -77 101.5s-40.166 93.833 -53.499 155.5s-20 135.167 -20 220.5v605c0 86 6.83301 159.5 20.5 220.5s31.834 112.333 54.501 154
s48.5 74.834 77.5 99.501s59.333 43.5 91 56.5s63.167 21.5 94.5 25.5s60.333 6 87 6c25.333 0 53.5 -1.83301 84.5 -5.5s62 -11.667 93 -24s61.167 -30.666 90.5 -54.999s55.333 -57.333 78 -99s40.834 -93.334 54.501 -155.001s20.5 -136.167 20.5 -223.5v-605
c0 -84.667 -7 -157.5 -21 -218.5s-32.333 -112.667 -55 -155s-48.834 -76.333 -78.501 -102s-60 -45.667 -91 -60s-61.833 -23.833 -92.5 -28.5s-58.334 -7 -83.001 -7zM536.999 179.999c25.333 0 47.5 4.33301 66.5 13s34.667 23.667 47 45s21.666 49.5 27.999 84.5
s9.5 79.167 9.5 132.5v777c0 54.667 -3.16699 100.334 -9.5 137.001s-15.666 66.167 -27.999 88.5s-28 38.166 -47 47.499s-41.167 14 -66.5 14c-26 0 -48.667 -4.66699 -68 -14s-35.333 -25.166 -48 -47.499s-22.167 -51.833 -28.5 -88.5s-9.5 -82.334 -9.5 -137.001v-777
c0 -53.333 3.16699 -97.5 9.5 -132.5s15.833 -63.167 28.5 -84.5s28.667 -36.333 48 -45s42 -13 68 -13zM426.999 1850l321 216l129 -167l-345 -166z" />
    <glyph glyph-name="Ocircumflex" unicode="&#xd4;" horiz-adv-x="1070" 
d="M537 -15c-27.333 0 -57.001 2.16602 -89.001 6.49902s-63.667 13.5 -95 27.5s-61.5 33.833 -90.5 59.5s-54.667 59.5 -77 101.5s-40.166 93.833 -53.499 155.5s-20 135.167 -20 220.5v605c0 86 6.83301 159.5 20.5 220.5s31.834 112.333 54.501 154
s48.5 74.834 77.5 99.501s59.333 43.5 91 56.5s63.167 21.5 94.5 25.5s60.333 6 87 6c25.333 0 53.5 -1.83301 84.5 -5.5s62 -11.667 93 -24s61.167 -30.666 90.5 -54.999s55.333 -57.333 78 -99s40.834 -93.334 54.501 -155.001s20.5 -136.167 20.5 -223.5v-605
c0 -84.667 -7 -157.5 -21 -218.5s-32.333 -112.667 -55 -155s-48.834 -76.333 -78.501 -102s-60 -45.667 -91 -60s-61.833 -23.833 -92.5 -28.5s-58.334 -7 -83.001 -7zM536.999 179.999c25.333 0 47.5 4.33301 66.5 13s34.667 23.667 47 45s21.666 49.5 27.999 84.5
s9.5 79.167 9.5 132.5v777c0 54.667 -3.16699 100.334 -9.5 137.001s-15.666 66.167 -27.999 88.5s-28 38.166 -47 47.499s-41.167 14 -66.5 14c-26 0 -48.667 -4.66699 -68 -14s-35.333 -25.166 -48 -47.499s-22.167 -51.833 -28.5 -88.5s-9.5 -82.334 -9.5 -137.001v-777
c0 -53.333 3.16699 -97.5 9.5 -132.5s15.833 -63.167 28.5 -84.5s28.667 -36.333 48 -45s42 -13 68 -13zM573.999 1886l-40 56l-40 -56l-84 -130h-248l250 310h234l246 -310h-249z" />
    <glyph glyph-name="Otilde" unicode="&#xd5;" horiz-adv-x="1070" 
d="M537 -15c-27.333 0 -57.001 2.16602 -89.001 6.49902s-63.667 13.5 -95 27.5s-61.5 33.833 -90.5 59.5s-54.667 59.5 -77 101.5s-40.166 93.833 -53.499 155.5s-20 135.167 -20 220.5v605c0 86 6.83301 159.5 20.5 220.5s31.834 112.333 54.501 154
s48.5 74.834 77.5 99.501s59.333 43.5 91 56.5s63.167 21.5 94.5 25.5s60.333 6 87 6c25.333 0 53.5 -1.83301 84.5 -5.5s62 -11.667 93 -24s61.167 -30.666 90.5 -54.999s55.333 -57.333 78 -99s40.834 -93.334 54.501 -155.001s20.5 -136.167 20.5 -223.5v-605
c0 -84.667 -7 -157.5 -21 -218.5s-32.333 -112.667 -55 -155s-48.834 -76.333 -78.501 -102s-60 -45.667 -91 -60s-61.833 -23.833 -92.5 -28.5s-58.334 -7 -83.001 -7zM536.999 179.999c25.333 0 47.5 4.33301 66.5 13s34.667 23.667 47 45s21.666 49.5 27.999 84.5
s9.5 79.167 9.5 132.5v777c0 54.667 -3.16699 100.334 -9.5 137.001s-15.666 66.167 -27.999 88.5s-28 38.166 -47 47.499s-41.167 14 -66.5 14c-26 0 -48.667 -4.66699 -68 -14s-35.333 -25.166 -48 -47.499s-22.167 -51.833 -28.5 -88.5s-9.5 -82.334 -9.5 -137.001v-777
c0 -53.333 3.16699 -97.5 9.5 -132.5s15.833 -63.167 28.5 -84.5s28.667 -36.333 48 -45s42 -13 68 -13zM697.999 1729c-41.333 0 -76.668 5.83301 -106.001 17.5s-58 28.834 -86 51.501c-16 14 -29.5 26.333 -40.5 37s-20.833 19.667 -29.5 27s-17 12.833 -25 16.5
s-17 5.5 -27 5.5c-14 0 -24.667 -5.66699 -32 -17s-11 -27 -11 -47v-72h-178c0 4 -0.333008 9.83301 -1 17.5s-1.16699 15.667 -1.5 24s-0.666016 16.166 -0.999023 23.499s-0.5 12.666 -0.5 15.999c0 44.667 6 82.167 18 112.5s28.167 54.833 48.5 73.5
s43.833 31.834 70.5 39.501s54.667 11.5 84 11.5c39.333 0 72.5 -5.66699 99.5 -17s53.833 -28 80.5 -50l28.5 -27.5c10.333 -10.333 21 -20 32 -29s22 -16.5 33 -22.5s21.833 -9 32.5 -9c14.667 0 26.667 4.66699 36 14s14 24 14 44v78h159c4 -24 6.83301 -44.5 8.5 -61.5
s2.5 -31.833 2.5 -44.5c0 -34.667 -5.83301 -65.167 -17.5 -91.5s-27 -48.5 -46 -66.5s-41.167 -31.5 -66.5 -40.5s-51.333 -13.5 -78 -13.5z" />
    <glyph glyph-name="Odieresis" unicode="&#xd6;" horiz-adv-x="1070" 
d="M537 -15c-27.333 0 -57.001 2.16602 -89.001 6.49902s-63.667 13.5 -95 27.5s-61.5 33.833 -90.5 59.5s-54.667 59.5 -77 101.5s-40.166 93.833 -53.499 155.5s-20 135.167 -20 220.5v605c0 86 6.83301 159.5 20.5 220.5s31.834 112.333 54.501 154
s48.5 74.834 77.5 99.501s59.333 43.5 91 56.5s63.167 21.5 94.5 25.5s60.333 6 87 6c25.333 0 53.5 -1.83301 84.5 -5.5s62 -11.667 93 -24s61.167 -30.666 90.5 -54.999s55.333 -57.333 78 -99s40.834 -93.334 54.501 -155.001s20.5 -136.167 20.5 -223.5v-605
c0 -84.667 -7 -157.5 -21 -218.5s-32.333 -112.667 -55 -155s-48.834 -76.333 -78.501 -102s-60 -45.667 -91 -60s-61.833 -23.833 -92.5 -28.5s-58.334 -7 -83.001 -7zM536.999 179.999c25.333 0 47.5 4.33301 66.5 13s34.667 23.667 47 45s21.666 49.5 27.999 84.5
s9.5 79.167 9.5 132.5v777c0 54.667 -3.16699 100.334 -9.5 137.001s-15.666 66.167 -27.999 88.5s-28 38.166 -47 47.499s-41.167 14 -66.5 14c-26 0 -48.667 -4.66699 -68 -14s-35.333 -25.166 -48 -47.499s-22.167 -51.833 -28.5 -88.5s-9.5 -82.334 -9.5 -137.001v-777
c0 -53.333 3.16699 -97.5 9.5 -132.5s15.833 -63.167 28.5 -84.5s28.667 -36.333 48 -45s42 -13 68 -13zM746.999 1751c-52 0 -87.665 13.833 -106.998 41.5s-29 66.5 -29 116.5c0 26 2.16699 48.833 6.5 68.5s11.666 36 21.999 49s24.166 22.833 41.499 29.5
s39.333 10 66 10c54.667 0 92.667 -12.667 114 -38s32 -65 32 -119c0 -24 -2.5 -45.667 -7.5 -65s-13.167 -36 -24.5 -50s-26.333 -24.667 -45 -32s-41.667 -11 -69 -11zM310.001 1751c-52 0 -87.835 13.833 -107.502 41.5s-29.5 66.5 -29.5 116.5
c0 26 2.16699 48.833 6.5 68.5s11.666 36 21.999 49s24.333 22.833 42 29.5s39.834 10 66.501 10c54.667 0 92.5 -12.667 113.5 -38s31.5 -65 31.5 -119c0 -24 -2.5 -45.667 -7.5 -65s-13.167 -36 -24.5 -50s-26.166 -24.667 -44.499 -32s-41.166 -11 -68.499 -11z" />
    <glyph glyph-name="multiply" unicode="&#xd7;" horiz-adv-x="860" 
d="M66 551l234 239l-234 239l130 132l234 -239l235 239l130 -132l-235 -239l235 -239l-130 -132l-235 238l-234 -238z" />
    <glyph glyph-name="Oslash" unicode="&#xd8;" horiz-adv-x="1039" 
d="M299 -171h-125l561 2049h125zM524 -15c-27.333 0 -57.001 2.16602 -89.001 6.49902s-63.667 13.5 -95 27.5s-61.5 33.833 -90.5 59.5s-54.667 59.5 -77 101.5s-40.166 93.833 -53.499 155.5s-20 135.167 -20 220.5v605c0 86 6.83301 159.5 20.5 220.5
s31.834 112.333 54.501 154s48.5 74.834 77.5 99.501s59.333 43.5 91 56.5s63.167 21.5 94.5 25.5s60.333 6 87 6c25.333 0 53.5 -1.83301 84.5 -5.5s62 -11.667 93 -24s61.167 -30.666 90.5 -54.999s55.333 -57.333 78 -99s40.834 -93.334 54.501 -155.001
s20.5 -136.167 20.5 -223.5v-605c0 -84.667 -7 -157.5 -21 -218.5s-32.333 -112.667 -55 -155s-48.834 -76.333 -78.501 -102s-60 -45.667 -91 -60s-61.833 -23.833 -92.5 -28.5s-58.334 -7 -83.001 -7zM523.999 179.999c25.333 0 47.5 4.33301 66.5 13s34.667 23.667 47 45
s21.666 49.5 27.999 84.5s9.5 79.167 9.5 132.5v777c0 54.667 -3.16699 100.334 -9.5 137.001s-15.666 66.167 -27.999 88.5s-28 38.166 -47 47.499s-41.167 14 -66.5 14c-26 0 -48.667 -4.66699 -68 -14s-35.333 -25.166 -48 -47.499s-22.167 -51.833 -28.5 -88.5
s-9.5 -82.334 -9.5 -137.001v-777c0 -53.333 3.16699 -97.5 9.5 -132.5s15.833 -63.167 28.5 -84.5s28.667 -36.333 48 -45s42 -13 68 -13z" />
    <glyph glyph-name="Ugrave" unicode="&#xd9;" horiz-adv-x="1105" 
d="M144 1708l261.002 -0.000976562v-1252c0 -53.333 2.66699 -97.666 8 -132.999s13.833 -63.5 25.5 -84.5s26.667 -36 45 -45s40.166 -13.5 65.499 -13.5s47.5 4.5 66.5 13.5s34.667 24 47 45s21.666 49.167 27.999 84.5s9.5 79.666 9.5 132.999v1252h258v-1183
c0 -83.333 -6.66699 -154.666 -20 -213.999s-31 -109 -53 -149s-47.167 -71.667 -75.5 -95s-57.666 -41.166 -87.999 -53.499s-60.5 -20.166 -90.5 -23.499s-57.333 -5 -82 -5s-51.834 1.66699 -81.501 5s-59.5 11.166 -89.5 23.499s-59 30.166 -87 53.499s-53 55 -75 95
s-39.5 89.5 -52.5 148.5s-19.5 130.5 -19.5 214.5v1183zM216.002 1899l129 167l321 -216l-105 -117z" />
    <glyph glyph-name="Uacute" unicode="&#xda;" horiz-adv-x="1105" 
d="M144 1708l261.002 -0.000976562v-1252c0 -53.333 2.66699 -97.666 8 -132.999s13.833 -63.5 25.5 -84.5s26.667 -36 45 -45s40.166 -13.5 65.499 -13.5s47.5 4.5 66.5 13.5s34.667 24 47 45s21.666 49.167 27.999 84.5s9.5 79.666 9.5 132.999v1252h258v-1183
c0 -83.333 -6.66699 -154.666 -20 -213.999s-31 -109 -53 -149s-47.167 -71.667 -75.5 -95s-57.666 -41.166 -87.999 -53.499s-60.5 -20.166 -90.5 -23.499s-57.333 -5 -82 -5s-51.834 1.66699 -81.501 5s-59.5 11.166 -89.5 23.499s-59 30.166 -87 53.499s-53 55 -75 95
s-39.5 89.5 -52.5 148.5s-19.5 130.5 -19.5 214.5v1183zM455.002 1850l321 216l129 -167l-345 -166z" />
    <glyph glyph-name="Ucircumflex" unicode="&#xdb;" horiz-adv-x="1105" 
d="M144 1708l261.002 -0.000976562v-1252c0 -53.333 2.66699 -97.666 8 -132.999s13.833 -63.5 25.5 -84.5s26.667 -36 45 -45s40.166 -13.5 65.499 -13.5s47.5 4.5 66.5 13.5s34.667 24 47 45s21.666 49.167 27.999 84.5s9.5 79.666 9.5 132.999v1252h258v-1183
c0 -83.333 -6.66699 -154.666 -20 -213.999s-31 -109 -53 -149s-47.167 -71.667 -75.5 -95s-57.666 -41.166 -87.999 -53.499s-60.5 -20.166 -90.5 -23.499s-57.333 -5 -82 -5s-51.834 1.66699 -81.501 5s-59.5 11.166 -89.5 23.499s-59 30.166 -87 53.499s-53 55 -75 95
s-39.5 89.5 -52.5 148.5s-19.5 130.5 -19.5 214.5v1183zM602.002 1886l-40 56l-40 -56l-84 -130h-248l250 310h234l246 -310h-249z" />
    <glyph glyph-name="Udieresis" unicode="&#xdc;" horiz-adv-x="1105" 
d="M144 1708l261.002 -0.000976562v-1252c0 -53.333 2.66699 -97.666 8 -132.999s13.833 -63.5 25.5 -84.5s26.667 -36 45 -45s40.166 -13.5 65.499 -13.5s47.5 4.5 66.5 13.5s34.667 24 47 45s21.666 49.167 27.999 84.5s9.5 79.666 9.5 132.999v1252h258v-1183
c0 -83.333 -6.66699 -154.666 -20 -213.999s-31 -109 -53 -149s-47.167 -71.667 -75.5 -95s-57.666 -41.166 -87.999 -53.499s-60.5 -20.166 -90.5 -23.499s-57.333 -5 -82 -5s-51.834 1.66699 -81.501 5s-59.5 11.166 -89.5 23.499s-59 30.166 -87 53.499s-53 55 -75 95
s-39.5 89.5 -52.5 148.5s-19.5 130.5 -19.5 214.5v1183zM775.002 1751c-52 0 -87.665 13.833 -106.998 41.5s-29 66.5 -29 116.5c0 26 2.16699 48.833 6.5 68.5s11.666 36 21.999 49s24.166 22.833 41.499 29.5s39.333 10 66 10c54.667 0 92.667 -12.667 114 -38
s32 -65 32 -119c0 -24 -2.5 -45.667 -7.5 -65s-13.167 -36 -24.5 -50s-26.333 -24.667 -45 -32s-41.667 -11 -69 -11zM338.004 1751c-52 0 -87.835 13.833 -107.502 41.5s-29.5 66.5 -29.5 116.5c0 26 2.16699 48.833 6.5 68.5s11.666 36 21.999 49s24.333 22.833 42 29.5
s39.834 10 66.501 10c54.667 0 92.5 -12.667 113.5 -38s31.5 -65 31.5 -119c0 -24 -2.5 -45.667 -7.5 -65s-13.167 -36 -24.5 -50s-26.166 -24.667 -44.499 -32s-41.166 -11 -68.499 -11z" />
    <glyph glyph-name="Yacute" unicode="&#xdd;" horiz-adv-x="959" 
d="M349 569l-344 1139h261l209 -817h12l207 817h260l-346 -1139v-569h-259v569zM375 1850l321 216l129 -167l-345 -166z" />
    <glyph glyph-name="Thorn" unicode="&#xde;" horiz-adv-x="1002" 
d="M146 1708l256.999 -0.000976562v-255h11c32 0 67.167 -1.33301 105.5 -4s76.666 -9.66699 114.999 -21s75.333 -28.166 111 -50.499s67.334 -53 95.001 -92s49.834 -87.833 66.501 -146.5s25 -130 25 -214v-61c0 -91.333 -7.83301 -169.5 -23.5 -234.5
s-36.5 -119.667 -62.5 -164s-56.167 -79.833 -90.5 -106.5s-70 -47 -107 -61s-74.333 -23.167 -112 -27.5s-73.167 -6.5 -106.5 -6.5h-25v-264h-259v1708zM417.999 454.999c46.667 0 86 6.83203 118 20.499s57.5 35 76.5 64s32.667 66.333 41 112s12.5 100.834 12.5 165.501
v153c0 50.667 -3.66699 94.5 -11 131.5s-20.5 67.667 -39.5 92s-44.5 42.333 -76.5 54s-72.333 17.5 -121 17.5h-13v-810h13z" />
    <glyph glyph-name="germandbls" unicode="&#xdf;" horiz-adv-x="1036" 
d="M134 1408c0 70.667 9.33203 132.332 27.999 184.999s45.5 96.334 80.5 131.001s77 60.667 126 78s104.167 26 165.5 26c67.333 0 125.5 -8.83301 174.5 -26.5s89.5 -42.167 121.5 -73.5s55.667 -68.666 71 -111.999s23 -90.666 23 -141.999c0 -28 -2 -55.167 -6 -81.5
s-10.167 -53 -18.5 -80s-18.666 -55 -30.999 -84s-26.833 -60.5 -43.5 -94.5c-16 -26 -28.833 -48.5 -38.5 -67.5s-17 -35.667 -22 -50s-8.33301 -26.833 -10 -37.5s-2.5 -21 -2.5 -31c0 -23.333 4.16699 -46.833 12.5 -70.5s20.5 -52.834 36.5 -87.501l92 -197l31 -85.5
c9.33301 -25.667 17.166 -50.167 23.499 -73.5s11.166 -46 14.499 -68s5 -45 5 -69c0 -40 -5 -79 -15 -117s-25.667 -71.833 -47 -101.5s-49.166 -53.334 -83.499 -71.001s-75.5 -26.5 -123.5 -26.5c-30.667 0 -58.667 2.66699 -84 8s-49.333 12.666 -72 21.999v176
c7.33301 -2 13.5 -3.33301 18.5 -4l14.5 -2c4.66699 -0.666992 9.33398 -1 14.001 -1h18c12 0 24.167 1.83301 36.5 5.5s23.333 10 33 19s17.667 21 24 36s9.5 33.5 9.5 55.5c0 34 -6 68.5 -18 103.5s-26.667 71.5 -44 109.5l-72 161
c-18.667 41.333 -34.334 80.666 -47.001 117.999s-19 77 -19 119c0 18 1.5 35.333 4.5 52s8 34 15 52s16.167 37.333 27.5 58s25 44.334 41 71.001c20 34 35.833 64.333 47.5 91s20.5 51.5 26.5 74.5s9.83301 45 11.5 66s2.5 42.5 2.5 64.5
c0 27.333 -3.33301 52.833 -10 76.5s-16.667 44.167 -30 61.5s-29.666 30.833 -48.999 40.5s-42 14.5 -68 14.5c-20 0 -38.5 -2.5 -55.5 -7.5s-32 -13.167 -45 -24.5s-23.167 -26.166 -30.5 -44.499s-11 -40.833 -11 -67.5v-1928h-253v1851z" />
    <glyph glyph-name="agrave" unicode="&#xe0;" horiz-adv-x="924" 
d="M334 -15c-42.667 0 -80.499 8.50195 -113.499 25.502s-60.833 40.167 -83.5 69.5s-39.834 64.166 -51.501 104.499s-17.5 84.166 -17.5 131.499c0 56.667 7 107 21 151s34.5 83.667 61.5 119s60.5 67.5 100.5 96.5s86.333 56.5 139 82.5
c25.333 12.667 53.833 25.5 85.5 38.5l84.5 33.5v182c0 26.667 -1 51.5 -3 74.5s-6.83301 43 -14.5 60s-19.167 30.333 -34.5 40s-36.333 14.5 -63 14.5c-18 0 -35.5 -3.33301 -52.5 -10s-32 -18 -45 -34s-23.333 -37.333 -31 -64s-11.5 -59.667 -11.5 -99v-60h-193
c-6 26 -10.5 49.833 -13.5 71.5s-4.5 43.167 -4.5 64.5c0 51.333 8.83301 96.666 26.5 135.999s42.334 72.333 74.001 99s69.5 46.834 113.5 60.501s92.333 20.5 145 20.5c68.667 0 125.667 -7.5 171 -22.5s81.5 -37.5 108.5 -67.5s46 -67.667 57 -113
s16.5 -98.333 16.5 -159v-1031h-188l-18 118c-27.333 -39.333 -63.833 -71.333 -109.5 -96s-97.834 -37 -156.501 -37zM446.001 180.002c21.333 0 42.167 5.49902 62.5 16.499s37.5 24.5 51.5 40.5v431c-13.333 -5.33301 -28.333 -11.666 -45 -18.999s-34.667 -17 -54 -29
c-18 -11.333 -35.667 -25 -53 -41s-32.833 -35 -46.5 -57s-24.667 -46.833 -33 -74.5s-12.5 -58.5 -12.5 -92.5c0 -52.667 10.333 -95 31 -127s53.667 -48 99 -48zM89.002 1846l169 137l290 -416l-125 -105z" />
    <glyph glyph-name="aacute" unicode="&#xe1;" horiz-adv-x="924" 
d="M334 -15c-42.667 0 -80.499 8.50195 -113.499 25.502s-60.833 40.167 -83.5 69.5s-39.834 64.166 -51.501 104.499s-17.5 84.166 -17.5 131.499c0 56.667 7 107 21 151s34.5 83.667 61.5 119s60.5 67.5 100.5 96.5s86.333 56.5 139 82.5
c25.333 12.667 53.833 25.5 85.5 38.5l84.5 33.5v182c0 26.667 -1 51.5 -3 74.5s-6.83301 43 -14.5 60s-19.167 30.333 -34.5 40s-36.333 14.5 -63 14.5c-18 0 -35.5 -3.33301 -52.5 -10s-32 -18 -45 -34s-23.333 -37.333 -31 -64s-11.5 -59.667 -11.5 -99v-60h-193
c-6 26 -10.5 49.833 -13.5 71.5s-4.5 43.167 -4.5 64.5c0 51.333 8.83301 96.666 26.5 135.999s42.334 72.333 74.001 99s69.5 46.834 113.5 60.501s92.333 20.5 145 20.5c68.667 0 125.667 -7.5 171 -22.5s81.5 -37.5 108.5 -67.5s46 -67.667 57 -113
s16.5 -98.333 16.5 -159v-1031h-188l-18 118c-27.333 -39.333 -63.833 -71.333 -109.5 -96s-97.834 -37 -156.501 -37zM446.001 180.002c21.333 0 42.167 5.49902 62.5 16.499s37.5 24.5 51.5 40.5v431c-13.333 -5.33301 -28.333 -11.666 -45 -18.999s-34.667 -17 -54 -29
c-18 -11.333 -35.667 -25 -53 -41s-32.833 -35 -46.5 -57s-24.667 -46.833 -33 -74.5s-12.5 -58.5 -12.5 -92.5c0 -52.667 10.333 -95 31 -127s53.667 -48 99 -48zM297.002 1567l290 416l169 -137l-334 -384z" />
    <glyph glyph-name="acircumflex" unicode="&#xe2;" horiz-adv-x="924" 
d="M334 -15c-42.667 0 -80.499 8.50195 -113.499 25.502s-60.833 40.167 -83.5 69.5s-39.834 64.166 -51.501 104.499s-17.5 84.166 -17.5 131.499c0 56.667 7 107 21 151s34.5 83.667 61.5 119s60.5 67.5 100.5 96.5s86.333 56.5 139 82.5
c25.333 12.667 53.833 25.5 85.5 38.5l84.5 33.5v182c0 26.667 -1 51.5 -3 74.5s-6.83301 43 -14.5 60s-19.167 30.333 -34.5 40s-36.333 14.5 -63 14.5c-18 0 -35.5 -3.33301 -52.5 -10s-32 -18 -45 -34s-23.333 -37.333 -31 -64s-11.5 -59.667 -11.5 -99v-60h-193
c-6 26 -10.5 49.833 -13.5 71.5s-4.5 43.167 -4.5 64.5c0 51.333 8.83301 96.666 26.5 135.999s42.334 72.333 74.001 99s69.5 46.834 113.5 60.501s92.333 20.5 145 20.5c68.667 0 125.667 -7.5 171 -22.5s81.5 -37.5 108.5 -67.5s46 -67.667 57 -113
s16.5 -98.333 16.5 -159v-1031h-188l-18 118c-27.333 -39.333 -63.833 -71.333 -109.5 -96s-97.834 -37 -156.501 -37zM446.001 180.002c21.333 0 42.167 5.49902 62.5 16.499s37.5 24.5 51.5 40.5v431c-13.333 -5.33301 -28.333 -11.666 -45 -18.999s-34.667 -17 -54 -29
c-18 -11.333 -35.667 -25 -53 -41s-32.833 -35 -46.5 -57s-24.667 -46.833 -33 -74.5s-12.5 -58.5 -12.5 -92.5c0 -52.667 10.333 -95 31 -127s53.667 -48 99 -48zM476.002 1697l-51 172l-50 -172l-94 -212h-218l270 581h174l276 -581h-219z" />
    <glyph glyph-name="atilde" unicode="&#xe3;" horiz-adv-x="924" 
d="M334 -15c-42.667 0 -80.499 8.50195 -113.499 25.502s-60.833 40.167 -83.5 69.5s-39.834 64.166 -51.501 104.499s-17.5 84.166 -17.5 131.499c0 56.667 7 107 21 151s34.5 83.667 61.5 119s60.5 67.5 100.5 96.5s86.333 56.5 139 82.5
c25.333 12.667 53.833 25.5 85.5 38.5l84.5 33.5v182c0 26.667 -1 51.5 -3 74.5s-6.83301 43 -14.5 60s-19.167 30.333 -34.5 40s-36.333 14.5 -63 14.5c-18 0 -35.5 -3.33301 -52.5 -10s-32 -18 -45 -34s-23.333 -37.333 -31 -64s-11.5 -59.667 -11.5 -99v-60h-193
c-6 26 -10.5 49.833 -13.5 71.5s-4.5 43.167 -4.5 64.5c0 51.333 8.83301 96.666 26.5 135.999s42.334 72.333 74.001 99s69.5 46.834 113.5 60.501s92.333 20.5 145 20.5c68.667 0 125.667 -7.5 171 -22.5s81.5 -37.5 108.5 -67.5s46 -67.667 57 -113
s16.5 -98.333 16.5 -159v-1031h-188l-18 118c-27.333 -39.333 -63.833 -71.333 -109.5 -96s-97.834 -37 -156.501 -37zM446.001 180.002c21.333 0 42.167 5.49902 62.5 16.499s37.5 24.5 51.5 40.5v431c-13.333 -5.33301 -28.333 -11.666 -45 -18.999s-34.667 -17 -54 -29
c-18 -11.333 -35.667 -25 -53 -41s-32.833 -35 -46.5 -57s-24.667 -46.833 -33 -74.5s-12.5 -58.5 -12.5 -92.5c0 -52.667 10.333 -95 31 -127s53.667 -48 99 -48zM589.002 1587c-41.333 0 -76.667 6.66602 -106 19.999s-58 32.666 -86 57.999c-16 14 -29.5 26.333 -40.5 37
s-20.833 19.667 -29.5 27s-17 12.833 -25 16.5s-17 5.5 -27 5.5c-14 0 -24.667 -5.66699 -32 -17s-11 -27 -11 -47v-72h-178c0 4 -0.333008 9.83301 -1 17.5s-1.16699 15.667 -1.5 24l-1 24c-0.333008 7.66699 -0.5 13.167 -0.5 16.5c0 46.667 6 85.834 18 117.501
s28.167 57 48.5 76s43.833 32.5 70.5 40.5s54.667 12 84 12c39.333 0 72.5 -6.5 99.5 -19.5s53.833 -32.167 80.5 -57.5l28.5 -27.5c10.333 -10.333 21 -20 32 -29s22 -16.5 33 -22.5s21.833 -9 32.5 -9c14.667 0 26.667 4.66699 36 14s14 24.333 14 45v87h159
c4 -23.333 6.83301 -43.666 8.5 -60.999s2.5 -32.333 2.5 -45c0 -38 -5.83301 -71.5 -17.5 -100.5s-27 -53.167 -46 -72.5s-41.167 -33.833 -66.5 -43.5s-51.333 -14.5 -78 -14.5z" />
    <glyph glyph-name="adieresis" unicode="&#xe4;" horiz-adv-x="924" 
d="M334 -15c-42.667 0 -80.499 8.50195 -113.499 25.502s-60.833 40.167 -83.5 69.5s-39.834 64.166 -51.501 104.499s-17.5 84.166 -17.5 131.499c0 56.667 7 107 21 151s34.5 83.667 61.5 119s60.5 67.5 100.5 96.5s86.333 56.5 139 82.5
c25.333 12.667 53.833 25.5 85.5 38.5l84.5 33.5v182c0 26.667 -1 51.5 -3 74.5s-6.83301 43 -14.5 60s-19.167 30.333 -34.5 40s-36.333 14.5 -63 14.5c-18 0 -35.5 -3.33301 -52.5 -10s-32 -18 -45 -34s-23.333 -37.333 -31 -64s-11.5 -59.667 -11.5 -99v-60h-193
c-6 26 -10.5 49.833 -13.5 71.5s-4.5 43.167 -4.5 64.5c0 51.333 8.83301 96.666 26.5 135.999s42.334 72.333 74.001 99s69.5 46.834 113.5 60.501s92.333 20.5 145 20.5c68.667 0 125.667 -7.5 171 -22.5s81.5 -37.5 108.5 -67.5s46 -67.667 57 -113
s16.5 -98.333 16.5 -159v-1031h-188l-18 118c-27.333 -39.333 -63.833 -71.333 -109.5 -96s-97.834 -37 -156.501 -37zM446.001 180.002c21.333 0 42.167 5.49902 62.5 16.499s37.5 24.5 51.5 40.5v431c-13.333 -5.33301 -28.333 -11.666 -45 -18.999s-34.667 -17 -54 -29
c-18 -11.333 -35.667 -25 -53 -41s-32.833 -35 -46.5 -57s-24.667 -46.833 -33 -74.5s-12.5 -58.5 -12.5 -92.5c0 -52.667 10.333 -95 31 -127s53.667 -48 99 -48zM638.002 1566c-52 0 -87.665 13.501 -106.998 40.501s-29 67.5 -29 121.5c0 28.667 2.16699 53.667 6.5 75
s11.666 39.166 21.999 53.499s24.166 25 41.499 32s39.333 10.5 66 10.5c54.667 0 92.667 -13.833 114 -41.5s32 -70.834 32 -129.501c0 -51.333 -10.667 -91.166 -32 -119.499s-59.333 -42.5 -114 -42.5zM201.004 1566c-52 0 -87.833 13.501 -107.5 40.501
s-29.5 67.5 -29.5 121.5c0 28.667 2.16699 53.667 6.5 75s11.666 39.166 21.999 53.499s24.333 25 42 32s39.834 10.5 66.501 10.5c54.667 0 92.5 -13.833 113.5 -41.5s31.5 -70.834 31.5 -129.501c0 -51.333 -10.5 -91.166 -31.5 -119.499s-58.833 -42.5 -113.5 -42.5z" />
    <glyph glyph-name="aring" unicode="&#xe5;" horiz-adv-x="924" 
d="M334 -15c-42.667 0 -80.499 8.50195 -113.499 25.502s-60.833 40.167 -83.5 69.5s-39.834 64.166 -51.501 104.499s-17.5 84.166 -17.5 131.499c0 56.667 7 107 21 151s34.5 83.667 61.5 119s60.5 67.5 100.5 96.5s86.333 56.5 139 82.5
c25.333 12.667 53.833 25.5 85.5 38.5l84.5 33.5v182c0 26.667 -1 51.5 -3 74.5s-6.83301 43 -14.5 60s-19.167 30.333 -34.5 40s-36.333 14.5 -63 14.5c-18 0 -35.5 -3.33301 -52.5 -10s-32 -18 -45 -34s-23.333 -37.333 -31 -64s-11.5 -59.667 -11.5 -99v-60h-193
c-6 26 -10.5 49.833 -13.5 71.5s-4.5 43.167 -4.5 64.5c0 51.333 8.83301 96.666 26.5 135.999s42.334 72.333 74.001 99s69.5 46.834 113.5 60.501s92.333 20.5 145 20.5c68.667 0 125.667 -7.5 171 -22.5s81.5 -37.5 108.5 -67.5s46 -67.667 57 -113
s16.5 -98.333 16.5 -159v-1031h-188l-18 118c-27.333 -39.333 -63.833 -71.333 -109.5 -96s-97.834 -37 -156.501 -37zM446.001 180.002c21.333 0 42.167 5.49902 62.5 16.499s37.5 24.5 51.5 40.5v431c-13.333 -5.33301 -28.333 -11.666 -45 -18.999s-34.667 -17 -54 -29
c-18 -11.333 -35.667 -25 -53 -41s-32.833 -35 -46.5 -57s-24.667 -46.833 -33 -74.5s-12.5 -58.5 -12.5 -92.5c0 -52.667 10.333 -95 31 -127s53.667 -48 99 -48zM423.002 1451c-53.333 0 -99.668 8.66699 -139.001 26s-72 40.166 -98 68.499s-45.333 60.833 -58 97.5
s-19 74.667 -19 114c0 40 6.16699 78.667 18.5 116s31.333 70.166 57 98.499s58.334 51 98.001 68s86.5 25.5 140.5 25.5c54.667 0 102.167 -8.33301 142.5 -25s74 -39.167 101 -67.5s47.167 -61.166 60.5 -98.499s20 -76.333 20 -117
c0 -37.333 -6.66699 -74.166 -20 -110.499s-33.5 -69 -60.5 -98s-60.667 -52.5 -101 -70.5s-87.833 -27 -142.5 -27zM422 1614c26.667 0 49.834 4.16602 69.501 12.499s36 19 49 32s22.833 27.833 29.5 44.5s10 33.334 10 50.001c0 20.667 -3.33301 40 -10 58
s-16.5 33.667 -29.5 47s-29.333 24 -49 32s-42.834 12 -69.501 12c-24 0 -44.667 -4 -62 -12s-31.833 -18.833 -43.5 -32.5s-20.167 -29.5 -25.5 -47.5s-8 -37 -8 -57c0 -17.333 2.83301 -34.333 8.5 -51s14.167 -31.5 25.5 -44.5s25.833 -23.5 43.5 -31.5
s38.167 -12 61.5 -12z" />
    <glyph glyph-name="ae" unicode="&#xe6;" horiz-adv-x="1349" 
d="M42 314c0 56 6.83398 106.003 20.501 150.003s33.834 83.667 60.501 119s59.834 67.333 99.501 96s85.834 56 138.501 82c25.333 12.667 52.666 25.5 81.999 38.5s56.333 24.167 81 33.5v177c0 25.333 -0.666992 50 -2 74s-5.33301 45.167 -12 63.5
s-17.334 33 -32.001 44s-35.334 16.5 -62.001 16.5c-18 0 -35.5 -3.33301 -52.5 -10s-32 -18 -45 -34s-23.333 -37.167 -31 -63.5s-11.5 -59.166 -11.5 -98.499v-66h-193c-6 26 -10.5 49.833 -13.5 71.5s-4.5 43.167 -4.5 64.5c0 50.667 8.83301 95.5 26.5 134.5
s42.334 71.833 74.001 98.5s69.5 46.667 113.5 60s92.333 20 145 20c32 0 60.833 -3 86.5 -9s49 -14 70 -24s39.667 -21.833 56 -35.5s30.833 -28.167 43.5 -43.5h8c18 21.333 37.167 39.166 57.5 53.499s41.333 26 63 35s43 15.333 64 19s41.167 5.5 60.5 5.5
c41.333 0 81.666 -6.83301 120.999 -20.5s74.166 -36.834 104.499 -69.501s54.666 -76.5 72.999 -131.5s27.5 -123.833 27.5 -206.5c0 -55.333 -3.16699 -111.5 -9.5 -168.5s-14.5 -107.5 -24.5 -151.5h-448v-139c0 -60 2.16699 -110.667 6.5 -152s12 -75 23 -101
s26 -44.833 45 -56.5s42.833 -17.5 71.5 -17.5c15.333 0 30.333 3.16699 45 9.5s27.834 16.666 39.501 30.999s21 33.666 28 57.999s10.5 54.5 10.5 90.5v50h205v-53c0 -129.333 -28.667 -224 -86 -284s-140.666 -90 -249.999 -90c-63.333 0 -118.5 14.333 -165.5 43
s-84.833 70 -113.5 124h-8c-34 -52.667 -76.5 -93.667 -127.5 -123s-104.833 -44 -161.5 -44c-53.333 0 -98.833 8.83301 -136.5 26.5s-68.334 41.667 -92.001 72s-41 65.5 -52 105.5s-16.5 82 -16.5 126zM1024 807.003c0.666992 7.33301 1.33301 17.334 2 30.001
s1.16699 26.167 1.5 40.5s0.5 28.166 0.5 41.499v34c0 90.667 -9.66699 155.667 -29 195s-50 59.333 -92 60c-22 0 -41.167 -5.16699 -57.5 -15.5s-29.833 -27.666 -40.5 -51.999s-18.667 -56.333 -24 -96s-8 -88.834 -8 -147.501v-90h247zM287 353.004
c0 -52 10.3311 -94.501 30.998 -127.501s53.667 -49.5 99 -49.5c21.333 0 41 5.5 59 16.5s34 24.5 48 40.5v432c-13.333 -5.33301 -27.166 -11.666 -41.499 -18.999s-31.166 -17 -50.499 -29c-18 -11.333 -35.667 -25 -53 -41s-32.833 -35 -46.5 -57
s-24.667 -46.667 -33 -74s-12.5 -58 -12.5 -92z" />
    <glyph glyph-name="ccedilla" unicode="&#xe7;" horiz-adv-x="871" 
d="M451 -15c-116 0 -204.503 47.6689 -265.503 143.002s-91.5 240.666 -91.5 435.999v260c0 87.333 6.33301 162.166 19 224.499s29.5 114.666 50.5 156.999s45 75.833 72 100.5s54.833 43.5 83.5 56.5s57 21.333 85 25s53.667 5.5 77 5.5
c46.667 0 89.334 -6.16699 128.001 -18.5s72 -31 100 -56s49.667 -56.5 65 -94.5s23 -82.667 23 -134c0 -32 -1.5 -59.5 -4.5 -82.5s-7.16699 -45.167 -12.5 -66.5h-202v46c0 69.333 -8.16699 123.5 -24.5 162.5s-43.166 58.5 -80.499 58.5
c-20.667 0 -38.667 -4.83301 -54 -14.5s-28.166 -26.167 -38.499 -49.5s-18 -54.666 -23 -93.999s-7.5 -88.666 -7.5 -147.999v-391c0 -60 2 -111 6 -153s11 -76.167 21 -102.5s23.333 -45.5 40 -57.5s37.334 -18 62.001 -18c12.667 0 25 3.16699 37 9.5
s22.5 16.833 31.5 31.5s16.333 34.167 22 58.5s8.5 54.5 8.5 90.5v43h218v-53c0 -130.667 -28.833 -225.834 -86.5 -285.501s-143.834 -89.5 -258.501 -89.5zM548.997 -98.998c2.66699 -47.333 0.831055 -88.001 -5.50195 -122.001s-15.666 -62.667 -27.999 -86
s-26.666 -42 -42.999 -56s-32.833 -24.833 -49.5 -32.5s-32.667 -12.667 -48 -15s-28.333 -3.5 -39 -3.5c-28 0 -53.167 2.33301 -75.5 7s-47.5 12.334 -75.5 23.001l7 151c5.33301 -0.666992 10.833 -1 16.5 -1h16.5c22.667 0 43 2.33301 61 7s33.667 13.5 47 26.5
s23.833 31.5 31.5 55.5s12.5 55.333 14.5 94l2 44l93 148l69 -137z" />
    <glyph glyph-name="egrave" unicode="&#xe8;" horiz-adv-x="924" 
d="M468 -15c-59.333 0 -111.832 11.0039 -157.499 33.0039s-84.167 56.333 -115.5 103s-55 106.5 -71 179.5s-24 160.833 -24 263.5v260c0 87.333 6.5 162.166 19.5 224.499s30 114.666 51 156.999s45.333 75.833 73 100.5s56.167 43.5 85.5 56.5s58.5 21.333 87.5 25
s55.833 5.5 80.5 5.5c45.333 0 89 -6.83301 131 -20.5s79 -37 111 -70s57.5 -77.167 76.5 -132.5s28.5 -124.333 28.5 -207c0 -28 -0.833008 -56.333 -2.5 -85s-3.83398 -56.834 -6.50098 -84.501s-6.16699 -54.5 -10.5 -80.5s-8.83301 -50 -13.5 -72h-457v-140
c0 -60 2.33301 -110.5 7 -151.5s12.5 -74 23.5 -99s26 -43 45 -54s42.833 -16.5 71.5 -16.5c15.333 0 30.333 3.16699 45 9.5s27.5 16.833 38.5 31.5s19.833 34.167 26.5 58.5s10 54.5 10 90.5v43h211v-53c0 -130.667 -31.167 -225.834 -93.5 -285.501
s-152.5 -89.5 -270.5 -89.5zM608.001 811.004c0.666992 7.33301 1.33398 17.167 2.00098 29.5s1.16699 25.166 1.5 38.499s0.5 26.5 0.5 39.5v33.5c0 90.667 -10.667 156 -32 196s-53 60 -95 60c-22 0 -41.333 -5.16699 -58 -15.5s-30.334 -27.666 -41.001 -51.999
s-18.667 -56.5 -24 -96.5s-8 -89.667 -8 -149v-84h254zM152.001 1846l169 137l290 -416l-125 -105z" />
    <glyph glyph-name="eacute" unicode="&#xe9;" horiz-adv-x="924" 
d="M468 -15c-59.333 0 -111.832 11.0039 -157.499 33.0039s-84.167 56.333 -115.5 103s-55 106.5 -71 179.5s-24 160.833 -24 263.5v260c0 87.333 6.5 162.166 19.5 224.499s30 114.666 51 156.999s45.333 75.833 73 100.5s56.167 43.5 85.5 56.5s58.5 21.333 87.5 25
s55.833 5.5 80.5 5.5c45.333 0 89 -6.83301 131 -20.5s79 -37 111 -70s57.5 -77.167 76.5 -132.5s28.5 -124.333 28.5 -207c0 -28 -0.833008 -56.333 -2.5 -85s-3.83398 -56.834 -6.50098 -84.501s-6.16699 -54.5 -10.5 -80.5s-8.83301 -50 -13.5 -72h-457v-140
c0 -60 2.33301 -110.5 7 -151.5s12.5 -74 23.5 -99s26 -43 45 -54s42.833 -16.5 71.5 -16.5c15.333 0 30.333 3.16699 45 9.5s27.5 16.833 38.5 31.5s19.833 34.167 26.5 58.5s10 54.5 10 90.5v43h211v-53c0 -130.667 -31.167 -225.834 -93.5 -285.501
s-152.5 -89.5 -270.5 -89.5zM608.001 811.004c0.666992 7.33301 1.33398 17.167 2.00098 29.5s1.16699 25.166 1.5 38.499s0.5 26.5 0.5 39.5v33.5c0 90.667 -10.667 156 -32 196s-53 60 -95 60c-22 0 -41.333 -5.16699 -58 -15.5s-30.334 -27.666 -41.001 -51.999
s-18.667 -56.5 -24 -96.5s-8 -89.667 -8 -149v-84h254zM361.001 1567l290 416l169 -137l-334 -384z" />
    <glyph glyph-name="ecircumflex" unicode="&#xea;" horiz-adv-x="924" 
d="M468 -15c-59.333 0 -111.832 11.0039 -157.499 33.0039s-84.167 56.333 -115.5 103s-55 106.5 -71 179.5s-24 160.833 -24 263.5v260c0 87.333 6.5 162.166 19.5 224.499s30 114.666 51 156.999s45.333 75.833 73 100.5s56.167 43.5 85.5 56.5s58.5 21.333 87.5 25
s55.833 5.5 80.5 5.5c45.333 0 89 -6.83301 131 -20.5s79 -37 111 -70s57.5 -77.167 76.5 -132.5s28.5 -124.333 28.5 -207c0 -28 -0.833008 -56.333 -2.5 -85s-3.83398 -56.834 -6.50098 -84.501s-6.16699 -54.5 -10.5 -80.5s-8.83301 -50 -13.5 -72h-457v-140
c0 -60 2.33301 -110.5 7 -151.5s12.5 -74 23.5 -99s26 -43 45 -54s42.833 -16.5 71.5 -16.5c15.333 0 30.333 3.16699 45 9.5s27.5 16.833 38.5 31.5s19.833 34.167 26.5 58.5s10 54.5 10 90.5v43h211v-53c0 -130.667 -31.167 -225.834 -93.5 -285.501
s-152.5 -89.5 -270.5 -89.5zM608.001 811.004c0.666992 7.33301 1.33398 17.167 2.00098 29.5s1.16699 25.166 1.5 38.499s0.5 26.5 0.5 39.5v33.5c0 90.667 -10.667 156 -32 196s-53 60 -95 60c-22 0 -41.333 -5.16699 -58 -15.5s-30.334 -27.666 -41.001 -51.999
s-18.667 -56.5 -24 -96.5s-8 -89.667 -8 -149v-84h254zM539.001 1697l-51 172l-50 -172l-94 -212h-218l270 581h174l276 -581h-219z" />
    <glyph glyph-name="edieresis" unicode="&#xeb;" horiz-adv-x="924" 
d="M468 -15c-59.333 0 -111.832 11.0039 -157.499 33.0039s-84.167 56.333 -115.5 103s-55 106.5 -71 179.5s-24 160.833 -24 263.5v260c0 87.333 6.5 162.166 19.5 224.499s30 114.666 51 156.999s45.333 75.833 73 100.5s56.167 43.5 85.5 56.5s58.5 21.333 87.5 25
s55.833 5.5 80.5 5.5c45.333 0 89 -6.83301 131 -20.5s79 -37 111 -70s57.5 -77.167 76.5 -132.5s28.5 -124.333 28.5 -207c0 -28 -0.833008 -56.333 -2.5 -85s-3.83398 -56.834 -6.50098 -84.501s-6.16699 -54.5 -10.5 -80.5s-8.83301 -50 -13.5 -72h-457v-140
c0 -60 2.33301 -110.5 7 -151.5s12.5 -74 23.5 -99s26 -43 45 -54s42.833 -16.5 71.5 -16.5c15.333 0 30.333 3.16699 45 9.5s27.5 16.833 38.5 31.5s19.833 34.167 26.5 58.5s10 54.5 10 90.5v43h211v-53c0 -130.667 -31.167 -225.834 -93.5 -285.501
s-152.5 -89.5 -270.5 -89.5zM608.001 811.004c0.666992 7.33301 1.33398 17.167 2.00098 29.5s1.16699 25.166 1.5 38.499s0.5 26.5 0.5 39.5v33.5c0 90.667 -10.667 156 -32 196s-53 60 -95 60c-22 0 -41.333 -5.16699 -58 -15.5s-30.334 -27.666 -41.001 -51.999
s-18.667 -56.5 -24 -96.5s-8 -89.667 -8 -149v-84h254zM701.001 1566c-52 0 -87.665 13.501 -106.998 40.501s-29 67.5 -29 121.5c0 28.667 2.16699 53.667 6.5 75s11.666 39.166 21.999 53.499s24.166 25 41.499 32s39.333 10.5 66 10.5c54.667 0 92.667 -13.833 114 -41.5
s32 -70.834 32 -129.501c0 -51.333 -10.667 -91.166 -32 -119.499s-59.333 -42.5 -114 -42.5zM264.003 1566.01c-52 0 -87.833 13.501 -107.5 40.501s-29.5 67.5 -29.5 121.5c0 28.667 2.16699 53.667 6.5 75s11.666 39.166 21.999 53.499s24.333 25 42 32
s39.834 10.5 66.501 10.5c54.667 0 92.5 -13.833 113.5 -41.5s31.5 -70.834 31.5 -129.501c0 -51.333 -10.5 -91.166 -31.5 -119.499s-58.833 -42.5 -113.5 -42.5z" />
    <glyph glyph-name="igrave" unicode="&#xec;" horiz-adv-x="521" 
d="M134 1377h253v-1377h-253v1377zM-72 1846l169 137l290 -416l-125 -105z" />
    <glyph glyph-name="iacute" unicode="&#xed;" horiz-adv-x="521" 
d="M134 1377h253v-1377h-253v1377zM136 1567l290 416l169 -137l-334 -384z" />
    <glyph glyph-name="icircumflex" unicode="&#xee;" horiz-adv-x="521" 
d="M134 1377h253v-1377h-253v1377zM315 1697l-51 172l-50 -172l-94 -212h-218l270 581h174l276 -581h-219z" />
    <glyph glyph-name="idieresis" unicode="&#xef;" horiz-adv-x="521" 
d="M134 1377h253v-1377h-253v1377zM477 1566c-52 0 -87.665 13.501 -106.998 40.501s-29 67.5 -29 121.5c0 28.667 2.16699 53.667 6.5 75s11.666 39.166 21.999 53.499s24.166 25 41.499 32s39.333 10.5 66 10.5c54.667 0 92.667 -13.833 114 -41.5s32 -70.834 32 -129.501
c0 -51.333 -10.667 -91.166 -32 -119.499s-59.333 -42.5 -114 -42.5zM40.002 1566c-52 0 -87.833 13.501 -107.5 40.501s-29.5 67.5 -29.5 121.5c0 28.667 2.16699 53.667 6.5 75s11.666 39.166 21.999 53.499s24.333 25 42 32s39.834 10.5 66.501 10.5
c54.667 0 92.5 -13.833 113.5 -41.5s31.5 -70.834 31.5 -129.501c0 -51.333 -10.5 -91.166 -31.5 -119.499s-58.833 -42.5 -113.5 -42.5z" />
    <glyph glyph-name="eth" unicode="&#xf0;" horiz-adv-x="970" 
d="M489 -15c-29.333 0 -59.4951 2.16406 -90.4951 6.49707s-61.167 13.666 -90.5 27.999s-56.833 35 -82.5 62s-48.334 63.167 -68.001 108.5s-35.167 101.166 -46.5 167.499s-17 146.166 -17 239.499v198c0 91.333 6.33301 169.166 19 233.499s29 118 49 161
s42.833 77 68.5 102s51.667 43.833 78 56.5s51.5 20.667 75.5 24s45 5 63 5c8.66699 0 19.167 -0.166992 31.5 -0.5s24.166 -1 35.499 -2s21.666 -2.16699 30.999 -3.5s15.333 -2.66602 18 -3.99902c-13.333 52 -32.333 100.333 -57 145s-51.334 84.667 -80.001 120
l-103 -123l-127 106l103 128c-27.333 15.333 -55.833 27.333 -85.5 36s-60.834 13.334 -93.501 14.001v166c54 0 105.333 -6.66699 154 -20s94.334 -32.333 137.001 -57l111 138l132 -116l-107 -127c53.333 -53.333 100.333 -116.166 141 -188.499
s74.667 -151.166 102 -236.499s48 -175.666 62 -270.999s21 -192.666 21 -291.999v-192c0 -91.333 -5.83301 -170 -17.5 -236s-27.334 -121.667 -47.001 -167s-42.334 -81.666 -68.001 -108.999s-52.667 -48.5 -81 -63.5s-57.166 -24.833 -86.499 -29.5s-57.333 -7 -84 -7z
M491.005 179.997c24.667 0 44.668 5.83398 60.001 17.501s27.166 31 35.499 58s13.833 62 16.5 105s4 96.167 4 159.5v638c-9.33301 16 -22.333 28.333 -39 37s-42.334 13 -77.001 13c-21.333 0 -39.666 -4 -54.999 -12s-28 -23.833 -38 -47.5s-17.5 -56.834 -22.5 -99.501
s-7.5 -98.667 -7.5 -168v-361c0 -63.333 1.5 -116.5 4.5 -159.5s9 -78 18 -105s21.5 -46.333 37.5 -58s37 -17.5 63 -17.5z" />
    <glyph glyph-name="ntilde" unicode="&#xf1;" horiz-adv-x="1021" 
d="M131 1377l194.998 -0.000976562l23 -147v-1c20 31.333 41.5 57.5 64.5 78.5s46.833 37.833 71.5 50.5s49.834 21.667 75.501 27s51.167 8 76.5 8c80.667 0 142.834 -28.167 186.501 -84.5s65.5 -140.833 65.5 -253.5v-1055h-253v1046
c0 60.667 -9.33301 102.834 -28 126.501s-46 35.5 -82 35.5c-25.333 0 -50.5 -8.33301 -75.5 -25s-47.167 -39.667 -66.5 -69v-1114h-253v1377zM701.998 1587c-41.333 0 -76.667 6.66602 -106 19.999s-58 32.666 -86 57.999c-16 14 -29.5 26.333 -40.5 37
s-20.833 19.667 -29.5 27s-17 12.833 -25 16.5s-17 5.5 -27 5.5c-14 0 -24.667 -5.66699 -32 -17s-11 -27 -11 -47v-72h-178c0 4 -0.333008 9.83301 -1 17.5s-1.16699 15.667 -1.5 24l-1 24c-0.333008 7.66699 -0.5 13.167 -0.5 16.5c0 46.667 6 85.834 18 117.501
s28.167 57 48.5 76s43.833 32.5 70.5 40.5s54.667 12 84 12c39.333 0 72.5 -6.5 99.5 -19.5s53.833 -32.167 80.5 -57.5l28.5 -27.5c10.333 -10.333 21 -20 32 -29s22 -16.5 33 -22.5s21.833 -9 32.5 -9c14.667 0 26.667 4.66699 36 14s14 24.333 14 45v87h159
c4 -23.333 6.83301 -43.666 8.5 -60.999s2.5 -32.333 2.5 -45c0 -38 -5.83301 -71.5 -17.5 -100.5s-27 -53.167 -46 -72.5s-41.167 -33.833 -66.5 -43.5s-51.333 -14.5 -78 -14.5z" />
    <glyph glyph-name="ograve" unicode="&#xf2;" horiz-adv-x="958" 
d="M481 -15c-29.333 0 -59.167 2.33203 -89.5 6.99902s-59.666 14.334 -87.999 29.001s-55 35.667 -80 63s-46.833 63.333 -65.5 108s-33.334 99.667 -44.001 165s-16 143.333 -16 234v216c0 89.333 5.5 165.833 16.5 229.5s26 117.167 45 160.5s41.167 77.833 66.5 103.5
s52.166 45.334 80.499 59.001s57.5 22.667 87.5 27s59.333 6.5 88 6.5c27.333 0 55.666 -2 84.999 -6s58 -12.5 86 -25.5s54.5 -32.333 79.5 -58s47 -60.167 66 -103.5s34 -97.166 45 -161.499s16.5 -141.5 16.5 -231.5v-216c0 -89.333 -5.66699 -166.333 -17 -231
s-26.666 -119.334 -45.999 -164.001s-41.666 -80.834 -66.999 -108.501s-52 -49.167 -80 -64.5s-56.5 -25.5 -85.5 -30.5s-56.833 -7.5 -83.5 -7.5zM482.999 179.999c22.667 0 41.834 5.83301 57.501 17.5s28.334 30.834 38.001 57.501s16.667 61.834 21 105.501
s6.5 97.834 6.5 162.501v339c0 64.667 -2.16699 119 -6.5 163s-11.333 79.5 -21 106.5s-22.334 46.5 -38.001 58.5s-34.834 18 -57.501 18c-24 0 -44.167 -6 -60.5 -18s-29.833 -31.5 -40.5 -58.5s-18.334 -62.5 -23.001 -106.5s-7 -98.333 -7 -163v-339
c0 -64.667 2.33301 -118.834 7 -162.501s12.334 -78.834 23.001 -105.501s24.167 -45.834 40.5 -57.501s36.5 -17.5 60.5 -17.5zM143.999 1846l169 137l290 -416l-125 -105z" />
    <glyph glyph-name="oacute" unicode="&#xf3;" horiz-adv-x="958" 
d="M481 -15c-29.333 0 -59.167 2.33203 -89.5 6.99902s-59.666 14.334 -87.999 29.001s-55 35.667 -80 63s-46.833 63.333 -65.5 108s-33.334 99.667 -44.001 165s-16 143.333 -16 234v216c0 89.333 5.5 165.833 16.5 229.5s26 117.167 45 160.5s41.167 77.833 66.5 103.5
s52.166 45.334 80.499 59.001s57.5 22.667 87.5 27s59.333 6.5 88 6.5c27.333 0 55.666 -2 84.999 -6s58 -12.5 86 -25.5s54.5 -32.333 79.5 -58s47 -60.167 66 -103.5s34 -97.166 45 -161.499s16.5 -141.5 16.5 -231.5v-216c0 -89.333 -5.66699 -166.333 -17 -231
s-26.666 -119.334 -45.999 -164.001s-41.666 -80.834 -66.999 -108.501s-52 -49.167 -80 -64.5s-56.5 -25.5 -85.5 -30.5s-56.833 -7.5 -83.5 -7.5zM482.999 179.999c22.667 0 41.834 5.83301 57.501 17.5s28.334 30.834 38.001 57.501s16.667 61.834 21 105.501
s6.5 97.834 6.5 162.501v339c0 64.667 -2.16699 119 -6.5 163s-11.333 79.5 -21 106.5s-22.334 46.5 -38.001 58.5s-34.834 18 -57.501 18c-24 0 -44.167 -6 -60.5 -18s-29.833 -31.5 -40.5 -58.5s-18.334 -62.5 -23.001 -106.5s-7 -98.333 -7 -163v-339
c0 -64.667 2.33301 -118.834 7 -162.501s12.334 -78.834 23.001 -105.501s24.167 -45.834 40.5 -57.501s36.5 -17.5 60.5 -17.5zM352.999 1567l290 416l169 -137l-334 -384z" />
    <glyph glyph-name="ocircumflex" unicode="&#xf4;" horiz-adv-x="958" 
d="M481 -15c-29.333 0 -59.167 2.33203 -89.5 6.99902s-59.666 14.334 -87.999 29.001s-55 35.667 -80 63s-46.833 63.333 -65.5 108s-33.334 99.667 -44.001 165s-16 143.333 -16 234v216c0 89.333 5.5 165.833 16.5 229.5s26 117.167 45 160.5s41.167 77.833 66.5 103.5
s52.166 45.334 80.499 59.001s57.5 22.667 87.5 27s59.333 6.5 88 6.5c27.333 0 55.666 -2 84.999 -6s58 -12.5 86 -25.5s54.5 -32.333 79.5 -58s47 -60.167 66 -103.5s34 -97.166 45 -161.499s16.5 -141.5 16.5 -231.5v-216c0 -89.333 -5.66699 -166.333 -17 -231
s-26.666 -119.334 -45.999 -164.001s-41.666 -80.834 -66.999 -108.501s-52 -49.167 -80 -64.5s-56.5 -25.5 -85.5 -30.5s-56.833 -7.5 -83.5 -7.5zM482.999 179.999c22.667 0 41.834 5.83301 57.501 17.5s28.334 30.834 38.001 57.501s16.667 61.834 21 105.501
s6.5 97.834 6.5 162.501v339c0 64.667 -2.16699 119 -6.5 163s-11.333 79.5 -21 106.5s-22.334 46.5 -38.001 58.5s-34.834 18 -57.501 18c-24 0 -44.167 -6 -60.5 -18s-29.833 -31.5 -40.5 -58.5s-18.334 -62.5 -23.001 -106.5s-7 -98.333 -7 -163v-339
c0 -64.667 2.33301 -118.834 7 -162.501s12.334 -78.834 23.001 -105.501s24.167 -45.834 40.5 -57.501s36.5 -17.5 60.5 -17.5zM530.999 1697l-51 172l-50 -172l-94 -212h-218l270 581h174l276 -581h-219z" />
    <glyph glyph-name="otilde" unicode="&#xf5;" horiz-adv-x="958" 
d="M481 -15c-29.333 0 -59.167 2.33203 -89.5 6.99902s-59.666 14.334 -87.999 29.001s-55 35.667 -80 63s-46.833 63.333 -65.5 108s-33.334 99.667 -44.001 165s-16 143.333 -16 234v216c0 89.333 5.5 165.833 16.5 229.5s26 117.167 45 160.5s41.167 77.833 66.5 103.5
s52.166 45.334 80.499 59.001s57.5 22.667 87.5 27s59.333 6.5 88 6.5c27.333 0 55.666 -2 84.999 -6s58 -12.5 86 -25.5s54.5 -32.333 79.5 -58s47 -60.167 66 -103.5s34 -97.166 45 -161.499s16.5 -141.5 16.5 -231.5v-216c0 -89.333 -5.66699 -166.333 -17 -231
s-26.666 -119.334 -45.999 -164.001s-41.666 -80.834 -66.999 -108.501s-52 -49.167 -80 -64.5s-56.5 -25.5 -85.5 -30.5s-56.833 -7.5 -83.5 -7.5zM482.999 179.999c22.667 0 41.834 5.83301 57.501 17.5s28.334 30.834 38.001 57.501s16.667 61.834 21 105.501
s6.5 97.834 6.5 162.501v339c0 64.667 -2.16699 119 -6.5 163s-11.333 79.5 -21 106.5s-22.334 46.5 -38.001 58.5s-34.834 18 -57.501 18c-24 0 -44.167 -6 -60.5 -18s-29.833 -31.5 -40.5 -58.5s-18.334 -62.5 -23.001 -106.5s-7 -98.333 -7 -163v-339
c0 -64.667 2.33301 -118.834 7 -162.501s12.334 -78.834 23.001 -105.501s24.167 -45.834 40.5 -57.501s36.5 -17.5 60.5 -17.5zM644.999 1587c-41.333 0 -76.667 6.66602 -106 19.999s-58 32.666 -86 57.999c-16 14 -29.5 26.333 -40.5 37s-20.833 19.667 -29.5 27
s-17 12.833 -25 16.5s-17 5.5 -27 5.5c-14 0 -24.667 -5.66699 -32 -17s-11 -27 -11 -47v-72h-178c0 4 -0.333008 9.83301 -1 17.5s-1.16699 15.667 -1.5 24l-1 24c-0.333008 7.66699 -0.5 13.167 -0.5 16.5c0 46.667 6 85.834 18 117.501s28.167 57 48.5 76
s43.833 32.5 70.5 40.5s54.667 12 84 12c39.333 0 72.5 -6.5 99.5 -19.5s53.833 -32.167 80.5 -57.5l28.5 -27.5c10.333 -10.333 21 -20 32 -29s22 -16.5 33 -22.5s21.833 -9 32.5 -9c14.667 0 26.667 4.66699 36 14s14 24.333 14 45v87h159
c4 -23.333 6.83301 -43.666 8.5 -60.999s2.5 -32.333 2.5 -45c0 -38 -5.83301 -71.5 -17.5 -100.5s-27 -53.167 -46 -72.5s-41.167 -33.833 -66.5 -43.5s-51.333 -14.5 -78 -14.5z" />
    <glyph glyph-name="odieresis" unicode="&#xf6;" horiz-adv-x="958" 
d="M481 -15c-29.333 0 -59.167 2.33203 -89.5 6.99902s-59.666 14.334 -87.999 29.001s-55 35.667 -80 63s-46.833 63.333 -65.5 108s-33.334 99.667 -44.001 165s-16 143.333 -16 234v216c0 89.333 5.5 165.833 16.5 229.5s26 117.167 45 160.5s41.167 77.833 66.5 103.5
s52.166 45.334 80.499 59.001s57.5 22.667 87.5 27s59.333 6.5 88 6.5c27.333 0 55.666 -2 84.999 -6s58 -12.5 86 -25.5s54.5 -32.333 79.5 -58s47 -60.167 66 -103.5s34 -97.166 45 -161.499s16.5 -141.5 16.5 -231.5v-216c0 -89.333 -5.66699 -166.333 -17 -231
s-26.666 -119.334 -45.999 -164.001s-41.666 -80.834 -66.999 -108.501s-52 -49.167 -80 -64.5s-56.5 -25.5 -85.5 -30.5s-56.833 -7.5 -83.5 -7.5zM482.999 179.999c22.667 0 41.834 5.83301 57.501 17.5s28.334 30.834 38.001 57.501s16.667 61.834 21 105.501
s6.5 97.834 6.5 162.501v339c0 64.667 -2.16699 119 -6.5 163s-11.333 79.5 -21 106.5s-22.334 46.5 -38.001 58.5s-34.834 18 -57.501 18c-24 0 -44.167 -6 -60.5 -18s-29.833 -31.5 -40.5 -58.5s-18.334 -62.5 -23.001 -106.5s-7 -98.333 -7 -163v-339
c0 -64.667 2.33301 -118.834 7 -162.501s12.334 -78.834 23.001 -105.501s24.167 -45.834 40.5 -57.501s36.5 -17.5 60.5 -17.5zM692.999 1566c-52 0 -87.665 13.501 -106.998 40.501s-29 67.5 -29 121.5c0 28.667 2.16699 53.667 6.5 75s11.666 39.166 21.999 53.499
s24.166 25 41.499 32s39.333 10.5 66 10.5c54.667 0 92.667 -13.833 114 -41.5s32 -70.834 32 -129.501c0 -51.333 -10.667 -91.166 -32 -119.499s-59.333 -42.5 -114 -42.5zM256.001 1566c-52 0 -87.833 13.501 -107.5 40.501s-29.5 67.5 -29.5 121.5
c0 28.667 2.16699 53.667 6.5 75s11.666 39.166 21.999 53.499s24.333 25 42 32s39.834 10.5 66.501 10.5c54.667 0 92.5 -13.833 113.5 -41.5s31.5 -70.834 31.5 -129.501c0 -51.333 -10.5 -91.166 -31.5 -119.499s-58.833 -42.5 -113.5 -42.5z" />
    <glyph glyph-name="divide" unicode="&#xf7;" horiz-adv-x="835" 
d="M418 1043c-40 0 -72.5 14 -97.5 42s-37.5 68 -37.5 120c0 58 12.333 98.833 37 122.5s57.667 35.5 99 35.5c42 0 73.833 -12.833 95.5 -38.5s32.5 -65.5 32.5 -119.5c0 -50 -11 -89.5 -33 -118.5s-54 -43.5 -96 -43.5zM45 887h745v-196h-745v196zM417 215
c-40 0 -72.5 14 -97.5 42s-37.5 68 -37.5 120c0 58 12.333 98.833 37 122.5s57.667 35.5 99 35.5c42 0 73.833 -12.833 95.5 -38.5s32.5 -65.5 32.5 -119.5c0 -50 -11 -89.5 -33 -118.5s-54 -43.5 -96 -43.5z" />
    <glyph glyph-name="oslash" unicode="&#xf8;" horiz-adv-x="958" 
d="M217 -171h-117l640 1712h117zM477 -15c-29.333 0 -59.167 2.33203 -89.5 6.99902s-59.666 14.334 -87.999 29.001s-55 35.667 -80 63s-46.833 63.333 -65.5 108s-33.334 99.667 -44.001 165s-16 143.333 -16 234v216c0 89.333 5.5 165.833 16.5 229.5
s26 117.167 45 160.5s41.167 77.833 66.5 103.5s52.166 45.334 80.499 59.001s57.5 22.667 87.5 27s59.333 6.5 88 6.5c27.333 0 55.666 -2 84.999 -6s58 -12.5 86 -25.5s54.5 -32.333 79.5 -58s47 -60.167 66 -103.5s34 -97.166 45 -161.499s16.5 -141.5 16.5 -231.5v-216
c0 -89.333 -5.66699 -166.333 -17 -231s-26.666 -119.334 -45.999 -164.001s-41.666 -80.834 -66.999 -108.501s-52 -49.167 -80 -64.5s-56.5 -25.5 -85.5 -30.5s-56.833 -7.5 -83.5 -7.5zM478.999 179.999c22.667 0 41.834 5.83301 57.501 17.5
s28.334 30.834 38.001 57.501s16.667 61.834 21 105.501s6.5 97.834 6.5 162.501v339c0 64.667 -2.16699 119 -6.5 163s-11.333 79.5 -21 106.5s-22.334 46.5 -38.001 58.5s-34.834 18 -57.501 18c-24 0 -44.167 -6 -60.5 -18s-29.833 -31.5 -40.5 -58.5
s-18.334 -62.5 -23.001 -106.5s-7 -98.333 -7 -163v-339c0 -64.667 2.33301 -118.834 7 -162.501s12.334 -78.834 23.001 -105.501s24.167 -45.834 40.5 -57.501s36.5 -17.5 60.5 -17.5z" />
    <glyph glyph-name="ugrave" unicode="&#xf9;" horiz-adv-x="1021" 
d="M132 1377h252.998v-1035c0 -60.667 9.33301 -102.834 28 -126.501s46 -35.5 82 -35.5c25.333 0 50 7 74 21s45.667 34 65 60v1116h253v-1377h-193l-25 147h-1c-20 -31.333 -41.167 -57.5 -63.5 -78.5s-45.666 -37.667 -69.999 -50s-49.166 -21.166 -74.499 -26.499
s-50.666 -8 -75.999 -8c-80.667 0 -142.834 28 -186.501 84s-65.5 140.667 -65.5 254v1055zM186.998 1846l169 137l290 -416l-125 -105z" />
    <glyph glyph-name="uacute" unicode="&#xfa;" horiz-adv-x="1021" 
d="M132 1377h252.998v-1035c0 -60.667 9.33301 -102.834 28 -126.501s46 -35.5 82 -35.5c25.333 0 50 7 74 21s45.667 34 65 60v1116h253v-1377h-193l-25 147h-1c-20 -31.333 -41.167 -57.5 -63.5 -78.5s-45.666 -37.667 -69.999 -50s-49.166 -21.166 -74.499 -26.499
s-50.666 -8 -75.999 -8c-80.667 0 -142.834 28 -186.501 84s-65.5 140.667 -65.5 254v1055zM395.998 1567l290 416l169 -137l-334 -384z" />
    <glyph glyph-name="ucircumflex" unicode="&#xfb;" horiz-adv-x="1021" 
d="M132 1377h252.998v-1035c0 -60.667 9.33301 -102.834 28 -126.501s46 -35.5 82 -35.5c25.333 0 50 7 74 21s45.667 34 65 60v1116h253v-1377h-193l-25 147h-1c-20 -31.333 -41.167 -57.5 -63.5 -78.5s-45.666 -37.667 -69.999 -50s-49.166 -21.166 -74.499 -26.499
s-50.666 -8 -75.999 -8c-80.667 0 -142.834 28 -186.501 84s-65.5 140.667 -65.5 254v1055zM573.998 1697l-51 172l-50 -172l-94 -212h-218l270 581h174l276 -581h-219z" />
    <glyph glyph-name="udieresis" unicode="&#xfc;" horiz-adv-x="1021" 
d="M132 1377h252.998v-1035c0 -60.667 9.33301 -102.834 28 -126.501s46 -35.5 82 -35.5c25.333 0 50 7 74 21s45.667 34 65 60v1116h253v-1377h-193l-25 147h-1c-20 -31.333 -41.167 -57.5 -63.5 -78.5s-45.666 -37.667 -69.999 -50s-49.166 -21.166 -74.499 -26.499
s-50.666 -8 -75.999 -8c-80.667 0 -142.834 28 -186.501 84s-65.5 140.667 -65.5 254v1055zM735.998 1566c-52 0 -87.665 13.501 -106.998 40.501s-29 67.5 -29 121.5c0 28.667 2.16699 53.667 6.5 75s11.666 39.166 21.999 53.499s24.166 25 41.499 32s39.333 10.5 66 10.5
c54.667 0 92.667 -13.833 114 -41.5s32 -70.834 32 -129.501c0 -51.333 -10.667 -91.166 -32 -119.499s-59.333 -42.5 -114 -42.5zM299 1566c-52 0 -87.833 13.501 -107.5 40.501s-29.5 67.5 -29.5 121.5c0 28.667 2.16699 53.667 6.5 75s11.666 39.166 21.999 53.499
s24.333 25 42 32s39.834 10.5 66.501 10.5c54.667 0 92.5 -13.833 113.5 -41.5s31.5 -70.834 31.5 -129.501c0 -51.333 -10.5 -91.166 -31.5 -119.499s-58.833 -42.5 -113.5 -42.5z" />
    <glyph glyph-name="yacute" unicode="&#xfd;" horiz-adv-x="898" 
d="M85 -265c38 -5.33301 73 -4.16699 105 3.5s59.5 22.167 82.5 43.5s41.333 49.5 55 84.5s21.5 76.833 23.5 125.5l-326 1385h257l145 -762l42 -263h8l29 263l117 762h249l-290 -1428c-12.667 -66 -28.834 -123.667 -48.501 -173s-44 -90.333 -73 -123
s-63.5 -57.167 -103.5 -73.5s-86.667 -24.5 -140 -24.5c-43.333 0 -87.666 8.33301 -132.999 25l1 155v0zM338 1567l290 416l169 -137l-334 -384z" />
    <glyph glyph-name="thorn" unicode="&#xfe;" horiz-adv-x="989" 
d="M383 -59l0.000976562 -383.998h-253v2253h253v-365l-8 -181l1 -1c11.333 16 24.5 31.333 39.5 46s32 27.667 51 39s40 20.333 63 27s48.167 10 75.5 10c14 0 30.833 -1.33301 50.5 -4s40 -9.33398 61 -20.001s42 -26.334 63 -47.001s39.667 -49.334 56 -86.001
s29.666 -82.167 39.999 -136.5s15.5 -120.166 15.5 -197.499v-415c0 -77.333 -5.16699 -143.333 -15.5 -198s-23.833 -100.334 -40.5 -137.001s-35.667 -65.667 -57 -87s-43 -37.333 -65 -48s-43.333 -17.5 -64 -20.5s-38.667 -4.5 -54 -4.5c-26 0 -50.5 3.33301 -73.5 10
s-44.167 15.334 -63.5 26.001s-36.5 22.667 -51.5 36s-27.5 26.333 -37.5 39zM383.001 279.002c5.33301 -12.667 11.834 -24.999 19.501 -36.999s16.5 -22.5 26.5 -31.5s21.667 -16.333 35 -22s28.333 -8.5 45 -8.5c18.667 0 35.667 3.5 51 10.5s28.666 19.667 39.999 38
s20.166 43.666 26.499 75.999s9.5 74.166 9.5 125.499v518c0 50.667 -3.16699 92.167 -9.5 124.5s-15 57.833 -26 76.5s-24.167 31.334 -39.5 38.001s-32.333 10 -51 10c-31.333 0 -57.166 -8.16699 -77.499 -24.5s-36.833 -35.5 -49.5 -57.5v-836z" />
    <glyph glyph-name="ydieresis" unicode="&#xff;" horiz-adv-x="898" 
d="M85 -265c38 -5.33301 73 -4.16699 105 3.5s59.5 22.167 82.5 43.5s41.333 49.5 55 84.5s21.5 76.833 23.5 125.5l-326 1385h257l145 -762l42 -263h8l29 263l117 762h249l-290 -1428c-12.667 -66 -28.834 -123.667 -48.501 -173s-44 -90.333 -73 -123
s-63.5 -57.167 -103.5 -73.5s-86.667 -24.5 -140 -24.5c-43.333 0 -87.666 8.33301 -132.999 25l1 155v0zM679 1566c-52 0 -87.665 13.501 -106.998 40.501s-29 67.5 -29 121.5c0 28.667 2.16699 53.667 6.5 75s11.666 39.166 21.999 53.499s24.166 25 41.499 32
s39.333 10.5 66 10.5c54.667 0 92.667 -13.833 114 -41.5s32 -70.834 32 -129.501c0 -51.333 -10.667 -91.166 -32 -119.499s-59.333 -42.5 -114 -42.5zM242.002 1566c-52 0 -87.833 13.501 -107.5 40.501s-29.5 67.5 -29.5 121.5c0 28.667 2.16699 53.667 6.5 75
s11.666 39.166 21.999 53.499s24.333 25 42 32s39.834 10.5 66.501 10.5c54.667 0 92.5 -13.833 113.5 -41.5s31.5 -70.834 31.5 -129.501c0 -51.333 -10.5 -91.166 -31.5 -119.499s-58.833 -42.5 -113.5 -42.5z" />
    <glyph glyph-name="Dcroat" unicode="&#x110;" horiz-adv-x="1037" 
d="M128 817l-85 -0.000976562v202h85v706h278c32 0 67.5 -1.66699 106.5 -5s78.333 -11.166 118 -23.499s78.167 -31.166 115.5 -56.499s70.5 -60.166 99.5 -104.499s52.167 -99.5 69.5 -165.5s26 -146.333 26 -241v-523c0 -96 -8.66699 -177.833 -26 -245.5
s-40.5 -123.834 -69.5 -168.501s-62.167 -79.834 -99.5 -105.501s-75.833 -45 -115.5 -58s-79 -21 -118 -24s-74.5 -4.5 -106.5 -4.5h-278v817zM418 179.999c46 0 85.1689 7.50098 117.502 22.501s58.666 38 78.999 69s35 70.167 44 117.5s13.5 103.666 13.5 168.999v591
c0 60.667 -4.16699 114.167 -12.5 160.5s-22.333 85 -42 116s-45.834 54.333 -78.501 70s-73 23.5 -121 23.5h-31v-500h158v-202h-158v-637h31z" />
    <glyph glyph-name="hbar" unicode="&#x127;" horiz-adv-x="1018" 
d="M130 1505l-124.002 0.00292969v171h124v134h253v-134h221v-171h-221v-17l-13 -229c18.667 25.333 38.834 46.666 60.501 63.999s44 31.166 67 41.499s46.333 17.666 70 21.999s47.167 6.5 70.5 6.5c80.667 0 142.834 -28.333 186.501 -85s65.5 -141 65.5 -253v-1055h-253
v1047c0 60 -9.33301 101.833 -28 125.5s-46 35.5 -82 35.5c-25.333 0 -50.833 -9 -76.5 -27s-48.167 -40 -67.5 -66v-1115h-253v1505z" />
    <glyph glyph-name="Itilde" unicode="&#x128;" horiz-adv-x="551" 
d="M146 1708h259v-1708h-259v1708zM441 1729c-41.333 0 -76.668 5.83301 -106.001 17.5s-58 28.834 -86 51.501c-16 14 -29.5 26.333 -40.5 37s-20.833 19.667 -29.5 27s-17 12.833 -25 16.5s-17 5.5 -27 5.5c-14 0 -24.667 -5.66699 -32 -17s-11 -27 -11 -47v-72h-178
c0 4 -0.333008 9.83301 -1 17.5s-1.16699 15.667 -1.5 24s-0.666016 16.166 -0.999023 23.499s-0.5 12.666 -0.5 15.999c0 44.667 6 82.167 18 112.5s28.167 54.833 48.5 73.5s43.833 31.834 70.5 39.501s54.667 11.5 84 11.5c39.333 0 72.5 -5.66699 99.5 -17
s53.833 -28 80.5 -50l28.5 -27.5c10.333 -10.333 21 -20 32 -29s22 -16.5 33 -22.5s21.833 -9 32.5 -9c14.667 0 26.667 4.66699 36 14s14 24 14 44v78h159c4 -24 6.83301 -44.5 8.5 -61.5s2.5 -31.833 2.5 -44.5c0 -34.667 -5.83301 -65.167 -17.5 -91.5
s-27 -48.5 -46 -66.5s-41.167 -31.5 -66.5 -40.5s-51.333 -13.5 -78 -13.5z" />
    <glyph glyph-name="itilde" unicode="&#x129;" horiz-adv-x="521" 
d="M134 1377h253v-1377h-253v1377zM428 1587c-41.333 0 -76.667 6.66602 -106 19.999s-58 32.666 -86 57.999c-16 14 -29.5 26.333 -40.5 37s-20.833 19.667 -29.5 27s-17 12.833 -25 16.5s-17 5.5 -27 5.5c-14 0 -24.667 -5.66699 -32 -17s-11 -27 -11 -47v-72h-178
c0 4 -0.333008 9.83301 -1 17.5s-1.16699 15.667 -1.5 24l-1 24c-0.333008 7.66699 -0.5 13.167 -0.5 16.5c0 46.667 6 85.834 18 117.501s28.167 57 48.5 76s43.833 32.5 70.5 40.5s54.667 12 84 12c39.333 0 72.5 -6.5 99.5 -19.5s53.833 -32.167 80.5 -57.5l28.5 -27.5
c10.333 -10.333 21 -20 32 -29s22 -16.5 33 -22.5s21.833 -9 32.5 -9c14.667 0 26.667 4.66699 36 14s14 24.333 14 45v87h159c4 -23.333 6.83301 -43.666 8.5 -60.999s2.5 -32.333 2.5 -45c0 -38 -5.83301 -71.5 -17.5 -100.5s-27 -53.167 -46 -72.5
s-41.167 -33.833 -66.5 -43.5s-51.333 -14.5 -78 -14.5z" />
    <glyph glyph-name="dotlessi" unicode="&#x131;" horiz-adv-x="521" 
d="M134 1377h253v-1377h-253v1377z" />
    <glyph glyph-name="IJ" unicode="&#x132;" horiz-adv-x="1372" 
d="M146 1708h259v-1708h-259v1708zM895 -16c-64 0 -117.669 10.002 -161.002 30.002s-78.166 47.167 -104.499 81.5s-45.166 74.5 -56.499 120.5s-17 94.667 -17 146c0 36 2.33301 76.5 7 121.5s11.667 90.167 21 135.5h207l-3 -208c0 -44 2 -80.833 6 -110.5
s10.167 -53.334 18.5 -71.001s19 -30.334 32 -38.001s28.833 -11.5 47.5 -11.5c15.333 0 29.166 3 41.499 9s22.833 16.5 31.5 31.5s15.334 35.333 20.001 61s7 57.834 7 96.501l3 1330h259v-1294c0 -88 -10 -160 -30 -216s-46.833 -99.833 -80.5 -131.5
s-72 -53.334 -115 -65.001s-87.5 -17.5 -133.5 -17.5z" />
    <glyph glyph-name="ij" unicode="&#x133;" horiz-adv-x="1032" 
d="M265 1574c-46.667 0 -83.5 14.001 -110.5 42.001s-40.5 69 -40.5 123c0 30 3.5 55.167 10.5 75.5s17 36.666 30 48.999s28.833 21.333 47.5 27s40 8.5 64 8.5c50 0 88 -12.667 114 -38s39 -66 39 -122c0 -52 -13.167 -92.5 -39.5 -121.5s-64.5 -43.5 -114.5 -43.5z
M134 1377h253v-1377h-253v1377zM776 1574c-46.667 0 -83.5 14.001 -110.5 42.001s-40.5 69 -40.5 123c0 30 3.5 55.167 10.5 75.5s17 36.666 30 48.999s28.833 21.333 47.5 27s40 8.5 64 8.5c50 0 88 -12.667 114 -38s39 -66 39 -122c0 -52 -13.167 -92.5 -39.5 -121.5
s-64.5 -43.5 -114.5 -43.5zM645 1377l253.002 0.00195312v-1461c0 -75.333 -7.5 -136.333 -22.5 -183s-35.167 -83.167 -60.5 -109.5s-54.333 -44.166 -87 -53.499s-66.667 -14 -102 -14c-20 0 -40.333 1.66699 -61 5s-41 9.66602 -61 18.999v147
c5.33301 -0.666992 10.666 -1.16699 15.999 -1.5s10.666 -0.5 15.999 -0.5c14.667 0 28.667 2.66699 42 8s25 14.166 35 26.499s17.833 28.666 23.5 48.999s8.5 45.5 8.5 75.5v1493z" />
    <glyph glyph-name="Jcircumflex" unicode="&#x134;" horiz-adv-x="831" 
d="M354 -16c-64 0 -117.669 10.002 -161.002 30.002s-78.166 47.167 -104.499 81.5s-45.166 74.5 -56.499 120.5s-17 94.667 -17 146c0 36 2.33301 76.5 7 121.5s11.667 90.167 21 135.5h207l-3 -208c0 -44 2 -80.833 6 -110.5s10.167 -53.334 18.5 -71.001
s19 -30.334 32 -38.001s28.833 -11.5 47.5 -11.5c15.333 0 29.166 3 41.499 9s22.833 16.5 31.5 31.5s15.334 35.333 20.001 61s7 57.834 7 96.501l3 1330h259v-1294c0 -88 -10 -160 -30 -216s-46.833 -99.833 -80.5 -131.5s-72 -53.334 -115 -65.001
s-87.5 -17.5 -133.5 -17.5zM624.998 1886l-40 56l-40 -56l-84 -130h-248l250 310h234l246 -310h-249z" />
    <glyph glyph-name="jcircumflex" unicode="&#x135;" horiz-adv-x="521" 
d="M134 1377l253.002 0.00195312v-1461c0 -75.333 -7.5 -136.333 -22.5 -183s-35.167 -83.167 -60.5 -109.5s-54.333 -44.166 -87 -53.499s-66.667 -14 -102 -14c-20 0 -40.333 1.66699 -61 5s-41 9.66602 -61 18.999v147c5.33301 -0.666992 10.666 -1.16699 15.999 -1.5
s10.666 -0.5 15.999 -0.5c14.667 0 28.667 2.66699 42 8s25 14.166 35 26.499s17.833 28.666 23.5 48.999s8.5 45.5 8.5 75.5v1493zM319.002 1697l-51 172l-50 -172l-94 -212h-218l270 581h174l276 -581h-219z" />
    <glyph glyph-name="Kcommaaccent" unicode="&#x136;" horiz-adv-x="1021" 
d="M146 1708h259v-746h8l296 746h258l-330 -801l367 -907h-277l-314 813h-8v-813h-259v1708zM725 -23l-108 -434h-195l62 434h241z" />
    <glyph glyph-name="kcommaaccent" unicode="&#x137;" horiz-adv-x="960" 
d="M134 1819h253v-1047h8l276 605h243l-306 -630l335 -747h-258l-290 683h-8v-683h-253v1819zM713 -23l-108 -434h-195l62 434h241z" />
    <glyph glyph-name="kgreenlandic" unicode="&#x138;" horiz-adv-x="959" 
d="M134 1370h253v-643h8l276 643h243l-295 -656l324 -714h-256l-292 639h-8v-639h-253v1370z" />
    <glyph glyph-name="Ldot" unicode="&#x13f;" horiz-adv-x="790" 
d="M674 601c-24 0 -45.001 4.66699 -63.001 14s-32.833 21.666 -44.5 36.999s-20.5 32.833 -26.5 52.5s-9 39.834 -9 60.501c0 22.667 2.83301 44.5 8.5 65.5s14.334 39.5 26.001 55.5s26.5 28.833 44.5 38.5s39.333 14.5 64 14.5c25.333 0 47.333 -4.83301 66 -14.5
s34.334 -22.5 47.001 -38.5s22 -34.5 28 -55.5s9 -42.833 9 -65.5c0 -20 -3 -39.833 -9 -59.5s-15.333 -37.167 -28 -52.5s-28.334 -27.833 -47.001 -37.5s-40.667 -14.5 -66 -14.5zM145.999 1708h259v-1504h353v-204h-612v1708z" />
    <glyph glyph-name="ldot" unicode="&#x140;" horiz-adv-x="767" 
d="M134 1810h253v-1810h-253v1810zM619 712c-41.333 0 -74.832 15.5 -100.499 46.5s-38.5 74.833 -38.5 131.5c0 31.333 3.33301 58 10 80s16.167 39.833 28.5 53.5s27 23.5 44 29.5s36.167 9 57.5 9c43.333 0 76.166 -13.833 98.499 -41.5s33.5 -71.167 33.5 -130.5
c0 -55.333 -11.167 -98.833 -33.5 -130.5s-55.5 -47.5 -99.5 -47.5z" />
    <glyph glyph-name="Lslash" unicode="&#x141;" horiz-adv-x="773" 
d="M146 560l-104 -81l-118 155l222 178v913h256v-707l197 160l130 -168l-327 -253v-550h354v-207h-610v560z" />
    <glyph glyph-name="lslash" unicode="&#x142;" horiz-adv-x="607" 
d="M175 631l-90 -92l-118 121l208 213v937h252v-679l95 97l118 -122l-213 -218v-888h-252v631z" />
    <glyph glyph-name="Nacute" unicode="&#x143;" horiz-adv-x="1123" 
d="M145 1708l210 -0.00292969l414 -1143h6c-2 26.667 -4.66699 56.334 -8 89.001s-6.33301 69.834 -9 111.501s-5 88.834 -7 141.501s-3 112 -3 178v623h232v-1708h-212l-412 1113h-8c2 -30 4.66699 -62.5 8 -97.5s6.33301 -76.167 9 -123.5s5 -102.5 7 -165.5
s3 -137.833 3 -224.5v-502h-230v1708zM457 1850l321 216l129 -167l-345 -166z" />
    <glyph glyph-name="nacute" unicode="&#x144;" horiz-adv-x="1021" 
d="M131 1377l194.998 -0.000976562l23 -147v-1c20 31.333 41.5 57.5 64.5 78.5s46.833 37.833 71.5 50.5s49.834 21.667 75.501 27s51.167 8 76.5 8c80.667 0 142.834 -28.167 186.501 -84.5s65.5 -140.833 65.5 -253.5v-1055h-253v1046
c0 60.667 -9.33301 102.834 -28 126.501s-46 35.5 -82 35.5c-25.333 0 -50.5 -8.33301 -75.5 -25s-47.167 -39.667 -66.5 -69v-1114h-253v1377zM410.998 1567l290 416l169 -137l-334 -384z" />
    <glyph glyph-name="OE" unicode="&#x152;" horiz-adv-x="1370" 
d="M103 1077c0 100 8.83301 185.167 26.5 255.5s41 128.833 70 175.5s62.333 83.334 100 110.001s76.5 46.667 116.5 60s79.833 21.666 119.5 24.999s75.834 5 108.501 5h654v-205h-394v-508h307v-224h-307v-566h394v-205h-654c-32.667 0 -68.834 1.66699 -108.501 5
s-79.5 11.5 -119.5 24.5s-78.833 32.833 -116.5 59.5s-71 63.5 -100 110.5s-52.333 105.5 -70 175.5s-26.5 155.333 -26.5 256v446zM647 187l-0.000976562 1334h-16c-49.333 0 -90.666 -8 -123.999 -24s-60 -40.5 -80 -73.5s-34.333 -74.333 -43 -124s-13 -108.5 -13 -176.5
v-541c0 -70 4.66699 -129.833 14 -179.5s24.5 -90.5 45.5 -122.5s47.833 -55.5 80.5 -70.5s72.667 -22.5 120 -22.5h16z" />
    <glyph glyph-name="oe" unicode="&#x153;" horiz-adv-x="1428" 
d="M479 -15c-29.333 0 -59.1699 2.33496 -89.5029 7.00195s-59.5 14.334 -87.5 29.001s-54.5 35.5 -79.5 62.5s-46.667 62.833 -65 107.5s-32.833 99.5 -43.5 164.5s-16 142.5 -16 232.5v215c0 88.667 5.5 164.667 16.5 228s25.833 116.5 44.5 159.5s40.667 77.5 66 103.5
s52 45.833 80 59.5s57 22.5 87 26.5s59.333 6 88 6c20 0 41.167 -1.5 63.5 -4.5s44.5 -8.66699 66.5 -17s43.5 -19.833 64.5 -34.5s40.5 -33.667 58.5 -57h8c20.667 24 42.5 43.333 65.5 58s45.667 26 68 34s44.333 13.5 66 16.5s42.167 4.5 61.5 4.5
c45.333 0 88.333 -6.83301 129 -20.5s76.334 -36.834 107.001 -69.501s55 -76.5 73 -131.5s27 -123.833 27 -206.5c0 -55.333 -3 -111.5 -9 -168.5s-14 -107.5 -24 -151.5h-449v-139c0 -60 2.33301 -110.667 7 -152s12.5 -75 23.5 -101s26 -44.833 45 -56.5
s42.833 -17.5 71.5 -17.5c15.333 0 30.333 3.16699 45 9.5s27.834 16.666 39.501 30.999s21 33.666 28 57.999s10.5 54.5 10.5 90.5v50h205v-53c0 -129.333 -28.333 -223.833 -85 -283.5s-145.334 -89.5 -266.001 -89.5c-50 0 -96.333 10.333 -139 31s-78.667 48 -108 82h-8
c-18 -22 -37.167 -40.333 -57.5 -55s-41.166 -26.167 -62.499 -34.5s-42.666 -14.333 -63.999 -18s-42 -5.5 -62 -5.5zM1104 807.002c0.666992 7.33301 1.33398 17.334 2.00098 30.001s1.16699 26.167 1.5 40.5s0.5 28.166 0.5 41.499v34c0 90.667 -9.66699 155.667 -29 195
s-50 59.333 -92 60c-22 0 -41.333 -5.16699 -58 -15.5s-30.334 -27.666 -41.001 -51.999s-18.667 -56.333 -24 -96s-8 -88.834 -8 -147.501v-90h248zM480.996 172.003c22.667 0 41.667 5.83301 57 17.5s27.833 30.667 37.5 57s16.5 61.333 20.5 105s6 97.5 6 161.5v351
c0 64 -2 117.833 -6 161.5s-10.833 79 -20.5 106s-22.167 46.5 -37.5 58.5s-34.333 18 -57 18c-24 0 -44.167 -6 -60.5 -18s-29.5 -31.5 -39.5 -58.5s-17.333 -62.333 -22 -106s-7 -97.5 -7 -161.5v-351c0 -64 2.33301 -117.833 7 -161.5s12 -78.667 22 -105
s23.167 -45.333 39.5 -57s36.5 -17.5 60.5 -17.5z" />
    <glyph glyph-name="Racute" unicode="&#x154;" horiz-adv-x="1070" 
d="M146 1708l280.999 -0.000976562c32 0 67.167 -1.33301 105.5 -4s76.666 -9.16699 114.999 -19.5s75.333 -25.833 111 -46.5s67.334 -49 95.001 -85s49.834 -81.167 66.501 -135.5s25 -120.166 25 -197.499v-43c0 -130 -18.667 -235.833 -56 -317.5
s-92.333 -140.5 -165 -176.5l274 -683h-274l-227 639h-97v-639h-254v1708zM438.999 825.999c45.333 0 83.667 5 115 15s56.666 26.833 75.999 50.5s33.333 55 42 94s13 87.167 13 144.5v135c0 44 -4 82 -12 114s-21.5 58.333 -40.5 79s-44.167 36 -75.5 46
s-70.666 15 -117.999 15h-39v-693h39zM468 1850l321 216l129 -167l-345 -166z" />
    <glyph glyph-name="Rcommaaccent" unicode="&#x156;" horiz-adv-x="1070" 
d="M146 1708l280.999 -0.000976562c32 0 67.167 -1.33301 105.5 -4s76.666 -9.16699 114.999 -19.5s75.333 -25.833 111 -46.5s67.334 -49 95.001 -85s49.834 -81.167 66.501 -135.5s25 -120.166 25 -197.499v-43c0 -130 -18.667 -235.833 -56 -317.5
s-92.333 -140.5 -165 -176.5l274 -683h-274l-227 639h-97v-639h-254v1708zM438.999 825.999c45.333 0 83.667 5 115 15s56.666 26.833 75.999 50.5s33.333 55 42 94s13 87.167 13 144.5v135c0 44 -4 82 -12 114s-21.5 58.333 -40.5 79s-44.167 36 -75.5 46
s-70.666 15 -117.999 15h-39v-693h39zM722 -23.001l-108 -434h-195l62 434h241z" />
    <glyph glyph-name="rcommaaccent" unicode="&#x157;" horiz-adv-x="792" 
d="M134 1377h184.999l22 -140c28 52 60.167 91 96.5 117s73.5 39 111.5 39c72.667 0 126.334 -22.333 161.001 -67s52 -111.667 52 -201c0 -11.333 -0.833008 -24.833 -2.5 -40.5s-4 -32 -7 -49s-6.66699 -34 -11 -51s-8.83301 -32.5 -13.5 -46.5h-176v128
c0 28 -1.83301 51 -5.5 69s-8.5 32.5 -14.5 43.5s-13 18.667 -21 23s-16.667 6.5 -26 6.5c-20 0 -38.5 -6.5 -55.5 -19.5s-31.167 -31.167 -42.5 -54.5v-1134h-253v1377zM396.999 -23l-108 -434h-195l62 434h241z" />
    <glyph glyph-name="Rcaron" unicode="&#x158;" horiz-adv-x="1070" 
d="M146 1708l280.999 -0.000976562c32 0 67.167 -1.33301 105.5 -4s76.666 -9.16699 114.999 -19.5s75.333 -25.833 111 -46.5s67.334 -49 95.001 -85s49.834 -81.167 66.501 -135.5s25 -120.166 25 -197.499v-43c0 -130 -18.667 -235.833 -56 -317.5
s-92.333 -140.5 -165 -176.5l274 -683h-274l-227 639h-97v-639h-254v1708zM438.999 825.999c45.333 0 83.667 5 115 15s56.666 26.833 75.999 50.5s33.333 55 42 94s13 87.167 13 144.5v135c0 44 -4 82 -12 114s-21.5 58.333 -40.5 79s-44.167 36 -75.5 46
s-70.666 15 -117.999 15h-39v-693h39zM453 1756l-250 310h248l84 -130l40 -56l40 56l69 130h249l-246 -310h-234z" />
    <glyph glyph-name="rcaron" unicode="&#x159;" horiz-adv-x="792" 
d="M134 1377h184.999l22 -140c28 52 60.167 91 96.5 117s73.5 39 111.5 39c72.667 0 126.334 -22.333 161.001 -67s52 -111.667 52 -201c0 -11.333 -0.833008 -24.833 -2.5 -40.5s-4 -32 -7 -49s-6.66699 -34 -11 -51s-8.83301 -32.5 -13.5 -46.5h-176v128
c0 28 -1.83301 51 -5.5 69s-8.5 32.5 -14.5 43.5s-13 18.667 -21 23s-16.667 6.5 -26 6.5c-20 0 -38.5 -6.5 -55.5 -19.5s-31.167 -31.167 -42.5 -54.5v-1134h-253v1377zM389.999 1485l-270 581h218l94 -212l50 -171l51 171l88 212h219l-276 -581h-174z" />
    <glyph glyph-name="Scaron" unicode="&#x160;" horiz-adv-x="946" 
d="M76 346c0 36.667 2.16699 70.5 6.5 101.5s10.833 64.5 19.5 100.5h201v-83c0 -46 2.83301 -86.667 8.5 -122s15 -65.166 28 -89.499s30.333 -42.666 52 -54.999s48.167 -18.5 79.5 -18.5c49.333 0 87 13.5 113 40.5s39 66.5 39 118.5c0 26.667 -1.83301 51.167 -5.5 73.5
s-10 44.5 -19 66.5s-21.167 45.167 -36.5 69.5s-35 51.5 -59 81.5l-270 321c-48 61.333 -85 123.166 -111 185.499s-39 128.833 -39 199.5c0 56.667 8.83301 108.667 26.5 156s43.167 88.166 76.5 122.499s74.5 61 123.5 80s104.5 28.5 166.5 28.5
c75.333 0 138.166 -10.667 188.499 -32s90.5 -49.333 120.5 -84s51.167 -73.5 63.5 -116.5s18.5 -86.167 18.5 -129.5c0 -36.667 -2.83301 -70.5 -8.5 -101.5l-19.5 -102.5h-200v81c0 90.667 -13 160.167 -39 208.5s-68.333 72.5 -127 72.5c-48.667 0 -85 -13.5 -109 -40.5
s-36 -63.167 -36 -108.5c0 -24 1.83301 -45.667 5.5 -65s9 -37.166 16 -53.499s15.5 -32.166 25.5 -47.499s21.333 -31.333 34 -48l301 -364c54.667 -71.333 96.667 -139.833 126 -205.5s44 -135.167 44 -208.5c0 -60.667 -9.5 -115.334 -28.5 -164.001
s-46.167 -90 -81.5 -124s-78 -60.167 -128 -78.5s-106.333 -27.5 -169 -27.5c-77.333 0 -141.5 10.333 -192.5 31s-91.667 48 -122 82s-51.666 72.667 -63.999 116s-18.5 87.666 -18.5 132.999zM358 1756l-250 310h248l84 -130l40 -56l40 56l69 130h249l-246 -310h-234z" />
    <glyph glyph-name="scaron" unicode="&#x161;" horiz-adv-x="820" 
d="M72 288c0 30 2.83496 59.001 8.50195 87.001s11.167 50.333 16.5 67h178c0 -50 2.5 -91.833 7.5 -125.5s13.167 -60.5 24.5 -80.5s26.5 -34.333 45.5 -43s42.167 -13 69.5 -13c38 0 65.667 10.667 83 32s26 46 26 74c0 14.667 -2 28.667 -6 42s-9.66699 26.833 -17 40.5
s-16.333 27.5 -27 41.5l-36 46l-185 218c-24 30 -47.167 60.5 -69.5 91.5s-42 63 -59 96s-30.667 67.5 -41 103.5s-15.5 74 -15.5 114c0 53.333 9.16699 99.666 27.5 138.999s43 72 74 98s66.833 45.333 107.5 58s83.667 19 129 19c50 0 95 -6 135 -18s74.333 -30 103 -54
s50.667 -53.833 66 -89.5s23 -77.167 23 -124.5c0 -32 -2.83301 -63 -8.5 -93s-11.167 -55.667 -16.5 -77h-175c-0.666992 45.333 -2.66699 85 -6 119s-9.5 62.167 -18.5 84.5s-21.333 39.166 -37 50.499s-36.167 17 -61.5 17c-22 0 -40.333 -3.5 -55 -10.5
s-26.5 -16.167 -35.5 -27.5s-15.333 -24 -19 -38s-5.5 -28.333 -5.5 -43c0 -32 7.66699 -61.667 23 -89s35.666 -57 60.999 -89l202 -237l51 -65.5c19.333 -25.667 37.666 -54 54.999 -85s32 -64.833 44 -101.5s18 -75 18 -115c0 -48.667 -7.66699 -92.834 -23 -132.501
s-38 -73.5 -68 -101.5s-66.833 -49.667 -110.5 -65s-93.5 -23 -149.5 -23c-46 0 -89.333 5.16699 -130 15.5s-76 27.333 -106 51s-53.667 54.834 -71 93.501s-26 86.334 -26 143.001zM330.002 1485l-270 581h218l94 -212l50 -171l51 171l88 212h219l-276 -581h-174z" />
    <glyph glyph-name="Ydieresis" unicode="&#x178;" horiz-adv-x="959" 
d="M349 569l-344 1139h261l209 -817h12l207 817h260l-346 -1139v-569h-259v569zM695 1751c-52 0 -87.665 13.833 -106.998 41.5s-29 66.5 -29 116.5c0 26 2.16699 48.833 6.5 68.5s11.666 36 21.999 49s24.166 22.833 41.499 29.5s39.333 10 66 10
c54.667 0 92.667 -12.667 114 -38s32 -65 32 -119c0 -24 -2.5 -45.667 -7.5 -65s-13.167 -36 -24.5 -50s-26.333 -24.667 -45 -32s-41.667 -11 -69 -11zM258.002 1751c-52 0 -87.835 13.833 -107.502 41.5s-29.5 66.5 -29.5 116.5c0 26 2.16699 48.833 6.5 68.5
s11.666 36 21.999 49s24.333 22.833 42 29.5s39.834 10 66.501 10c54.667 0 92.5 -12.667 113.5 -38s31.5 -65 31.5 -119c0 -24 -2.5 -45.667 -7.5 -65s-13.167 -36 -24.5 -50s-26.166 -24.667 -44.499 -32s-41.166 -11 -68.499 -11z" />
    <glyph glyph-name="Zacute" unicode="&#x179;" horiz-adv-x="865" 
d="M39 137l506 1367h-430v204h721v-137l-507 -1367h477v-204h-767v137zM378 1850l321 216l129 -167l-345 -166z" />
    <glyph glyph-name="Zcaron" unicode="&#x17d;" horiz-adv-x="865" 
d="M39 137l506 1367h-430v204h721v-137l-507 -1367h477v-204h-767v137zM364 1756l-250 310h248l84 -130l40 -56l40 56l69 130h249l-246 -310h-234z" />
    <glyph glyph-name="zcaron" unicode="&#x17e;" horiz-adv-x="697" 
d="M20 126l386 1059h-353v192h624v-126l-387 -1059h389v-192h-659v126zM259 1485l-270 581h218l94 -212l50 -171l51 171l88 212h219l-276 -581h-174z" />
    <glyph glyph-name="florin" unicode="&#x192;" horiz-adv-x="616" 
d="M153 961h-115v192h115v323c0 74.667 7.83301 135.5 23.5 182.5s37.334 83.667 65.001 110s59.834 44.166 96.501 53.499s76 14 118 14c12 0 25.5 -0.666992 40.5 -2s30 -3.5 45 -6.5s29.667 -6.5 44 -10.5s27.166 -9 38.499 -15v-178c-28 7.33301 -59.333 11 -94 11
c-16.667 0 -32.5 -2.66699 -47.5 -8s-28.167 -14.166 -39.5 -26.499s-20.333 -28.666 -27 -48.999s-10 -45.5 -10 -75.5v-323h201v-192h-201v-1020c0 -74.667 -7.83301 -135.5 -23.5 -182.5s-37.334 -83.667 -65.001 -110s-59.834 -44.166 -96.501 -53.499s-76 -14 -118 -14
c-12 0 -25.5 0.666992 -40.5 2s-30 3.5 -45 6.5s-29.667 6.5 -44 10.5s-27.166 9 -38.499 15v178c28 -7.33301 59.333 -11 94 -11c16.667 0 32.5 2.66699 47.5 8s28.167 14.166 39.5 26.499s20.333 28.666 27 48.999s10 45.5 10 75.5v1020z" />
    <glyph glyph-name="dotlessj" unicode="&#x237;" horiz-adv-x="521" 
d="M134 1377l253.002 0.00195312v-1461c0 -75.333 -7.5 -136.333 -22.5 -183s-35.167 -83.167 -60.5 -109.5s-54.333 -44.166 -87 -53.499s-66.667 -14 -102 -14c-20 0 -40.333 1.66699 -61 5s-41 9.66602 -61 18.999v147c5.33301 -0.666992 10.666 -1.16699 15.999 -1.5
s10.666 -0.5 15.999 -0.5c14.667 0 28.667 2.66699 42 8s25 14.166 35 26.499s17.833 28.666 23.5 48.999s8.5 45.5 8.5 75.5v1493z" />
    <glyph glyph-name="circumflex" unicode="&#x2c6;" horiz-adv-x="948" 
d="M527 1697l-51 172l-50 -172l-94 -212h-218l270 581h174l276 -581h-219z" />
    <glyph glyph-name="caron" unicode="&#x2c7;" horiz-adv-x="948" 
d="M384 1485l-270 581h218l94 -212l50 -171l51 171l88 212h219l-276 -581h-174z" />
    <glyph glyph-name="dotaccent" unicode="&#x2d9;" horiz-adv-x="533" 
d="M265 1574c-46.667 0 -83.5 14.001 -110.5 42.001s-40.5 69 -40.5 123c0 30 3.5 55.167 10.5 75.5s17 36.666 30 48.999s28.833 21.333 47.5 27s40 8.5 64 8.5c50 0 88 -12.667 114 -38s39 -66 39 -122c0 -52 -13.167 -92.5 -39.5 -121.5s-64.5 -43.5 -114.5 -43.5z" />
    <glyph glyph-name="ring" unicode="&#x2da;" horiz-adv-x="866" 
d="M428 1451c-53.333 0 -99.668 8.66699 -139.001 26s-72 40.166 -98 68.499s-45.333 60.833 -58 97.5s-19 74.667 -19 114c0 40 6.16699 78.667 18.5 116s31.333 70.166 57 98.499s58.334 51 98.001 68s86.5 25.5 140.5 25.5c54.667 0 102.167 -8.33301 142.5 -25
s74 -39.167 101 -67.5s47.167 -61.166 60.5 -98.499s20 -76.333 20 -117c0 -37.333 -6.66699 -74.166 -20 -110.499s-33.5 -69 -60.5 -98s-60.667 -52.5 -101 -70.5s-87.833 -27 -142.5 -27zM426.998 1614c26.667 0 49.834 4.16602 69.501 12.499s36 19 49 32
s22.833 27.833 29.5 44.5s10 33.334 10 50.001c0 20.667 -3.33301 40 -10 58s-16.5 33.667 -29.5 47s-29.333 24 -49 32s-42.834 12 -69.501 12c-24 0 -44.667 -4 -62 -12s-31.833 -18.833 -43.5 -32.5s-20.167 -29.5 -25.5 -47.5s-8 -37 -8 -57
c0 -17.333 2.83301 -34.333 8.5 -51s14.167 -31.5 25.5 -44.5s25.833 -23.5 43.5 -31.5s38.167 -12 61.5 -12z" />
    <glyph glyph-name="tilde" unicode="&#x2dc;" horiz-adv-x="975" 
d="M653 1536c-41.333 0 -76.667 6.66602 -106 19.999s-58 32.666 -86 57.999c-16 14 -29.5 26.333 -40.5 37s-20.833 19.667 -29.5 27s-17 12.833 -25 16.5s-17 5.5 -27 5.5c-14 0 -24.667 -5.66699 -32 -17s-11 -27 -11 -47v-72h-178c0 4 -0.333008 9.83301 -1 17.5
s-1.16699 15.667 -1.5 24l-1 24c-0.333008 7.66699 -0.5 13.167 -0.5 16.5c0 46.667 6 85.834 18 117.501s28.167 57 48.5 76s43.833 32.5 70.5 40.5s54.667 12 84 12c39.333 0 72.5 -6.5 99.5 -19.5s53.833 -32.167 80.5 -57.5l28.5 -27.5c10.333 -10.333 21 -20 32 -29
s22 -16.5 33 -22.5s21.833 -9 32.5 -9c14.667 0 26.667 4.66699 36 14s14 24.333 14 45v87h159c4 -23.333 6.83301 -43.666 8.5 -60.999s2.5 -32.333 2.5 -45c0 -38 -5.83301 -71.5 -17.5 -100.5s-27 -53.167 -46 -72.5s-41.167 -33.833 -66.5 -43.5
s-51.333 -14.5 -78 -14.5z" />
    <glyph glyph-name="endash" unicode="&#x2013;" horiz-adv-x="1381" 
d="M126 888h1128v-203h-1128v203z" />
    <glyph glyph-name="emdash" unicode="&#x2014;" horiz-adv-x="1647" 
d="M126 888h1395v-203h-1395v203z" />
    <glyph glyph-name="quoteleft" unicode="&#x2018;" horiz-adv-x="620" 
d="M162 1404l150 472h197l-79 -397v-299h-268v224z" />
    <glyph glyph-name="quoteright" unicode="&#x2019;" horiz-adv-x="620" 
d="M448.01 1652.09l-149.99 -471.972h-196.988l78.9951 396.976v298.982h267.983v-223.986z" />
    <glyph glyph-name="quotesinglbase" unicode="&#x201a;" horiz-adv-x="620" 
d="M448.01 14.0859l-149.99 -471.972h-196.988l78.9951 396.976v298.982h267.983v-223.986z" />
    <glyph glyph-name="quotedblleft" unicode="&#x201c;" horiz-adv-x="1092" 
d="M162 1404l150 472h197l-79 -397v-299h-268v224zM634 1404l150 472h197l-79 -397v-299h-268v224z" />
    <glyph glyph-name="quotedblright" unicode="&#x201d;" horiz-adv-x="1088" 
d="M448.01 1654.09l-149.99 -471.972h-196.988l78.9951 396.976v298.982h267.983v-223.986zM916.01 1654.09l-149.99 -471.972h-196.988l78.9951 396.976v298.982h267.983v-223.986z" />
    <glyph glyph-name="quotedblbase" unicode="&#x201e;" horiz-adv-x="1092" 
d="M448.01 14.0859l-149.99 -471.972h-196.988l78.9951 396.976v298.982h267.983v-223.986zM920.01 14.0859l-149.99 -471.972h-196.988l78.9951 396.976v298.982h267.983v-223.986z" />
    <glyph glyph-name="dagger" unicode="&#x2020;" horiz-adv-x="452" 
d="M116 1155h-262v201h262v509h220v-509h263v-201h-263v-1478h-220v1478z" />
    <glyph glyph-name="daggerdbl" unicode="&#x2021;" horiz-adv-x="452" 
d="M116 628h-262v201h262v326h-262v201h262v509h220v-509h262v-201h-262v-326h262v-201h-262v-951h-220v951z" />
    <glyph glyph-name="bullet" unicode="&#x2022;" horiz-adv-x="711" 
d="M350 532c-36.667 0 -68.501 6.5 -95.501 19.5s-49.5 30.333 -67.5 52s-31.333 46.5 -40 74.5s-13 56.667 -13 86c0 32 4.33301 62.667 13 92s21.834 55.166 39.501 77.499s40 40.333 67 54s59.167 20.5 96.5 20.5c38 0 71.167 -6.66699 99.5 -20s52 -31.166 71 -53.499
s33.167 -48.333 42.5 -78s14 -60.5 14 -92.5c0 -28 -4.66699 -55.833 -14 -83.5s-23.5 -52.5 -42.5 -74.5s-42.667 -39.833 -71 -53.5s-61.5 -20.5 -99.5 -20.5z" />
    <glyph glyph-name="ellipsis" unicode="&#x2026;" horiz-adv-x="1483" 
d="M91 179c0 70.667 14 121.334 42 152.001s66 46 114 46c50 0 88.667 -16.333 116 -49s41 -82.334 41 -149.001c0 -61.333 -13.833 -108.833 -41.5 -142.5s-66.5 -50.5 -116.5 -50.5c-47.333 0 -85 16.333 -113 49s-42 80.667 -42 144zM581 179
c0 70.667 14 121.334 42 152.001s66 46 114 46c50 0 88.667 -16.333 116 -49s41 -82.334 41 -149.001c0 -61.333 -13.833 -108.833 -41.5 -142.5s-66.5 -50.5 -116.5 -50.5c-47.333 0 -85 16.333 -113 49s-42 80.667 -42 144zM1072 179c0 70.667 14 121.334 42 152.001
s66 46 114 46c50 0 88.667 -16.333 116 -49s41 -82.334 41 -149.001c0 -61.333 -13.833 -108.833 -41.5 -142.5s-66.5 -50.5 -116.5 -50.5c-47.333 0 -85 16.333 -113 49s-42 80.667 -42 144z" />
    <glyph glyph-name="perthousand" unicode="&#x2030;" horiz-adv-x="2676" 
d="M1877 527c0 91.333 10.167 164.5 30.5 219.5s46.333 97.333 78 127s66.5 49.334 104.5 59.001s74.667 14.5 110 14.5c22.667 0 46.334 -1.83301 71 -5.5c24.667 -3.66699 48.834 -10.834 72.5 -21.501c23.667 -10.667 46.167 -25.5 67.5 -44.5s40 -44.167 56 -75.5
s28.667 -69.333 38 -114s14 -97.667 14 -159v-107c0 -61.333 -4.83301 -114.666 -14.5 -159.999s-22.667 -84 -39 -116s-35.166 -58.333 -56.5 -79c-21.333 -20.667 -43.833 -37 -67.5 -49s-47.834 -20.167 -72.5 -24.5c-24.667 -4.33301 -48 -6.5 -70 -6.5
c-25.333 0 -50.833 2.16699 -76.5 6.5s-50.334 12.166 -74 23.499c-23.667 11.333 -46 27.333 -67 48s-39.167 47 -54.5 79s-27.5 70.833 -36.5 116.5s-13.5 99.5 -13.5 161.5v107zM2082 368c0 -76.667 8.83301 -133.167 26.5 -169.5s48.5 -54.5 92.5 -54.5
c42 0 71.333 18.167 88 54.5s25 92.833 25 169.5v194c0 77.333 -8.33301 134.333 -25 171s-46 55 -88 55c-44 0 -74.833 -18.333 -92.5 -55s-26.5 -93.667 -26.5 -171v-194zM479 786c-38 0 -76.165 5.33594 -114.498 16.0029s-73 31.5 -104 62.5s-56.167 75 -75.5 132
s-29 131.833 -29 224.5v107c0 60.667 4.66699 113.167 14 157.5s22.166 82.166 38.499 113.499s35.166 56.666 56.499 75.999s44 34.333 68 45s48.5 18 73.5 22s49.5 6 73.5 6c22.667 0 46.334 -1.83301 71.001 -5.5s48.834 -10.834 72.501 -21.501s46.167 -25.5 67.5 -44.5
s40 -44.167 56 -75.5s28.667 -69.333 38 -114s14 -97.667 14 -159v-107c0 -91.333 -10.333 -165.5 -31 -222.5s-46.834 -101.167 -78.501 -132.5s-66.334 -52.5 -104.001 -63.5s-73.167 -16.5 -106.5 -16.5zM1085 1727h181l-459 -1727h-182zM481.002 945.003
c42 0 71.333 18.167 88 54.5s25 92.833 25 169.5v194c0 77.333 -8.33301 134.333 -25 171s-46 55 -88 55c-44 0 -74.833 -18.333 -92.5 -55s-26.5 -93.667 -26.5 -171v-194c0 -76.667 8.83301 -133.167 26.5 -169.5s48.5 -54.5 92.5 -54.5zM1087 527.003
c0 91.333 10.166 164.5 30.499 219.5s46.333 97.333 78 127s66.5 49.334 104.5 59.001s74.667 14.5 110 14.5c22.667 0 46.334 -1.83301 71.001 -5.5s48.834 -10.834 72.501 -21.501s46.167 -25.5 67.5 -44.5s40 -44.167 56 -75.5s28.667 -69.333 38 -114
s14 -97.667 14 -159v-107c0 -61.333 -4.83301 -114.666 -14.5 -159.999s-22.667 -84 -39 -116s-35.166 -58.333 -56.499 -79s-43.833 -37 -67.5 -49s-47.834 -20.167 -72.501 -24.5s-48 -6.5 -70 -6.5c-25.333 0 -50.833 2.16699 -76.5 6.5s-50.334 12.166 -74.001 23.499
s-46 27.333 -67 48s-39.167 47 -54.5 79s-27.5 70.833 -36.5 116.5s-13.5 99.5 -13.5 161.5v107zM1292 368.003c0 -76.667 8.83301 -133.167 26.5 -169.5s48.5 -54.5 92.5 -54.5c42 0 71.333 18.167 88 54.5s25 92.833 25 169.5v194c0 77.333 -8.33301 134.333 -25 171
s-46 55 -88 55c-44 0 -74.833 -18.333 -92.5 -55s-26.5 -93.667 -26.5 -171v-194z" />
    <glyph glyph-name="guilsinglleft" unicode="&#x2039;" horiz-adv-x="834" 
d="M144 717v150l389 406l137 -124l-283 -359l279 -360l-137 -125z" />
    <glyph glyph-name="guilsinglright" unicode="&#x203a;" horiz-adv-x="834" 
d="M680.009 717v150l-388.977 406l-136.991 -124l282.982 -359l-278.982 -360l136.991 -125z" />
    <glyph glyph-name="fraction" unicode="&#x2044;" horiz-adv-x="452" 
d="M-94 0l459 1709h182l-459 -1709h-182z" />
    <glyph glyph-name="Euro" unicode="&#x20ac;" horiz-adv-x="1038" 
d="M4 726l153.997 -0.00292969v151h-154v179h154v105c0 86 7 159.5 21 220.5s32.5 112.333 55.5 154s49.333 74.834 79 99.501s60.667 43.5 93 56.5s64.5 21.5 96.5 25.5s61.667 6 89 6c67.333 0 124 -8.66699 170 -26s83.333 -41.333 112 -72s49.167 -66.5 61.5 -107.5
s18.5 -84.833 18.5 -131.5c0 -24 -0.833008 -44.667 -2.5 -62s-3.66699 -33.166 -6 -47.499s-5.16602 -28 -8.49902 -41s-6.66602 -26.833 -9.99902 -41.5h-200v65c0 92.667 -12.167 159.334 -36.5 200.001s-59.5 61 -105.5 61c-25.333 0 -48 -4.66699 -68 -14
s-37 -25.166 -51 -47.499s-24.667 -51.833 -32 -88.5s-11 -82.334 -11 -137.001v-177h322l-29 -179h-293v-151h267l-32 -180h-235v-90c0 -53.333 3.83301 -97.5 11.5 -132.5s19 -63.167 34 -84.5s33.667 -36.333 56 -45s48.5 -13 78.5 -13c22.667 0 43.5 3.66699 62.5 11
s35.5 18.5 49.5 33.5s24.833 34.167 32.5 57.5s11.5 51 11.5 83v73h218v-61c0 -133.333 -32.333 -232 -97 -296s-157 -96.333 -277 -97c-29.333 0 -60.5 2.16699 -93.5 6.5s-65.833 13.333 -98.5 27s-64.167 33 -94.5 58s-57.166 58.333 -80.499 100s-42 92.667 -56 153
s-21.333 132.5 -22 216.5h-154v180z" />
    <glyph glyph-name="trademark" unicode="&#x2122;" horiz-adv-x="1597" 
d="M686 1725h227l126 -363l34 -113h16l35 113l137 363h204v-852h-177v86c0 52 0.333008 98 1 138s1.5 75.833 2.5 107.5s2.33301 59.5 4 83.5l4.5 66.5c1.33301 20.333 2.83301 39.166 4.5 56.499s3.16699 35 4.5 53h-6l-166 -467h-113l-175 467h-7
c1.33301 -18 2.83301 -35.667 4.5 -53s3.16699 -36.166 4.5 -56.499l4.5 -66.5c1.66699 -24 3 -51.833 4 -83.5s1.83301 -67.5 2.5 -107.5s1 -86 1 -138v-86h-177v852zM218 1566h-178l1 159h533v-159h-178v-693h-178v693z" />
    <glyph glyph-name="minus" unicode="&#x2212;" horiz-adv-x="997" 
d="M126 887h745v-196h-745v196z" />
    <glyph glyph-name="radical" unicode="&#x221a;" horiz-adv-x="1033" 
d="M175 994h-144v196h347l141 -548l33 -292h8l38 292l281 1419h244l-463 -2061h-216z" />
    <glyph glyph-name="integral" unicode="&#x222b;" horiz-adv-x="616" 
d="M153 1476c0 74.667 7.83301 135.5 23.5 182.5s37.334 83.667 65.001 110s59.834 44.166 96.501 53.499s76 14 118 14c12 0 25.5 -0.666992 40.5 -2s30 -3.5 45 -6.5s29.667 -6.5 44 -10.5s27.166 -9 38.499 -15v-178c-28 7.33301 -59.333 11 -94 11
c-16.667 0 -32.5 -2.66699 -47.5 -8s-28.167 -14.166 -39.5 -26.499s-20.333 -28.666 -27 -48.999s-10 -45.5 -10 -75.5v-1535c0 -74.667 -7.83301 -135.5 -23.5 -182.5s-37.334 -83.667 -65.001 -110s-59.834 -44.166 -96.501 -53.499s-76 -14 -118 -14
c-12 0 -25.5 0.666992 -40.5 2s-30 3.5 -45 6.5s-29.667 6.5 -44 10.5s-27.166 9 -38.499 15v178c28 -7.33301 59.333 -11 94 -11c16.667 0 32.5 2.66699 47.5 8s28.167 14.166 39.5 26.499s20.333 28.666 27 48.999s10 45.5 10 75.5v1535z" />
    <glyph glyph-name="approxequal" unicode="&#x2248;" horiz-adv-x="1304" 
d="M130 935c-6.66699 86.667 -2.99707 158.832 11.0029 216.499s35 103.834 63 138.501s61.5 59.167 100.5 73.5s80.167 21.5 123.5 21.5c44 0 82.667 -7.66699 116 -23s63 -34.666 89 -57.999s49.167 -48.333 69.5 -75l58 -75
c18.333 -23.333 36.666 -42.666 54.999 -57.999s38.5 -23 60.5 -23c46 0 77.5 24 94.5 72s17.5 117.667 1.5 209h192c14.667 -78 17.167 -146.5 7.5 -205.5s-27.667 -108 -54 -147s-58.666 -68.333 -96.999 -88s-78.5 -29.5 -120.5 -29.5c-45.333 0 -85.333 7.66699 -120 23
s-65.834 34.333 -93.501 57s-52.167 47.5 -73.5 74.5l-61.5 74.5c-19.667 22.667 -38.834 41.667 -57.501 57s-38.667 23 -60 23c-25.333 0 -46.833 -6.33301 -64.5 -19s-31.334 -30.334 -41.001 -53.001s-15.667 -49.834 -18 -81.501s-0.5 -66.5 5.5 -104.5h-186v0z
M120.003 280.998c-6.66699 86.667 -2.99707 158.832 11.0029 216.499s35 103.834 63 138.501s61.5 59.167 100.5 73.5s80.167 21.5 123.5 21.5c44 0 82.667 -7.66699 116 -23s63 -34.666 89 -57.999s49.167 -48.333 69.5 -75l58 -75
c18.333 -23.333 36.666 -42.666 54.999 -57.999s38.5 -23 60.5 -23c46 0 77.5 24 94.5 72s17.5 117.667 1.5 209h192c14.667 -78 17.167 -146.5 7.5 -205.5s-27.667 -108 -54 -147s-58.666 -68.333 -96.999 -88s-78.5 -29.5 -120.5 -29.5c-45.333 0 -85.333 7.66699 -120 23
s-65.834 34.333 -93.501 57s-52.167 47.5 -73.5 74.5l-61.5 74.5c-19.667 22.667 -38.834 41.667 -57.501 57s-38.667 23 -60 23c-25.333 0 -46.833 -6.33301 -64.5 -19s-31.334 -30.334 -41.001 -53.001s-15.667 -49.834 -18 -81.501s-0.5 -66.5 5.5 -104.5h-186v0z" />
    <glyph glyph-name="notequal" unicode="&#x2260;" horiz-adv-x="916" 
d="M261 488h-175v195h234l63 212h-297v195h356l84 279h159l-84 -279h229v-195h-288l-63 -212h351v-195h-410l-86 -288h-159z" />
    <glyph glyph-name="commaaccent" unicode="&#xf6c3;" horiz-adv-x="531" 
d="M417 -23l-108 -434h-195l62 434h241z" />
    <glyph glyph-name="acute.cap" horiz-adv-x="678" 
d="M114 1850l321 216l129 -167l-345 -166z" />
    <glyph glyph-name="grave.cap" horiz-adv-x="678" 
d="M114 1899l129 167l321 -216l-105 -117z" />
    <glyph glyph-name="dieresis.cap" horiz-adv-x="948" 
d="M688 1751c-52 0 -87.665 13.833 -106.998 41.5s-29 66.5 -29 116.5c0 26 2.16699 48.833 6.5 68.5s11.666 36 21.999 49s24.166 22.833 41.499 29.5s39.333 10 66 10c54.667 0 92.667 -12.667 114 -38s32 -65 32 -119c0 -24 -2.5 -45.667 -7.5 -65s-13.167 -36 -24.5 -50
s-26.333 -24.667 -45 -32s-41.667 -11 -69 -11zM251.002 1751c-52 0 -87.835 13.833 -107.502 41.5s-29.5 66.5 -29.5 116.5c0 26 2.16699 48.833 6.5 68.5s11.666 36 21.999 49s24.333 22.833 42 29.5s39.834 10 66.501 10c54.667 0 92.5 -12.667 113.5 -38
s31.5 -65 31.5 -119c0 -24 -2.5 -45.667 -7.5 -65s-13.167 -36 -24.5 -50s-26.166 -24.667 -44.499 -32s-41.166 -11 -68.499 -11z" />
    <glyph glyph-name="ring.cap" horiz-adv-x="866" 
d="M428 1480c-53.333 0 -99.668 8.33203 -139.001 24.999s-72 38.834 -98 66.501s-45.333 59.167 -58 94.5s-19 72 -19 110c0 38.667 6.16699 75.5 18.5 110.5s31.333 65.667 57 92s58.334 47.333 98.001 63s86.5 23.5 140.5 23.5c54.667 0 102.167 -7.66699 142.5 -23
s74 -36 101 -62s47.167 -56.5 60.5 -91.5s20 -72.5 20 -112.5c0 -36 -6.66699 -71.667 -20 -107s-33.5 -67 -60.5 -95s-60.667 -50.667 -101 -68s-87.833 -26 -142.5 -26zM426.998 1643c26.667 0 49.833 3.83496 69.5 11.502s36 17.667 49 30s22.833 26.166 29.5 41.499
s10 30.666 10 45.999c0 38 -13 69.333 -39 94s-65.667 37 -119 37c-48 0 -83.167 -12.5 -105.5 -37.5s-33.5 -56.167 -33.5 -93.5c0 -16 2.83301 -31.833 8.5 -47.5s14.167 -29.5 25.5 -41.5s25.833 -21.667 43.5 -29s38.167 -11 61.5 -11z" />
    <glyph glyph-name="tilde.cap" horiz-adv-x="975" 
d="M653 1729c-41.333 0 -76.668 5.83301 -106.001 17.5s-58 28.834 -86 51.501c-16 14 -29.5 26.333 -40.5 37s-20.833 19.667 -29.5 27s-17 12.833 -25 16.5s-17 5.5 -27 5.5c-14 0 -24.667 -5.66699 -32 -17s-11 -27 -11 -47v-72h-178c0 4 -0.333008 9.83301 -1 17.5
s-1.16699 15.667 -1.5 24s-0.666016 16.166 -0.999023 23.499s-0.5 12.666 -0.5 15.999c0 44.667 6 82.167 18 112.5s28.167 54.833 48.5 73.5s43.833 31.834 70.5 39.501s54.667 11.5 84 11.5c39.333 0 72.5 -5.66699 99.5 -17s53.833 -28 80.5 -50l28.5 -27.5
c10.333 -10.333 21 -20 32 -29s22 -16.5 33 -22.5s21.833 -9 32.5 -9c14.667 0 26.667 4.66699 36 14s14 24 14 44v78h159c4 -24 6.83301 -44.5 8.5 -61.5s2.5 -31.833 2.5 -44.5c0 -34.667 -5.83301 -65.167 -17.5 -91.5s-27 -48.5 -46 -66.5s-41.167 -31.5 -66.5 -40.5
s-51.333 -13.5 -78 -13.5z" />
    <glyph glyph-name="macron.cap" horiz-adv-x="851" 
d="M114 2066h623v-192h-623v192z" />
    <glyph glyph-name="circumflex.cap" horiz-adv-x="958" 
d="M526 1886l-40 56l-40 -56l-84 -130h-248l250 310h234l246 -310h-249z" />
    <glyph glyph-name="caron.cap" horiz-adv-x="958" 
d="M364 1756l-250 310h248l84 -130l40 -56l40 56l69 130h249l-246 -310h-234z" />
  </font>
</defs>
</svg>
